<svg width="365" height="249" viewBox="0 0 365 249" fill="none" xmlns="http://www.w3.org/2000/svg">
<g clip-path="url(#clip0_16_322)">
<g clip-path="url(#clip1_16_322)">
<path d="M0 63V248" stroke="black" stroke-opacity="0.2" stroke-width="1.29897" stroke-miterlimit="10"/>
<path d="M0 -48V63" stroke="black" stroke-opacity="0.2" stroke-width="1.29897" stroke-miterlimit="10"/>
<path d="M186 -48L186 246" stroke="black" stroke-opacity="0.2" stroke-width="1.29897" stroke-miterlimit="10"/>
<path d="M151 36V248" stroke="black" stroke-opacity="0.3" stroke-width="0.8" stroke-miterlimit="10"/>
<path d="M151 0L151 37" stroke="black" stroke-opacity="0.3" stroke-width="0.8" stroke-miterlimit="10"/>
<path d="M115 9L115 248" stroke="black" stroke-opacity="0.3" stroke-width="0.8" stroke-miterlimit="10"/>
<path d="M78 63V248" stroke="black" stroke-opacity="0.3" stroke-width="0.8" stroke-miterlimit="10"/>
<path d="M42 63V248" stroke="black" stroke-opacity="0.3" stroke-width="0.8" stroke-miterlimit="10"/>
<path d="M78 9L78 70" stroke="black" stroke-opacity="0.3" stroke-width="0.8" stroke-miterlimit="10"/>
<path d="M42 16L42 63" stroke="black" stroke-opacity="0.3" stroke-width="0.8" stroke-miterlimit="10"/>
<path d="M458 26L-107 26" stroke="black" stroke-opacity="0.3" stroke-width="0.8" stroke-miterlimit="10"/>
<path d="M449 63L-107 63" stroke="black" stroke-opacity="0.3" stroke-width="0.8" stroke-miterlimit="10"/>
<path d="M118 99H-107" stroke="black" stroke-opacity="0.3" stroke-width="0.8" stroke-miterlimit="10"/>
<path d="M118 137H-107" stroke="black" stroke-opacity="0.3" stroke-width="0.8" stroke-miterlimit="10"/>
<path d="M115 99L458 99" stroke="black" stroke-opacity="0.3" stroke-width="0.8" stroke-miterlimit="10"/>
<path d="M115 137L433 137" stroke="black" stroke-opacity="0.3" stroke-width="0.8" stroke-miterlimit="10"/>
<path d="M437 174L-107 174" stroke="black" stroke-opacity="0.3" stroke-width="0.8" stroke-miterlimit="10"/>
<path d="M440 210L-107 210" stroke="black" stroke-opacity="0.3" stroke-width="0.8" stroke-miterlimit="10"/>
<path d="M158 173.998C158 175.854 157.263 177.635 155.951 178.948C154.638 180.261 152.858 180.999 151.002 181C150.083 181 149.172 180.819 148.323 180.467C147.473 180.115 146.701 179.599 146.051 178.949C145.401 178.299 144.885 177.527 144.533 176.677C144.181 175.828 144 174.917 144 173.998C144 173.079 144.181 172.168 144.533 171.319C144.885 170.47 145.401 169.698 146.051 169.048C146.701 168.398 147.473 167.883 148.323 167.531C149.172 167.18 150.083 166.999 151.002 167C152.858 167 154.638 167.737 155.95 169.05C157.263 170.362 158 172.142 158 173.998Z" fill="white"/>
<path d="M112.873 150.928V141.753L104.515 129.546C104.183 129.155 104.001 128.663 104 128.154C104.001 127.851 104.066 127.552 104.192 127.275C104.318 126.999 104.501 126.752 104.73 126.549C105.144 126.187 105.681 125.991 106.235 126C106.528 126.001 106.816 126.071 107.077 126.202C107.338 126.334 107.563 126.524 107.735 126.757L115.042 137.615L122.261 126.718C122.455 126.491 122.698 126.309 122.973 126.185C123.248 126.06 123.547 125.998 123.849 126C124.354 126.002 124.843 126.182 125.226 126.506C125.471 126.698 125.668 126.942 125.802 127.22C125.936 127.498 126.004 127.803 126 128.11C125.992 128.619 125.809 129.11 125.481 129.503L117.189 141.753V150.928C117.191 151.204 117.137 151.478 117.029 151.733C116.922 151.988 116.763 152.219 116.563 152.412C116.362 152.605 116.124 152.757 115.863 152.858C115.602 152.959 115.322 153.007 115.042 152.999C114.761 153.007 114.482 152.959 114.22 152.858C113.959 152.757 113.721 152.605 113.521 152.412C113.32 152.219 113.162 151.988 113.054 151.733C112.947 151.478 112.893 151.204 112.895 150.928H112.873Z" fill="#7743AB"/>
<path d="M14.9913 65.127H6.17643L-5.5837 73.4853C-5.95949 73.8183 -6.43451 74.0006 -6.92509 74C-7.21651 73.9977 -7.50434 73.9316 -7.77036 73.806C-8.03638 73.6803 -8.27478 73.4977 -8.4706 73.2697C-8.8201 72.8565 -9.00905 72.3192 -8.99967 71.7653C-8.99742 71.4714 -8.9299 71.1822 -8.80256 70.9209C-8.67522 70.6596 -8.49161 70.4335 -8.26648 70.2608L2.1897 62.9583L-8.30818 55.7393C-8.52605 55.5438 -8.70081 55.3004 -8.82026 55.0261C-8.93971 54.7518 -9.00093 54.4532 -8.99967 54.1513C-8.99861 53.6455 -8.82569 53.1569 -8.5123 52.7744C-8.32716 52.53 -8.09182 52.3333 -7.82406 52.1991C-7.5563 52.065 -7.26314 51.9969 -6.96679 52.0001C-6.47636 52.0078 -6.00256 52.189 -5.62123 52.5148L6.17643 60.8071H15.008C15.2737 60.8058 15.537 60.8609 15.7822 60.9692C16.0273 61.0775 16.2494 61.2367 16.4351 61.4373C16.6208 61.638 16.7665 61.876 16.8634 62.1373C16.9603 62.3986 17.0065 62.6778 16.9993 62.9583C17.0065 63.2386 16.9603 63.5175 16.8634 63.7786C16.7664 64.0396 16.6207 64.2773 16.4349 64.4777C16.2491 64.678 16.027 64.8368 15.7818 64.9446C15.5367 65.0523 15.2735 65.1069 15.008 65.105L14.9913 65.127Z" fill="#7743AB"/>
<path d="M39.0001 118.007V95.9888C38.9979 95.7237 39.0613 95.4609 39.1867 95.2162C39.3121 94.9715 39.4968 94.7497 39.7298 94.5642C39.9629 94.3787 40.2394 94.2332 40.5431 94.1364C40.8467 94.0396 41.1713 93.9935 41.4974 94.0007C41.8237 93.9935 42.1485 94.0396 42.4524 94.1364C42.7564 94.2331 43.0334 94.3786 43.2668 94.564C43.5002 94.7495 43.6853 94.9711 43.8113 95.2159C43.9372 95.4607 44.0014 95.7235 43.9999 95.9888V118.007C44.0021 118.273 43.9384 118.536 43.8128 118.781C43.6871 119.026 43.5022 119.249 43.2687 119.435C43.0352 119.62 42.758 119.766 42.4537 119.863C42.1494 119.96 41.8241 120.007 41.4974 119.999C41.1711 120.006 40.8464 119.959 40.5427 119.862C40.239 119.765 39.9625 119.619 39.7296 119.433C39.4966 119.247 39.312 119.025 39.1867 118.78C39.0614 118.535 38.9979 118.272 39.0001 118.007Z" fill="#DB0032"/>
<path d="M149 37.8582V14.1463C148.998 13.8604 149.048 13.577 149.148 13.3129C149.248 13.0488 149.396 12.8095 149.582 12.6092C149.769 12.4089 149.99 12.2519 150.234 12.1473C150.477 12.0428 150.737 11.993 150.998 12.0008C151.259 11.993 151.52 12.0428 151.763 12.1473C152.006 12.2518 152.228 12.4088 152.415 12.609C152.602 12.8092 152.75 13.0484 152.85 13.3125C152.951 13.5766 153.002 13.8602 153 14.1463V37.8582C153.001 38.1439 152.95 38.427 152.849 38.6906C152.748 38.9541 152.6 39.1929 152.413 39.3926C152.227 39.5923 152.005 39.7489 151.762 39.8531C151.519 39.9573 151.259 40.007 150.998 39.9992C150.737 40.007 150.478 39.9573 150.235 39.8531C149.992 39.7488 149.77 39.5921 149.584 39.3923C149.397 39.1926 149.25 38.9538 149.149 38.6902C149.049 38.4267 148.998 38.1437 149 37.8582Z" fill="#79A3DC"/>
<path d="M24.8582 212H1.14627C0.860406 212.002 0.576991 211.952 0.312905 211.852C0.0488185 211.751 -0.190516 211.604 -0.39077 211.417C-0.591025 211.23 -0.748137 211.009 -0.85267 210.765C-0.957203 210.522 -1.00704 210.261 -0.999201 210C-1.00704 209.739 -0.957203 209.478 -0.85267 209.235C-0.748137 208.991 -0.591025 208.77 -0.39077 208.583C-0.190516 208.396 0.0488185 208.249 0.312905 208.148C0.576991 208.048 0.860406 207.998 1.14627 208H24.8582C25.1437 207.998 25.4267 208.049 25.6903 208.15C25.9538 208.25 26.1925 208.398 26.3923 208.585C26.5921 208.771 26.7489 208.993 26.8531 209.236C26.9574 209.479 27.007 209.739 26.9992 210C27.007 210.261 26.9574 210.521 26.8531 210.764C26.7489 211.007 26.5921 211.229 26.3923 211.415C26.1925 211.602 25.9538 211.75 25.6903 211.85C25.4267 211.951 25.1437 212.002 24.8582 212Z" fill="#6AC0AE"/>
<path d="M81.9997 99.0001C82.0066 98.3465 81.8815 97.6981 81.6316 97.0935C81.3818 96.4888 81.0125 95.9403 80.5455 95.4804C80.0854 95.0092 79.5345 94.6353 78.9257 94.381C78.317 94.1267 77.6628 93.9972 77.0026 94.0004C76.3378 93.9922 75.6783 94.1188 75.0643 94.3724C74.4503 94.6261 73.8946 95.0014 73.4311 95.4756C72.9679 95.9381 72.6026 96.4883 72.3569 97.0937C72.1112 97.6991 71.99 98.3473 72.0006 99.0001C71.9904 99.6522 72.1117 100.3 72.3574 100.904C72.6032 101.509 72.9682 102.058 73.4311 102.52C73.8962 102.992 74.4521 103.367 75.0657 103.621C75.6793 103.875 76.3379 104.004 77.0026 104C77.662 104.002 78.3153 103.873 78.9232 103.618C79.5311 103.364 80.0812 102.99 80.5407 102.52C81.0086 102.06 81.3788 101.512 81.6294 100.907C81.8801 100.303 82.006 99.6541 81.9997 99.0001Z" fill="#E9458D"/>
<path d="M82.9997 210C83.0066 209.346 82.8815 208.698 82.6316 208.093C82.3818 207.489 82.0125 206.94 81.5455 206.48C81.0854 206.009 80.5345 205.635 79.9257 205.381C79.317 205.127 78.6628 204.997 78.0026 205C77.3378 204.992 76.6783 205.119 76.0643 205.372C75.4503 205.626 74.8946 206.001 74.4311 206.476C73.9679 206.938 73.6026 207.488 73.3569 208.094C73.1112 208.699 72.99 209.347 73.0006 210C72.9904 210.652 73.1117 211.3 73.3574 211.904C73.6032 212.509 73.9682 213.058 74.4311 213.52C74.8962 213.992 75.4521 214.367 76.0657 214.621C76.6793 214.875 77.3379 215.004 78.0026 215C78.662 215.002 79.3153 214.873 79.9232 214.618C80.5311 214.364 81.0812 213.99 81.5407 213.52C82.0086 213.06 82.3788 212.512 82.6294 211.907C82.8801 211.303 83.006 210.654 82.9997 210Z" fill="#6AC0AE"/>
<path d="M119.119 67.0974C118.585 67.6464 117.945 68.0816 117.237 68.3768C116.529 68.6719 115.769 68.8208 115.002 68.8146C114.242 68.8166 113.488 68.6656 112.788 68.3706C112.087 68.0755 111.453 67.6425 110.924 67.0974C110.377 66.5697 109.943 65.9372 109.647 65.2379C109.352 64.5386 109.201 63.7869 109.203 63.0279C109.201 62.2632 109.352 61.5059 109.648 60.8004C109.943 60.0949 110.377 59.4554 110.924 58.9197C111.455 58.3806 112.091 57.9544 112.791 57.6667C113.492 57.379 114.244 57.2357 115.002 57.2455C115.766 57.2315 116.525 57.3726 117.233 57.6604C117.941 57.9482 118.583 58.3767 119.119 58.9197C119.664 59.455 120.094 60.0952 120.383 60.8014C120.672 61.5076 120.815 62.2651 120.801 63.0279C120.811 63.7844 120.667 64.535 120.378 65.2344C120.089 65.9339 119.66 66.5676 119.119 67.0974ZM122.062 55.9363C121.136 55.0079 120.036 54.2707 118.825 53.7669C117.614 53.2631 116.315 53.0025 115.002 53C113.69 53.0025 112.391 53.2631 111.18 53.7669C109.968 54.2707 108.868 55.0079 107.943 55.9363C106.063 57.8167 105.005 60.3631 105 63.0193C105.002 64.329 105.262 65.6255 105.767 66.8344C106.272 68.0432 107.011 69.1407 107.943 70.0637C108.868 70.9921 109.968 71.7293 111.18 72.2331C112.391 72.7369 113.69 72.9975 115.002 73C116.315 72.9975 117.614 72.7369 118.825 72.2331C120.036 71.7293 121.136 70.9921 122.062 70.0637C122.991 69.1398 123.729 68.042 124.233 66.8333C124.738 65.6246 124.998 64.3286 125 63.0193C124.995 60.364 123.939 57.8182 122.062 55.9363Z" fill="#6AC0AE"/>
<path d="M46.1317 30.1465C45.5912 30.6813 44.9502 31.1044 44.2452 31.3915C43.5402 31.6786 42.7852 31.8241 42.0237 31.8195C41.2615 31.8239 40.5059 31.6784 39.8002 31.3913C39.0946 31.1043 38.4526 30.6812 37.9112 30.1465C37.3684 29.6104 36.9373 28.9726 36.6426 28.2699C36.3479 27.5672 36.1955 26.8134 36.1941 26.0517C36.192 25.2896 36.3428 24.5347 36.6377 23.8315C36.9326 23.1282 37.3655 22.4909 37.9112 21.9569C38.4472 21.415 39.0882 20.9872 39.7951 20.6996C40.502 20.412 41.2602 20.2706 42.0237 20.2839C42.7864 20.2707 43.5439 20.4122 44.2501 20.6998C44.9563 20.9874 45.5965 21.4151 46.1317 21.9569C46.6748 22.4906 47.1032 23.1289 47.3911 23.8328C47.6789 24.5368 47.8201 25.2917 47.806 26.0517C47.8123 26.8107 47.6675 27.5633 47.3802 28.2662C47.0928 28.969 46.6684 29.6081 46.1317 30.1465ZM49.0637 18.9874C48.1404 18.0632 47.0434 17.3294 45.8355 16.828C44.6275 16.3265 43.3322 16.0673 42.0237 16.065C39.9331 16.0798 37.8977 16.7356 36.1941 17.9434V11.0503C36.1965 10.7772 36.1437 10.5065 36.0387 10.2542C35.9338 10.0019 35.779 9.77327 35.5835 9.58197C35.388 9.39067 35.1557 9.24062 34.9007 9.14076C34.6457 9.0409 34.3731 8.99328 34.0993 9.00076C33.8252 8.99329 33.5523 9.04088 33.2971 9.14069C33.0418 9.2405 32.8093 9.3905 32.6135 9.58174C32.4176 9.77299 32.2623 10.0016 32.1569 10.2539C32.0515 10.5062 31.9982 10.777 32 11.0503V33.7022C31.9988 33.9751 32.0527 34.2455 32.1583 34.4973C32.2639 34.7491 32.4192 34.9772 32.615 35.168C32.8108 35.3587 33.0432 35.5084 33.2981 35.6079C33.5531 35.7075 33.8255 35.7549 34.0993 35.7475C34.5835 35.7513 35.0537 35.5861 35.4285 35.2805C35.8033 34.9749 36.0589 34.5483 36.1511 34.0745C37.8476 35.3335 39.9086 36.0092 42.0237 35.9999C43.3326 35.9978 44.6282 35.7382 45.8363 35.236C47.0444 34.7338 48.1412 33.9988 49.0637 33.0732C49.9921 32.1526 50.7292 31.0586 51.233 29.8538C51.7369 28.649 51.9975 27.357 52 26.0517C52.0018 24.7395 51.7432 23.4398 51.2393 22.2274C50.7354 21.0151 49.996 19.914 49.0637 18.9874Z" fill="#79A3DC"/>
<path d="M155.132 178.147C154.591 178.681 153.95 179.104 153.245 179.392C152.54 179.679 151.785 179.824 151.024 179.82C150.261 179.824 149.506 179.678 148.8 179.391C148.095 179.104 147.453 178.681 146.911 178.147C146.368 177.61 145.937 176.973 145.643 176.27C145.348 175.567 145.196 174.813 145.194 174.052C145.192 173.29 145.343 172.535 145.638 171.831C145.933 171.128 146.366 170.491 146.911 169.957C147.447 169.415 148.088 168.987 148.795 168.7C149.502 168.412 150.26 168.271 151.024 168.284C151.786 168.271 152.544 168.412 153.25 168.7C153.956 168.987 154.596 169.415 155.132 169.957C155.675 170.491 156.103 171.129 156.391 171.833C156.679 172.537 156.82 173.292 156.806 174.052C156.812 174.811 156.668 175.563 156.38 176.266C156.093 176.969 155.668 177.608 155.132 178.147ZM158.064 166.987C157.14 166.063 156.043 165.329 154.835 164.828C153.627 164.327 152.332 164.067 151.024 164.065C148.933 164.08 146.898 164.736 145.194 165.943V159.05C145.196 158.777 145.144 158.506 145.039 158.254C144.934 158.002 144.779 157.773 144.583 157.582C144.388 157.391 144.156 157.241 143.901 157.141C143.646 157.041 143.373 156.993 143.099 157.001C142.825 156.993 142.552 157.041 142.297 157.141C142.042 157.241 141.809 157.391 141.613 157.582C141.418 157.773 141.262 158.002 141.157 158.254C141.052 158.506 140.998 158.777 141 159.05V181.702C140.999 181.975 141.053 182.246 141.158 182.497C141.264 182.749 141.419 182.977 141.615 183.168C141.811 183.359 142.043 183.508 142.298 183.608C142.553 183.707 142.826 183.755 143.099 183.747C143.583 183.751 144.054 183.586 144.428 183.281C144.803 182.975 145.059 182.548 145.151 182.074C146.848 183.333 148.909 184.009 151.024 184C152.333 183.998 153.628 183.738 154.836 183.236C156.044 182.734 157.141 181.999 158.064 181.073C158.992 180.153 159.729 179.059 160.233 177.854C160.737 176.649 160.998 175.357 161 174.052C161.002 172.739 160.743 171.44 160.239 170.227C159.735 169.015 158.996 167.914 158.064 166.987Z" fill="#E9458D"/>
<path d="M49 173.998C49 175.854 48.2629 177.635 46.9507 178.948C45.6384 180.261 43.8585 180.999 42.0021 181C41.0826 181 40.1721 180.819 39.3226 180.467C38.4731 180.115 37.7011 179.599 37.0509 178.949C36.4007 178.299 35.885 177.527 35.5331 176.677C35.1812 175.828 35 174.917 35 173.998C35 173.079 35.1812 172.168 35.5331 171.319C35.885 170.47 36.4009 169.698 37.0512 169.048C37.7014 168.398 38.4734 167.883 39.3229 167.531C40.1724 167.18 41.0828 166.999 42.0021 167C43.8581 167 45.638 167.737 46.9504 169.05C48.2627 170.362 49 172.142 49 173.998Z" fill="white"/>
<circle cx="115" cy="63" r="6" fill="white"/>
<circle cx="42" cy="26" r="6" fill="white"/>
<path d="M155.119 252.097C154.584 252.646 153.943 253.081 153.234 253.376C152.526 253.671 151.765 253.82 150.998 253.815C150.238 253.816 149.486 253.665 148.786 253.37C148.086 253.075 147.452 252.642 146.924 252.097C146.378 251.57 145.944 250.938 145.649 250.24C145.353 249.541 145.201 248.79 145.203 248.032C145.201 247.268 145.352 246.51 145.648 245.805C145.943 245.099 146.377 244.46 146.924 243.924C147.454 243.383 148.088 242.956 148.788 242.667C149.489 242.379 150.24 242.235 150.998 242.246C151.763 242.233 152.523 242.375 153.231 242.663C153.939 242.952 154.582 243.381 155.119 243.924C155.663 244.46 156.091 245.101 156.38 245.807C156.668 246.513 156.81 247.27 156.797 248.032C156.806 248.788 156.662 249.537 156.373 250.235C156.085 250.934 155.659 251.567 155.119 252.097ZM158.057 240.936C157.132 240.008 156.032 239.271 154.821 238.767C153.609 238.263 152.31 238.002 150.998 238C149.685 238.002 148.387 238.263 147.175 238.767C145.964 239.271 144.864 240.008 143.938 240.936C142.061 242.82 141.005 245.367 141 248.024C141.005 250.667 142.062 253.201 143.938 255.068C145.809 256.94 148.348 257.995 150.998 258C153.647 257.995 156.187 256.94 158.057 255.068C158.988 254.144 159.727 253.047 160.232 251.838C160.736 250.629 160.998 249.333 161 248.024C160.996 245.366 159.938 242.818 158.057 240.936Z" fill="#E9458D"/>
<circle cx="151" cy="248" r="6" fill="white"/>
<path d="M46.1192 178.089C45.5843 178.637 44.9438 179.072 44.2363 179.367C43.5289 179.662 42.7689 179.811 42.0022 179.806C41.2417 179.808 40.4887 179.656 39.788 179.361C39.0874 179.066 38.4534 178.634 37.9239 178.089C37.378 177.561 36.9443 176.928 36.6487 176.229C36.3531 175.53 36.2015 174.778 36.2031 174.019C36.201 173.255 36.3521 172.497 36.6477 171.792C36.9432 171.086 37.3771 170.447 37.9239 169.911C38.4548 169.371 39.0899 168.944 39.7909 168.655C40.4918 168.367 41.244 168.223 42.0022 168.233C42.7666 168.219 43.5258 168.361 44.2335 168.65C44.9412 168.938 45.5828 169.368 46.1192 169.911C46.664 170.446 47.094 171.087 47.3831 171.793C47.6723 172.499 47.8146 173.257 47.8012 174.019C47.81 174.776 47.6657 175.526 47.3766 176.225C47.0876 176.925 46.6598 177.559 46.1192 178.089ZM49.0187 166.893C48.0994 165.972 47.0058 165.241 45.8013 164.745C44.5968 164.248 43.3054 163.995 42.0022 164C40.6901 164.002 39.3914 164.262 38.1801 164.765C36.9688 165.268 35.8687 166.005 34.9426 166.932C33.0623 168.814 32.0044 171.362 32 174.019C32.0134 176.662 33.0708 179.194 34.9426 181.064C35.8679 181.992 36.9678 182.73 38.1792 183.234C39.3906 183.738 40.6897 183.998 42.0022 184C44.1355 183.995 46.195 183.22 47.8012 181.819C47.8409 182.339 48.074 182.825 48.4545 183.181C48.8351 183.538 49.3356 183.74 49.8576 183.747C50.1394 183.75 50.4188 183.696 50.679 183.588C50.9393 183.48 51.175 183.321 51.3719 183.12C51.7665 182.714 51.9911 182.174 52 181.609V173.946C51.9625 171.301 50.8931 168.774 49.0187 166.902V166.893Z" fill="#79A3DC"/>
<g filter="url(#filter0_d_16_322)">
<path d="M106.923 199.03C107.098 199.451 106.93 201.045 106 201.414C105.07 201.784 103.882 201.414 103.882 201.414L101.726 197.102L98 200.828V184L109.414 195.414H105.162C105.37 195.814 106.7 198.495 106.923 199.03Z" fill="white"/>
<path fill-rule="evenodd" clip-rule="evenodd" d="M99 186.414V198.414L102 195.414L104.5 200.414C104.5 200.414 105.176 200.63 105.5 200.414C105.824 200.198 106.146 199.764 106 199.414C105.312 197.764 103.5 194.414 103.5 194.414H107L99 186.414Z" fill="black"/>
</g>
</g>
<path d="M365 -48L365 246" stroke="black" stroke-opacity="0.2" stroke-width="1.29897" stroke-miterlimit="10"/>
<path d="M330 36V248" stroke="black" stroke-opacity="0.3" stroke-width="0.8" stroke-miterlimit="10"/>
<path d="M330 0L330 37" stroke="black" stroke-opacity="0.3" stroke-width="0.8" stroke-miterlimit="10"/>
<path d="M294 9L294 248" stroke="black" stroke-opacity="0.3" stroke-width="0.8" stroke-miterlimit="10"/>
<path d="M257 63V248" stroke="black" stroke-opacity="0.3" stroke-width="0.8" stroke-miterlimit="10"/>
<path d="M221 63V248" stroke="black" stroke-opacity="0.3" stroke-width="0.8" stroke-miterlimit="10"/>
<path d="M257 9L257 70" stroke="black" stroke-opacity="0.3" stroke-width="0.8" stroke-miterlimit="10"/>
<path d="M221 16L221 63" stroke="black" stroke-opacity="0.3" stroke-width="0.8" stroke-miterlimit="10"/>
<path d="M294 99L637 99" stroke="black" stroke-opacity="0.3" stroke-width="0.8" stroke-miterlimit="10"/>
<path d="M294 137L612 137" stroke="black" stroke-opacity="0.3" stroke-width="0.8" stroke-miterlimit="10"/>
<path d="M337 173.998C337 175.854 336.263 177.635 334.951 178.948C333.638 180.261 331.858 180.999 330.002 181C329.083 181 328.172 180.819 327.323 180.467C326.473 180.115 325.701 179.599 325.051 178.949C324.401 178.299 323.885 177.527 323.533 176.677C323.181 175.828 323 174.917 323 173.998C323 173.079 323.181 172.168 323.533 171.319C323.885 170.47 324.401 169.698 325.051 169.048C325.701 168.398 326.473 167.883 327.323 167.531C328.172 167.18 329.083 166.999 330.002 167C331.858 167 333.638 167.737 334.95 169.05C336.263 170.362 337 172.142 337 173.998Z" fill="white"/>
<path d="M291.873 150.928V141.753L283.515 129.546C283.183 129.155 283.001 128.663 283 128.154C283.001 127.851 283.066 127.552 283.192 127.275C283.318 126.999 283.501 126.752 283.73 126.549C284.144 126.187 284.681 125.991 285.235 126C285.528 126.001 285.816 126.071 286.077 126.202C286.338 126.334 286.563 126.524 286.735 126.757L294.042 137.615L301.261 126.718C301.455 126.491 301.698 126.309 301.973 126.185C302.248 126.06 302.547 125.998 302.849 126C303.354 126.002 303.843 126.182 304.226 126.506C304.471 126.698 304.668 126.942 304.802 127.22C304.936 127.498 305.004 127.803 305 128.11C304.992 128.619 304.809 129.11 304.481 129.503L296.189 141.753V150.928C296.191 151.204 296.137 151.478 296.029 151.733C295.922 151.988 295.763 152.219 295.563 152.412C295.362 152.605 295.124 152.757 294.863 152.858C294.602 152.959 294.322 153.007 294.042 152.999C293.761 153.007 293.482 152.959 293.22 152.858C292.959 152.757 292.721 152.605 292.521 152.412C292.32 152.219 292.162 151.988 292.054 151.733C291.947 151.478 291.893 151.204 291.895 150.928H291.873Z" fill="#7743AB"/>
<path d="M193.991 65.127H185.176L173.416 73.4853C173.041 73.8183 172.565 74.0006 172.075 74C171.783 73.9977 171.496 73.9316 171.23 73.806C170.964 73.6803 170.725 73.4977 170.529 73.2697C170.18 72.8565 169.991 72.3192 170 71.7653C170.003 71.4714 170.07 71.1822 170.197 70.9209C170.325 70.6596 170.508 70.4335 170.734 70.2608L181.19 62.9583L170.692 55.7393C170.474 55.5438 170.299 55.3004 170.18 55.0261C170.06 54.7518 169.999 54.4532 170 54.1513C170.001 53.6455 170.174 53.1569 170.488 52.7744C170.673 52.53 170.908 52.3333 171.176 52.1991C171.444 52.065 171.737 51.9969 172.033 52.0001C172.524 52.0078 172.997 52.189 173.379 52.5148L185.176 60.8071H194.008C194.274 60.8058 194.537 60.8609 194.782 60.9692C195.027 61.0775 195.249 61.2367 195.435 61.4373C195.621 61.638 195.766 61.876 195.863 62.1373C195.96 62.3986 196.007 62.6778 195.999 62.9583C196.007 63.2386 195.96 63.5175 195.863 63.7786C195.766 64.0396 195.621 64.2773 195.435 64.4777C195.249 64.678 195.027 64.8368 194.782 64.9446C194.537 65.0523 194.274 65.1069 194.008 65.105L193.991 65.127Z" fill="#7743AB"/>
<path d="M218 118.007V95.9888C217.998 95.7237 218.061 95.4609 218.187 95.2162C218.312 94.9715 218.497 94.7497 218.73 94.5642C218.963 94.3787 219.239 94.2332 219.543 94.1364C219.847 94.0396 220.171 93.9935 220.497 94.0007C220.824 93.9935 221.148 94.0396 221.452 94.1364C221.756 94.2331 222.033 94.3786 222.267 94.564C222.5 94.7495 222.685 94.9711 222.811 95.2159C222.937 95.4607 223.001 95.7235 223 95.9888V118.007C223.002 118.273 222.938 118.536 222.813 118.781C222.687 119.026 222.502 119.249 222.269 119.435C222.035 119.62 221.758 119.766 221.454 119.863C221.149 119.96 220.824 120.007 220.497 119.999C220.171 120.006 219.846 119.959 219.543 119.862C219.239 119.765 218.963 119.619 218.73 119.433C218.497 119.247 218.312 119.025 218.187 118.78C218.061 118.535 217.998 118.272 218 118.007Z" fill="#DB0032"/>
<path d="M328 37.8582V14.1463C327.998 13.8604 328.048 13.577 328.148 13.3129C328.248 13.0488 328.396 12.8095 328.582 12.6092C328.769 12.4089 328.99 12.2519 329.234 12.1473C329.477 12.0428 329.737 11.993 329.998 12.0008C330.259 11.993 330.52 12.0428 330.763 12.1473C331.006 12.2518 331.228 12.4088 331.415 12.609C331.602 12.8092 331.75 13.0484 331.85 13.3125C331.951 13.5766 332.002 13.8602 332 14.1463V37.8582C332.001 38.1439 331.95 38.427 331.849 38.6906C331.748 38.9541 331.6 39.1929 331.413 39.3926C331.227 39.5923 331.005 39.7489 330.762 39.8531C330.519 39.9573 330.259 40.007 329.998 39.9992C329.737 40.007 329.478 39.9573 329.235 39.8531C328.992 39.7488 328.77 39.5921 328.584 39.3923C328.397 39.1926 328.25 38.9538 328.149 38.6902C328.049 38.4267 327.998 38.1437 328 37.8582Z" fill="#79A3DC"/>
<path d="M203.858 212H180.146C179.86 212.002 179.577 211.952 179.313 211.852C179.049 211.751 178.809 211.604 178.609 211.417C178.409 211.23 178.252 211.009 178.147 210.765C178.043 210.522 177.993 210.261 178.001 210C177.993 209.739 178.043 209.478 178.147 209.235C178.252 208.991 178.409 208.77 178.609 208.583C178.809 208.396 179.049 208.249 179.313 208.148C179.577 208.048 179.86 207.998 180.146 208H203.858C204.144 207.998 204.427 208.049 204.69 208.15C204.954 208.25 205.193 208.398 205.392 208.585C205.592 208.771 205.749 208.993 205.853 209.236C205.957 209.479 206.007 209.739 205.999 210C206.007 210.261 205.957 210.521 205.853 210.764C205.749 211.007 205.592 211.229 205.392 211.415C205.193 211.602 204.954 211.75 204.69 211.85C204.427 211.951 204.144 212.002 203.858 212Z" fill="#6AC0AE"/>
<path d="M261 99.0001C261.007 98.3465 260.881 97.6981 260.632 97.0935C260.382 96.4888 260.012 95.9403 259.545 95.4804C259.085 95.0092 258.534 94.6353 257.926 94.381C257.317 94.1267 256.663 93.9972 256.003 94.0004C255.338 93.9922 254.678 94.1188 254.064 94.3724C253.45 94.6261 252.895 95.0014 252.431 95.4756C251.968 95.9381 251.603 96.4883 251.357 97.0937C251.111 97.6991 250.99 98.3473 251.001 99.0001C250.99 99.6522 251.112 100.3 251.357 100.904C251.603 101.509 251.968 102.058 252.431 102.52C252.896 102.992 253.452 103.367 254.066 103.621C254.679 103.875 255.338 104.004 256.003 104C256.662 104.002 257.315 103.873 257.923 103.618C258.531 103.364 259.081 102.99 259.541 102.52C260.009 102.06 260.379 101.512 260.629 100.907C260.88 100.303 261.006 99.6541 261 99.0001Z" fill="#E9458D"/>
<path d="M262 210C262.007 209.346 261.881 208.698 261.632 208.093C261.382 207.489 261.012 206.94 260.545 206.48C260.085 206.009 259.534 205.635 258.926 205.381C258.317 205.127 257.663 204.997 257.003 205C256.338 204.992 255.678 205.119 255.064 205.372C254.45 205.626 253.895 206.001 253.431 206.476C252.968 206.938 252.603 207.488 252.357 208.094C252.111 208.699 251.99 209.347 252.001 210C251.99 210.652 252.112 211.3 252.357 211.904C252.603 212.509 252.968 213.058 253.431 213.52C253.896 213.992 254.452 214.367 255.066 214.621C255.679 214.875 256.338 215.004 257.003 215C257.662 215.002 258.315 214.873 258.923 214.618C259.531 214.364 260.081 213.99 260.541 213.52C261.009 213.06 261.379 212.512 261.629 211.907C261.88 211.303 262.006 210.654 262 210Z" fill="#6AC0AE"/>
<path d="M298.119 67.0974C297.585 67.6464 296.945 68.0816 296.237 68.3768C295.529 68.6719 294.769 68.8208 294.002 68.8146C293.242 68.8166 292.488 68.6656 291.788 68.3706C291.087 68.0755 290.453 67.6425 289.924 67.0974C289.377 66.5697 288.943 65.9372 288.647 65.2379C288.352 64.5386 288.201 63.7869 288.203 63.0279C288.201 62.2632 288.352 61.5059 288.648 60.8004C288.943 60.0949 289.377 59.4554 289.924 58.9197C290.455 58.3806 291.091 57.9544 291.791 57.6667C292.492 57.379 293.244 57.2357 294.002 57.2455C294.766 57.2315 295.525 57.3726 296.233 57.6604C296.941 57.9482 297.583 58.3767 298.119 58.9197C298.664 59.455 299.094 60.0952 299.383 60.8014C299.672 61.5076 299.815 62.2651 299.801 63.0279C299.811 63.7844 299.667 64.535 299.378 65.2344C299.089 65.9339 298.66 66.5676 298.119 67.0974ZM301.062 55.9363C300.136 55.0079 299.036 54.2707 297.825 53.7669C296.614 53.2631 295.315 53.0025 294.002 53C292.69 53.0025 291.391 53.2631 290.18 53.7669C288.968 54.2707 287.868 55.0079 286.943 55.9363C285.063 57.8167 284.005 60.3631 284 63.0193C284.002 64.329 284.262 65.6255 284.767 66.8344C285.272 68.0432 286.011 69.1407 286.943 70.0637C287.868 70.9921 288.968 71.7293 290.18 72.2331C291.391 72.7369 292.69 72.9975 294.002 73C295.315 72.9975 296.614 72.7369 297.825 72.2331C299.036 71.7293 300.136 70.9921 301.062 70.0637C301.991 69.1398 302.729 68.042 303.233 66.8333C303.738 65.6246 303.998 64.3286 304 63.0193C303.995 60.364 302.939 57.8182 301.062 55.9363Z" fill="#6AC0AE"/>
<path d="M225.132 30.1465C224.591 30.6813 223.95 31.1044 223.245 31.3915C222.54 31.6786 221.785 31.8241 221.024 31.8195C220.261 31.8239 219.506 31.6784 218.8 31.3913C218.095 31.1043 217.453 30.6812 216.911 30.1465C216.368 29.6104 215.937 28.9726 215.643 28.2699C215.348 27.5672 215.196 26.8134 215.194 26.0517C215.192 25.2896 215.343 24.5347 215.638 23.8315C215.933 23.1282 216.366 22.4909 216.911 21.9569C217.447 21.415 218.088 20.9872 218.795 20.6996C219.502 20.412 220.26 20.2706 221.024 20.2839C221.786 20.2707 222.544 20.4122 223.25 20.6998C223.956 20.9874 224.596 21.4151 225.132 21.9569C225.675 22.4906 226.103 23.1289 226.391 23.8328C226.679 24.5368 226.82 25.2917 226.806 26.0517C226.812 26.8107 226.668 27.5633 226.38 28.2662C226.093 28.969 225.668 29.6081 225.132 30.1465ZM228.064 18.9874C227.14 18.0632 226.043 17.3294 224.835 16.828C223.627 16.3265 222.332 16.0673 221.024 16.065C218.933 16.0798 216.898 16.7356 215.194 17.9434V11.0503C215.196 10.7772 215.144 10.5065 215.039 10.2542C214.934 10.0019 214.779 9.77327 214.583 9.58197C214.388 9.39067 214.156 9.24062 213.901 9.14076C213.646 9.0409 213.373 8.99328 213.099 9.00076C212.825 8.99329 212.552 9.04088 212.297 9.14069C212.042 9.2405 211.809 9.3905 211.613 9.58174C211.418 9.77299 211.262 10.0016 211.157 10.2539C211.052 10.5062 210.998 10.777 211 11.0503V33.7022C210.999 33.9751 211.053 34.2455 211.158 34.4973C211.264 34.7491 211.419 34.9772 211.615 35.168C211.811 35.3587 212.043 35.5084 212.298 35.6079C212.553 35.7075 212.826 35.7549 213.099 35.7475C213.583 35.7513 214.054 35.5861 214.428 35.2805C214.803 34.9749 215.059 34.5483 215.151 34.0745C216.848 35.3335 218.909 36.0092 221.024 35.9999C222.333 35.9978 223.628 35.7382 224.836 35.236C226.044 34.7338 227.141 33.9988 228.064 33.0732C228.992 32.1526 229.729 31.0586 230.233 29.8538C230.737 28.649 230.998 27.357 231 26.0517C231.002 24.7395 230.743 23.4398 230.239 22.2274C229.735 21.0151 228.996 19.914 228.064 18.9874Z" fill="#79A3DC"/>
<path d="M334.132 178.147C333.591 178.681 332.95 179.104 332.245 179.392C331.54 179.679 330.785 179.824 330.024 179.82C329.261 179.824 328.506 179.678 327.8 179.391C327.095 179.104 326.453 178.681 325.911 178.147C325.368 177.61 324.937 176.973 324.643 176.27C324.348 175.567 324.196 174.813 324.194 174.052C324.192 173.29 324.343 172.535 324.638 171.831C324.933 171.128 325.366 170.491 325.911 169.957C326.447 169.415 327.088 168.987 327.795 168.7C328.502 168.412 329.26 168.271 330.024 168.284C330.786 168.271 331.544 168.412 332.25 168.7C332.956 168.987 333.596 169.415 334.132 169.957C334.675 170.491 335.103 171.129 335.391 171.833C335.679 172.537 335.82 173.292 335.806 174.052C335.812 174.811 335.668 175.563 335.38 176.266C335.093 176.969 334.668 177.608 334.132 178.147ZM337.064 166.987C336.14 166.063 335.043 165.329 333.835 164.828C332.627 164.327 331.332 164.067 330.024 164.065C327.933 164.08 325.898 164.736 324.194 165.943V159.05C324.196 158.777 324.144 158.506 324.039 158.254C323.934 158.002 323.779 157.773 323.583 157.582C323.388 157.391 323.156 157.241 322.901 157.141C322.646 157.041 322.373 156.993 322.099 157.001C321.825 156.993 321.552 157.041 321.297 157.141C321.042 157.241 320.809 157.391 320.613 157.582C320.418 157.773 320.262 158.002 320.157 158.254C320.052 158.506 319.998 158.777 320 159.05V181.702C319.999 181.975 320.053 182.246 320.158 182.497C320.264 182.749 320.419 182.977 320.615 183.168C320.811 183.359 321.043 183.508 321.298 183.608C321.553 183.707 321.826 183.755 322.099 183.747C322.583 183.751 323.054 183.586 323.428 183.281C323.803 182.975 324.059 182.548 324.151 182.074C325.848 183.333 327.909 184.009 330.024 184C331.333 183.998 332.628 183.738 333.836 183.236C335.044 182.734 336.141 181.999 337.064 181.073C337.992 180.153 338.729 179.059 339.233 177.854C339.737 176.649 339.998 175.357 340 174.052C340.002 172.739 339.743 171.44 339.239 170.227C338.735 169.015 337.996 167.914 337.064 166.987Z" fill="#E9458D"/>
<path d="M228 173.998C228 175.854 227.263 177.635 225.951 178.948C224.638 180.261 222.858 180.999 221.002 181C220.083 181 219.172 180.819 218.323 180.467C217.473 180.115 216.701 179.599 216.051 178.949C215.401 178.299 214.885 177.527 214.533 176.677C214.181 175.828 214 174.917 214 173.998C214 173.079 214.181 172.168 214.533 171.319C214.885 170.47 215.401 169.698 216.051 169.048C216.701 168.398 217.473 167.883 218.323 167.531C219.172 167.18 220.083 166.999 221.002 167C222.858 167 224.638 167.737 225.95 169.05C227.263 170.362 228 172.142 228 173.998Z" fill="white"/>
<circle cx="294" cy="63" r="6" fill="white"/>
<circle cx="221" cy="26" r="6" fill="white"/>
<path d="M334.119 252.097C333.584 252.646 332.943 253.081 332.234 253.376C331.526 253.671 330.765 253.82 329.998 253.815C329.238 253.816 328.486 253.665 327.786 253.37C327.086 253.075 326.452 252.642 325.924 252.097C325.378 251.57 324.944 250.938 324.649 250.24C324.353 249.541 324.201 248.79 324.203 248.032C324.201 247.268 324.352 246.51 324.648 245.805C324.943 245.099 325.377 244.46 325.924 243.924C326.454 243.383 327.088 242.956 327.788 242.667C328.489 242.379 329.24 242.235 329.998 242.246C330.763 242.233 331.523 242.375 332.231 242.663C332.939 242.952 333.582 243.381 334.119 243.924C334.663 244.46 335.091 245.101 335.38 245.807C335.668 246.513 335.81 247.27 335.797 248.032C335.806 248.788 335.662 249.537 335.373 250.235C335.085 250.934 334.659 251.567 334.119 252.097ZM337.057 240.936C336.132 240.008 335.032 239.271 333.821 238.767C332.609 238.263 331.31 238.002 329.998 238C328.685 238.002 327.387 238.263 326.175 238.767C324.964 239.271 323.864 240.008 322.938 240.936C321.061 242.82 320.005 245.367 320 248.024C320.005 250.667 321.062 253.201 322.938 255.068C324.809 256.94 327.348 257.995 329.998 258C332.647 257.995 335.187 256.94 337.057 255.068C337.988 254.144 338.727 253.047 339.232 251.838C339.736 250.629 339.998 249.333 340 248.024C339.996 245.366 338.938 242.818 337.057 240.936Z" fill="#E9458D"/>
<circle cx="330" cy="248" r="6" fill="white"/>
<path d="M225.119 178.089C224.584 178.637 223.944 179.072 223.236 179.367C222.529 179.662 221.769 179.811 221.002 179.806C220.242 179.808 219.489 179.656 218.788 179.361C218.087 179.066 217.453 178.634 216.924 178.089C216.378 177.561 215.944 176.928 215.649 176.229C215.353 175.53 215.202 174.778 215.203 174.019C215.201 173.255 215.352 172.497 215.648 171.792C215.943 171.086 216.377 170.447 216.924 169.911C217.455 169.371 218.09 168.944 218.791 168.655C219.492 168.367 220.244 168.223 221.002 168.233C221.767 168.219 222.526 168.361 223.234 168.65C223.941 168.938 224.583 169.368 225.119 169.911C225.664 170.446 226.094 171.087 226.383 171.793C226.672 172.499 226.815 173.257 226.801 174.019C226.81 174.776 226.666 175.526 226.377 176.225C226.088 176.925 225.66 177.559 225.119 178.089ZM228.019 166.893C227.099 165.972 226.006 165.241 224.801 164.745C223.597 164.248 222.305 163.995 221.002 164C219.69 164.002 218.391 164.262 217.18 164.765C215.969 165.268 214.869 166.005 213.943 166.932C212.062 168.814 211.004 171.362 211 174.019C211.013 176.662 212.071 179.194 213.943 181.064C214.868 181.992 215.968 182.73 217.179 183.234C218.391 183.738 219.69 183.998 221.002 184C223.135 183.995 225.195 183.22 226.801 181.819C226.841 182.339 227.074 182.825 227.455 183.181C227.835 183.538 228.336 183.74 228.858 183.747C229.139 183.75 229.419 183.696 229.679 183.588C229.939 183.48 230.175 183.321 230.372 183.12C230.766 182.714 230.991 182.174 231 181.609V173.946C230.962 171.301 229.893 168.774 228.019 166.902V166.893Z" fill="#79A3DC"/>
<path d="M365 -48L365 246" stroke="black" stroke-opacity="0.2" stroke-width="1.29897" stroke-miterlimit="10"/>
<path d="M330 36V248" stroke="black" stroke-opacity="0.3" stroke-width="0.8" stroke-miterlimit="10"/>
<path d="M330 0L330 37" stroke="black" stroke-opacity="0.3" stroke-width="0.8" stroke-miterlimit="10"/>
<path d="M294 9L294 248" stroke="black" stroke-opacity="0.3" stroke-width="0.8" stroke-miterlimit="10"/>
<path d="M257 63V248" stroke="black" stroke-opacity="0.3" stroke-width="0.8" stroke-miterlimit="10"/>
<path d="M257 9L257 70" stroke="black" stroke-opacity="0.3" stroke-width="0.8" stroke-miterlimit="10"/>
<path d="M221 16L221 63" stroke="black" stroke-opacity="0.3" stroke-width="0.8" stroke-miterlimit="10"/>
<path d="M337 173.998C337 175.854 336.263 177.635 334.951 178.948C333.638 180.261 331.858 180.999 330.002 181C329.083 181 328.172 180.819 327.323 180.467C326.473 180.115 325.701 179.599 325.051 178.949C324.401 178.299 323.885 177.527 323.533 176.677C323.181 175.828 323 174.917 323 173.998C323 173.079 323.181 172.168 323.533 171.319C323.885 170.47 324.401 169.698 325.051 169.048C325.701 168.398 326.473 167.883 327.323 167.531C328.172 167.18 329.083 166.999 330.002 167C331.858 167 333.638 167.737 334.95 169.05C336.263 170.362 337 172.142 337 173.998Z" fill="white"/>
<path d="M291.873 150.928V141.753L283.515 129.546C283.183 129.155 283.001 128.663 283 128.154C283.001 127.851 283.066 127.552 283.192 127.275C283.318 126.999 283.501 126.752 283.73 126.549C284.144 126.187 284.681 125.991 285.235 126C285.528 126.001 285.816 126.071 286.077 126.202C286.338 126.334 286.563 126.524 286.735 126.757L294.042 137.615L301.261 126.718C301.455 126.491 301.698 126.309 301.973 126.185C302.248 126.06 302.547 125.998 302.849 126C303.354 126.002 303.843 126.182 304.226 126.506C304.471 126.698 304.668 126.942 304.802 127.22C304.936 127.498 305.004 127.803 305 128.11C304.992 128.619 304.809 129.11 304.481 129.503L296.189 141.753V150.928C296.191 151.204 296.137 151.478 296.029 151.733C295.922 151.988 295.763 152.219 295.563 152.412C295.362 152.605 295.124 152.757 294.863 152.858C294.602 152.959 294.322 153.007 294.042 152.999C293.761 153.007 293.482 152.959 293.22 152.858C292.959 152.757 292.721 152.605 292.521 152.412C292.32 152.219 292.162 151.988 292.054 151.733C291.947 151.478 291.893 151.204 291.895 150.928H291.873Z" fill="#7743AB"/>
<path d="M193.991 65.127H185.176L173.416 73.4853C173.041 73.8183 172.565 74.0006 172.075 74C171.783 73.9977 171.496 73.9316 171.23 73.806C170.964 73.6803 170.725 73.4977 170.529 73.2697C170.18 72.8565 169.991 72.3192 170 71.7653C170.003 71.4714 170.07 71.1822 170.197 70.9209C170.325 70.6596 170.508 70.4335 170.734 70.2608L181.19 62.9583L170.692 55.7393C170.474 55.5438 170.299 55.3004 170.18 55.0261C170.06 54.7518 169.999 54.4532 170 54.1513C170.001 53.6455 170.174 53.1569 170.488 52.7744C170.673 52.53 170.908 52.3333 171.176 52.1991C171.444 52.065 171.737 51.9969 172.033 52.0001C172.524 52.0078 172.997 52.189 173.379 52.5148L185.176 60.8071H194.008C194.274 60.8058 194.537 60.8609 194.782 60.9692C195.027 61.0775 195.249 61.2367 195.435 61.4373C195.621 61.638 195.766 61.876 195.863 62.1373C195.96 62.3986 196.007 62.6778 195.999 62.9583C196.007 63.2386 195.96 63.5175 195.863 63.7786C195.766 64.0396 195.621 64.2773 195.435 64.4777C195.249 64.678 195.027 64.8368 194.782 64.9446C194.537 65.0523 194.274 65.1069 194.008 65.105L193.991 65.127Z" fill="#7743AB"/>
<path d="M218 118.007V95.9888C217.998 95.7237 218.061 95.4609 218.187 95.2162C218.312 94.9715 218.497 94.7497 218.73 94.5642C218.963 94.3787 219.239 94.2332 219.543 94.1364C219.847 94.0396 220.171 93.9935 220.497 94.0007C220.824 93.9935 221.148 94.0396 221.452 94.1364C221.756 94.2331 222.033 94.3786 222.267 94.564C222.5 94.7495 222.685 94.9711 222.811 95.2159C222.937 95.4607 223.001 95.7235 223 95.9888V118.007C223.002 118.273 222.938 118.536 222.813 118.781C222.687 119.026 222.502 119.249 222.269 119.435C222.035 119.62 221.758 119.766 221.454 119.863C221.149 119.96 220.824 120.007 220.497 119.999C220.171 120.006 219.846 119.959 219.543 119.862C219.239 119.765 218.963 119.619 218.73 119.433C218.497 119.247 218.312 119.025 218.187 118.78C218.061 118.535 217.998 118.272 218 118.007Z" fill="#DB0032"/>
<path d="M328 37.8582V14.1463C327.998 13.8604 328.048 13.577 328.148 13.3129C328.248 13.0488 328.396 12.8095 328.582 12.6092C328.769 12.4089 328.99 12.2519 329.234 12.1473C329.477 12.0428 329.737 11.993 329.998 12.0008C330.259 11.993 330.52 12.0428 330.763 12.1473C331.006 12.2518 331.228 12.4088 331.415 12.609C331.602 12.8092 331.75 13.0484 331.85 13.3125C331.951 13.5766 332.002 13.8602 332 14.1463V37.8582C332.001 38.1439 331.95 38.427 331.849 38.6906C331.748 38.9541 331.6 39.1929 331.413 39.3926C331.227 39.5923 331.005 39.7489 330.762 39.8531C330.519 39.9573 330.259 40.007 329.998 39.9992C329.737 40.007 329.478 39.9573 329.235 39.8531C328.992 39.7488 328.77 39.5921 328.584 39.3923C328.397 39.1926 328.25 38.9538 328.149 38.6902C328.049 38.4267 327.998 38.1437 328 37.8582Z" fill="#79A3DC"/>
<path d="M203.858 212H180.146C179.86 212.002 179.577 211.952 179.313 211.852C179.049 211.751 178.809 211.604 178.609 211.417C178.409 211.23 178.252 211.009 178.147 210.765C178.043 210.522 177.993 210.261 178.001 210C177.993 209.739 178.043 209.478 178.147 209.235C178.252 208.991 178.409 208.77 178.609 208.583C178.809 208.396 179.049 208.249 179.313 208.148C179.577 208.048 179.86 207.998 180.146 208H203.858C204.144 207.998 204.427 208.049 204.69 208.15C204.954 208.25 205.193 208.398 205.392 208.585C205.592 208.771 205.749 208.993 205.853 209.236C205.957 209.479 206.007 209.739 205.999 210C206.007 210.261 205.957 210.521 205.853 210.764C205.749 211.007 205.592 211.229 205.392 211.415C205.193 211.602 204.954 211.75 204.69 211.85C204.427 211.951 204.144 212.002 203.858 212Z" fill="#6AC0AE"/>
<path d="M261 99.0001C261.007 98.3465 260.881 97.6981 260.632 97.0935C260.382 96.4888 260.012 95.9403 259.545 95.4804C259.085 95.0092 258.534 94.6353 257.926 94.381C257.317 94.1267 256.663 93.9972 256.003 94.0004C255.338 93.9922 254.678 94.1188 254.064 94.3724C253.45 94.6261 252.895 95.0014 252.431 95.4756C251.968 95.9381 251.603 96.4883 251.357 97.0937C251.111 97.6991 250.99 98.3473 251.001 99.0001C250.99 99.6522 251.112 100.3 251.357 100.904C251.603 101.509 251.968 102.058 252.431 102.52C252.896 102.992 253.452 103.367 254.066 103.621C254.679 103.875 255.338 104.004 256.003 104C256.662 104.002 257.315 103.873 257.923 103.618C258.531 103.364 259.081 102.99 259.541 102.52C260.009 102.06 260.379 101.512 260.629 100.907C260.88 100.303 261.006 99.6541 261 99.0001Z" fill="#E9458D"/>
<path d="M262 210C262.007 209.346 261.881 208.698 261.632 208.093C261.382 207.489 261.012 206.94 260.545 206.48C260.085 206.009 259.534 205.635 258.926 205.381C258.317 205.127 257.663 204.997 257.003 205C256.338 204.992 255.678 205.119 255.064 205.372C254.45 205.626 253.895 206.001 253.431 206.476C252.968 206.938 252.603 207.488 252.357 208.094C252.111 208.699 251.99 209.347 252.001 210C251.99 210.652 252.112 211.3 252.357 211.904C252.603 212.509 252.968 213.058 253.431 213.52C253.896 213.992 254.452 214.367 255.066 214.621C255.679 214.875 256.338 215.004 257.003 215C257.662 215.002 258.315 214.873 258.923 214.618C259.531 214.364 260.081 213.99 260.541 213.52C261.009 213.06 261.379 212.512 261.629 211.907C261.88 211.303 262.006 210.654 262 210Z" fill="#6AC0AE"/>
<path d="M298.119 67.0974C297.585 67.6464 296.945 68.0816 296.237 68.3768C295.529 68.6719 294.769 68.8208 294.002 68.8146C293.242 68.8166 292.488 68.6656 291.788 68.3706C291.087 68.0755 290.453 67.6425 289.924 67.0974C289.377 66.5697 288.943 65.9372 288.647 65.2379C288.352 64.5386 288.201 63.7869 288.203 63.0279C288.201 62.2632 288.352 61.5059 288.648 60.8004C288.943 60.0949 289.377 59.4554 289.924 58.9197C290.455 58.3806 291.091 57.9544 291.791 57.6667C292.492 57.379 293.244 57.2357 294.002 57.2455C294.766 57.2315 295.525 57.3726 296.233 57.6604C296.941 57.9482 297.583 58.3767 298.119 58.9197C298.664 59.455 299.094 60.0952 299.383 60.8014C299.672 61.5076 299.815 62.2651 299.801 63.0279C299.811 63.7844 299.667 64.535 299.378 65.2344C299.089 65.9339 298.66 66.5676 298.119 67.0974ZM301.062 55.9363C300.136 55.0079 299.036 54.2707 297.825 53.7669C296.614 53.2631 295.315 53.0025 294.002 53C292.69 53.0025 291.391 53.2631 290.18 53.7669C288.968 54.2707 287.868 55.0079 286.943 55.9363C285.063 57.8167 284.005 60.3631 284 63.0193C284.002 64.329 284.262 65.6255 284.767 66.8344C285.272 68.0432 286.011 69.1407 286.943 70.0637C287.868 70.9921 288.968 71.7293 290.18 72.2331C291.391 72.7369 292.69 72.9975 294.002 73C295.315 72.9975 296.614 72.7369 297.825 72.2331C299.036 71.7293 300.136 70.9921 301.062 70.0637C301.991 69.1398 302.729 68.042 303.233 66.8333C303.738 65.6246 303.998 64.3286 304 63.0193C303.995 60.364 302.939 57.8182 301.062 55.9363Z" fill="#6AC0AE"/>
<path d="M225.132 30.1465C224.591 30.6813 223.95 31.1044 223.245 31.3915C222.54 31.6786 221.785 31.8241 221.024 31.8195C220.261 31.8239 219.506 31.6784 218.8 31.3913C218.095 31.1043 217.453 30.6812 216.911 30.1465C216.368 29.6104 215.937 28.9726 215.643 28.2699C215.348 27.5672 215.196 26.8134 215.194 26.0517C215.192 25.2896 215.343 24.5347 215.638 23.8315C215.933 23.1282 216.366 22.4909 216.911 21.9569C217.447 21.415 218.088 20.9872 218.795 20.6996C219.502 20.412 220.26 20.2706 221.024 20.2839C221.786 20.2707 222.544 20.4122 223.25 20.6998C223.956 20.9874 224.596 21.4151 225.132 21.9569C225.675 22.4906 226.103 23.1289 226.391 23.8328C226.679 24.5368 226.82 25.2917 226.806 26.0517C226.812 26.8107 226.668 27.5633 226.38 28.2662C226.093 28.969 225.668 29.6081 225.132 30.1465ZM228.064 18.9874C227.14 18.0632 226.043 17.3294 224.835 16.828C223.627 16.3265 222.332 16.0673 221.024 16.065C218.933 16.0798 216.898 16.7356 215.194 17.9434V11.0503C215.196 10.7772 215.144 10.5065 215.039 10.2542C214.934 10.0019 214.779 9.77327 214.583 9.58197C214.388 9.39067 214.156 9.24062 213.901 9.14076C213.646 9.0409 213.373 8.99328 213.099 9.00076C212.825 8.99329 212.552 9.04088 212.297 9.14069C212.042 9.2405 211.809 9.3905 211.613 9.58174C211.418 9.77299 211.262 10.0016 211.157 10.2539C211.052 10.5062 210.998 10.777 211 11.0503V33.7022C210.999 33.9751 211.053 34.2455 211.158 34.4973C211.264 34.7491 211.419 34.9772 211.615 35.168C211.811 35.3587 212.043 35.5084 212.298 35.6079C212.553 35.7075 212.826 35.7549 213.099 35.7475C213.583 35.7513 214.054 35.5861 214.428 35.2805C214.803 34.9749 215.059 34.5483 215.151 34.0745C216.848 35.3335 218.909 36.0092 221.024 35.9999C222.333 35.9978 223.628 35.7382 224.836 35.236C226.044 34.7338 227.141 33.9988 228.064 33.0732C228.992 32.1526 229.729 31.0586 230.233 29.8538C230.737 28.649 230.998 27.357 231 26.0517C231.002 24.7395 230.743 23.4398 230.239 22.2274C229.735 21.0151 228.996 19.914 228.064 18.9874Z" fill="#79A3DC"/>
<path d="M334.132 178.147C333.591 178.681 332.95 179.104 332.245 179.392C331.54 179.679 330.785 179.824 330.024 179.82C329.261 179.824 328.506 179.678 327.8 179.391C327.095 179.104 326.453 178.681 325.911 178.147C325.368 177.61 324.937 176.973 324.643 176.27C324.348 175.567 324.196 174.813 324.194 174.052C324.192 173.29 324.343 172.535 324.638 171.831C324.933 171.128 325.366 170.491 325.911 169.957C326.447 169.415 327.088 168.987 327.795 168.7C328.502 168.412 329.26 168.271 330.024 168.284C330.786 168.271 331.544 168.412 332.25 168.7C332.956 168.987 333.596 169.415 334.132 169.957C334.675 170.491 335.103 171.129 335.391 171.833C335.679 172.537 335.82 173.292 335.806 174.052C335.812 174.811 335.668 175.563 335.38 176.266C335.093 176.969 334.668 177.608 334.132 178.147ZM337.064 166.987C336.14 166.063 335.043 165.329 333.835 164.828C332.627 164.327 331.332 164.067 330.024 164.065C327.933 164.08 325.898 164.736 324.194 165.943V159.05C324.196 158.777 324.144 158.506 324.039 158.254C323.934 158.002 323.779 157.773 323.583 157.582C323.388 157.391 323.156 157.241 322.901 157.141C322.646 157.041 322.373 156.993 322.099 157.001C321.825 156.993 321.552 157.041 321.297 157.141C321.042 157.241 320.809 157.391 320.613 157.582C320.418 157.773 320.262 158.002 320.157 158.254C320.052 158.506 319.998 158.777 320 159.05V181.702C319.999 181.975 320.053 182.246 320.158 182.497C320.264 182.749 320.419 182.977 320.615 183.168C320.811 183.359 321.043 183.508 321.298 183.608C321.553 183.707 321.826 183.755 322.099 183.747C322.583 183.751 323.054 183.586 323.428 183.281C323.803 182.975 324.059 182.548 324.151 182.074C325.848 183.333 327.909 184.009 330.024 184C331.333 183.998 332.628 183.738 333.836 183.236C335.044 182.734 336.141 181.999 337.064 181.073C337.992 180.153 338.729 179.059 339.233 177.854C339.737 176.649 339.998 175.357 340 174.052C340.002 172.739 339.743 171.44 339.239 170.227C338.735 169.015 337.996 167.914 337.064 166.987Z" fill="#E9458D"/>
<path d="M228 173.998C228 175.854 227.263 177.635 225.951 178.948C224.638 180.261 222.858 180.999 221.002 181C220.083 181 219.172 180.819 218.323 180.467C217.473 180.115 216.701 179.599 216.051 178.949C215.401 178.299 214.885 177.527 214.533 176.677C214.181 175.828 214 174.917 214 173.998C214 173.079 214.181 172.168 214.533 171.319C214.885 170.47 215.401 169.698 216.051 169.048C216.701 168.398 217.473 167.883 218.323 167.531C219.172 167.18 220.083 166.999 221.002 167C222.858 167 224.638 167.737 225.95 169.05C227.263 170.362 228 172.142 228 173.998Z" fill="white"/>
<circle cx="294" cy="63" r="6" fill="white"/>
<circle cx="221" cy="26" r="6" fill="white"/>
<path d="M334.119 252.097C333.584 252.646 332.943 253.081 332.234 253.376C331.526 253.671 330.765 253.82 329.998 253.815C329.238 253.816 328.486 253.665 327.786 253.37C327.086 253.075 326.452 252.642 325.924 252.097C325.378 251.57 324.944 250.938 324.649 250.24C324.353 249.541 324.201 248.79 324.203 248.032C324.201 247.268 324.352 246.51 324.648 245.805C324.943 245.099 325.377 244.46 325.924 243.924C326.454 243.383 327.088 242.956 327.788 242.667C328.489 242.379 329.24 242.235 329.998 242.246C330.763 242.233 331.523 242.375 332.231 242.663C332.939 242.952 333.582 243.381 334.119 243.924C334.663 244.46 335.091 245.101 335.38 245.807C335.668 246.513 335.81 247.27 335.797 248.032C335.806 248.788 335.662 249.537 335.373 250.235C335.085 250.934 334.659 251.567 334.119 252.097ZM337.057 240.936C336.132 240.008 335.032 239.271 333.821 238.767C332.609 238.263 331.31 238.002 329.998 238C328.685 238.002 327.387 238.263 326.175 238.767C324.964 239.271 323.864 240.008 322.938 240.936C321.061 242.82 320.005 245.367 320 248.024C320.005 250.667 321.062 253.201 322.938 255.068C324.809 256.94 327.348 257.995 329.998 258C332.647 257.995 335.187 256.94 337.057 255.068C337.988 254.144 338.727 253.047 339.232 251.838C339.736 250.629 339.998 249.333 340 248.024C339.996 245.366 338.938 242.818 337.057 240.936Z" fill="#E9458D"/>
<circle cx="330" cy="248" r="6" fill="white"/>
<path d="M225.119 178.089C224.584 178.637 223.944 179.072 223.236 179.367C222.529 179.662 221.769 179.811 221.002 179.806C220.242 179.808 219.489 179.656 218.788 179.361C218.087 179.066 217.453 178.634 216.924 178.089C216.378 177.561 215.944 176.928 215.649 176.229C215.353 175.53 215.202 174.778 215.203 174.019C215.201 173.255 215.352 172.497 215.648 171.792C215.943 171.086 216.377 170.447 216.924 169.911C217.455 169.371 218.09 168.944 218.791 168.655C219.492 168.367 220.244 168.223 221.002 168.233C221.767 168.219 222.526 168.361 223.234 168.65C223.941 168.938 224.583 169.368 225.119 169.911C225.664 170.446 226.094 171.087 226.383 171.793C226.672 172.499 226.815 173.257 226.801 174.019C226.81 174.776 226.666 175.526 226.377 176.225C226.088 176.925 225.66 177.559 225.119 178.089ZM228.019 166.893C227.099 165.972 226.006 165.241 224.801 164.745C223.597 164.248 222.305 163.995 221.002 164C219.69 164.002 218.391 164.262 217.18 164.765C215.969 165.268 214.869 166.005 213.943 166.932C212.062 168.814 211.004 171.362 211 174.019C211.013 176.662 212.071 179.194 213.943 181.064C214.868 181.992 215.968 182.73 217.179 183.234C218.391 183.738 219.69 183.998 221.002 184C223.135 183.995 225.195 183.22 226.801 181.819C226.841 182.339 227.074 182.825 227.455 183.181C227.835 183.538 228.336 183.74 228.858 183.747C229.139 183.75 229.419 183.696 229.679 183.588C229.939 183.48 230.175 183.321 230.372 183.12C230.766 182.714 230.991 182.174 231 181.609V173.946C230.962 171.301 229.893 168.774 228.019 166.902V166.893Z" fill="#79A3DC"/>
</g>
<defs>
<filter id="filter0_d_16_322" x="96.2" y="183.2" width="15.0142" height="21.1784" filterUnits="userSpaceOnUse" color-interpolation-filters="sRGB">
<feFlood flood-opacity="0" result="BackgroundImageFix"/>
<feColorMatrix in="SourceAlpha" type="matrix" values="0 0 0 0 0 0 0 0 0 0 0 0 0 0 0 0 0 0 127 0" result="hardAlpha"/>
<feOffset dy="1"/>
<feGaussianBlur stdDeviation="0.9"/>
<feColorMatrix type="matrix" values="0 0 0 0 0 0 0 0 0 0 0 0 0 0 0 0 0 0 0.65 0"/>
<feBlend mode="normal" in2="BackgroundImageFix" result="effect1_dropShadow_16_322"/>
<feBlend mode="normal" in="SourceGraphic" in2="effect1_dropShadow_16_322" result="shape"/>
</filter>
<clipPath id="clip0_16_322">
<rect width="365" height="249" fill="white"/>
</clipPath>
<clipPath id="clip1_16_322">
<rect width="400" height="249" fill="white"/>
</clipPath>
</defs>
</svg>
