<svg width="49" height="50" viewBox="0 0 49 50" fill="none" xmlns="http://www.w3.org/2000/svg">
<g clip-path="url(#clip0_29_575)">
<path d="M16.731 4.74366C16.731 6.01452 15.712 7.05431 14.4666 7.05431C13.2212 7.05431 12.2021 6.01452 12.2021 4.74366C12.2021 2.43301 14.4666 0.892578 14.4666 0.892578C14.4666 0.892578 16.731 2.43301 16.731 4.74366Z" stroke="#A3A3A3" stroke-width="1.87153" stroke-miterlimit="10" stroke-linecap="round" stroke-linejoin="round"/>
<path d="M14.4666 5.51465V7.8253" stroke="#A3A3A3" stroke-width="1.87153" stroke-miterlimit="10" stroke-linecap="round" stroke-linejoin="round"/>
<path d="M3.89893 23.2291V10.1739L14.4285 7.86328L20.5048 9.17265" stroke="#A3A3A3" stroke-width="1.87153" stroke-miterlimit="10" stroke-linecap="round" stroke-linejoin="round"/>
<path d="M47.678 36.7656C39.9034 40.79 30.8646 43.197 21.203 43.2547H9.18262" stroke="#A3A3A3" stroke-width="1.87153" stroke-miterlimit="10" stroke-linecap="round" stroke-linejoin="round"/>
<path d="M28.8077 37.0928C27.2792 39.1338 25.6375 41.2134 23.8259 43.1005C26.0715 44.8142 28.5247 46.4509 31.0722 47.8758" stroke="#A3A3A3" stroke-width="1.87153" stroke-miterlimit="10" stroke-linecap="round" stroke-linejoin="round"/>
<path d="M32.5819 37.0928C31.4119 38.9221 30.3552 40.8861 28.9587 42.6383C30.9401 43.9284 33.3932 45.2571 35.6011 46.3354" stroke="#A3A3A3" stroke-width="1.87153" stroke-miterlimit="10" stroke-linecap="round" stroke-linejoin="round"/>
<path d="M37.1106 37.0928C35.601 39.4034 34.9595 40.2121 33.9404 41.7526C35.6387 42.6961 37.5446 44.0055 39.3751 44.7949" stroke="#A3A3A3" stroke-width="1.87153" stroke-miterlimit="10" stroke-linecap="round" stroke-linejoin="round"/>
<path d="M40.8848 36.3232C40.281 37.6519 39.4318 39.1538 38.7336 40.4632C40.1112 41.0986 41.6774 41.9458 43.1492 42.485" stroke="#A3A3A3" stroke-width="1.87153" stroke-miterlimit="10" stroke-linecap="round" stroke-linejoin="round"/>
<path d="M44.6589 35.5527C44.2815 36.5733 43.7532 37.7671 43.3191 38.7876C44.3758 39.192 45.0741 39.8467 46.1685 40.174" stroke="#A3A3A3" stroke-width="1.87153" stroke-miterlimit="10" stroke-linecap="round" stroke-linejoin="round"/>
<path d="M24.2789 37.0928L18.9575 43.216L24.2789 48.646" stroke="#A3A3A3" stroke-width="1.87153" stroke-miterlimit="10" stroke-linecap="round" stroke-linejoin="round"/>
<path d="M15.1834 29.0254C18.3348 32.3566 18.2593 37.6904 14.9758 40.906C11.7113 44.1217 6.50309 44.0254 3.33288 40.6942C0.181544 37.363 0.25702 32.0485 3.54045 28.8137C6.80501 25.5979 12.0132 25.675 15.1834 29.0254Z" stroke="#A3A3A3" stroke-width="1.87153" stroke-miterlimit="10" stroke-linecap="round" stroke-linejoin="round"/>
<path d="M4.08789 41.194L4.48416 38.6331L6.67312 38.5753L7.14489 35.9373L9.78672 35.3982L10.2396 32.7601L12.9569 32.1633V29.9874L15.4667 29.583" stroke="#A3A3A3" stroke-width="1.87153" stroke-miterlimit="10" stroke-linecap="round" stroke-linejoin="round"/>
<path d="M1.27612 36.149L4.01232 35.8988L4.50296 33.2223L7.18254 32.6639L7.67316 29.9873L10.315 29.4482L10.5225 26.7139" stroke="#A3A3A3" stroke-width="1.87153" stroke-miterlimit="10" stroke-linecap="round" stroke-linejoin="round"/>
<path d="M3.44619 26.7725C4.03116 27.3887 4.0123 28.3514 3.40845 28.9291C2.8046 29.5068 1.86109 29.5068 1.29497 28.8906C0.728868 28.2937 0.728871 27.3116 1.33272 26.734C1.93657 26.1563 2.88007 26.1755 3.44619 26.7725Z" stroke="#A3A3A3" stroke-width="1.87153" stroke-miterlimit="10" stroke-linecap="round" stroke-linejoin="round"/>
<path d="M42.3943 24.7695V33.2419" stroke="#A3A3A3" stroke-width="1.87153" stroke-miterlimit="10" stroke-linecap="round" stroke-linejoin="round"/>
<path d="M21.2598 24.7695V36.3228" stroke="#A3A3A3" stroke-width="1.87153" stroke-miterlimit="10" stroke-linecap="round" stroke-linejoin="round"/>
<path d="M31.7139 18.6077C32.0535 18.0685 31.8083 12.0993 28.9022 10.116C26.8643 8.72963 24.1092 9.30733 22.7694 11.3869C21.4296 13.4664 21.9768 16.2778 24.0148 17.6641C25.015 18.338 26.2038 18.5884 27.336 18.6077H31.7139Z" stroke="#A3A3A3" stroke-width="1.87153" stroke-miterlimit="10" stroke-linecap="round" stroke-linejoin="round"/>
<path d="M31.9212 18.6076C31.6571 18.2032 31.8646 13.7168 34.0913 12.2533C35.6576 11.2136 37.771 11.6371 38.8089 13.1969C39.8468 14.7565 39.4128 16.8553 37.8466 17.8952C37.0351 18.4343 36.0728 18.6076 35.167 18.6076H31.9212Z" stroke="#A3A3A3" stroke-width="1.87153" stroke-miterlimit="10" stroke-linecap="round" stroke-linejoin="round"/>
<path d="M29.5626 18.6074H18.9954V24.7692H29.5626" stroke="#A3A3A3" stroke-width="1.87153" stroke-miterlimit="10" stroke-linecap="round" stroke-linejoin="round"/>
<path d="M34.0916 24.7692H44.6589V18.6074H34.0916" stroke="#A3A3A3" stroke-width="1.87153" stroke-miterlimit="10" stroke-linecap="round" stroke-linejoin="round"/>
<path d="M29.5625 34.0118V18.6074" stroke="#A3A3A3" stroke-width="1.87153" stroke-miterlimit="10" stroke-linecap="round" stroke-linejoin="round"/>
<path d="M34.0916 18.6074V34.0118" stroke="#A3A3A3" stroke-width="1.87153" stroke-miterlimit="10" stroke-linecap="round" stroke-linejoin="round"/>
</g>
<defs>
<clipPath id="clip0_29_575">
<rect width="49" height="50" fill="white"/>
</clipPath>
</defs>
</svg>
