<svg width="14" height="21" viewBox="0 0 14 21" fill="none" xmlns="http://www.w3.org/2000/svg">
<path d="M7.00167 0.175781C8.48576 0.175781 8.95209 1.15199 9.34334 2.12666C9.50769 2.54056 13.3643 12.2261 13.4803 12.5168C13.5111 12.5979 13.4903 12.7311 13.3543 12.7793C13.2175 12.8267 11.2137 13.5412 11.1027 13.5795C10.9918 13.6185 10.8675 13.5619 10.8274 13.4602C10.7857 13.3599 9.954 11.2484 9.86056 11.0127H4.14444C4.05434 11.2484 3.21261 13.3645 3.17507 13.4602C3.13669 13.5573 3.0174 13.6231 2.89894 13.5795C2.78048 13.5367 0.769157 12.8221 0.649029 12.7793C0.533905 12.7379 0.481349 12.6178 0.521392 12.5168C0.66321 12.1542 4.46145 2.62395 4.65499 2.12666C5.03206 1.16652 5.51424 0.175781 7.00167 0.175781ZM0.216065 17.5065C0.095936 17.5065 0 17.5983 0 17.71V19.9738C0 20.0855 0.095936 20.1758 0.216065 20.1758H13.7814C13.9041 20.1758 14 20.0855 14 19.9738V17.71C14 17.5983 13.9041 17.5065 13.7814 17.5065H0.216065ZM6.98832 3.33851L5.05625 8.65945H8.95209L7.01335 3.33851H6.98832Z" fill="white"/>
</svg>
