<svg width="18" height="18" viewBox="0 0 18 18" fill="none" xmlns="http://www.w3.org/2000/svg">
<path d="M3.46905 3.625L2.80205 0.625H0.873047" stroke="#010717" stroke-width="1.2" stroke-linecap="round" stroke-linejoin="round"/>
<path d="M5.23124 11.835L3.46924 3.625H16.1272C16.7642 3.625 17.2382 4.212 17.1052 4.835L15.6032 11.835C15.5042 12.296 15.0972 12.625 14.6252 12.625H6.20824C5.73724 12.625 5.33024 12.296 5.23124 11.835Z" stroke="#010717" stroke-width="1.2" stroke-linecap="round" stroke-linejoin="round"/>
<path d="M6.35593 16.25C6.14893 16.25 5.98093 16.418 5.98293 16.625C5.98193 16.832 6.14993 17 6.35693 17C6.56393 17 6.73193 16.832 6.73193 16.625C6.73193 16.418 6.56393 16.25 6.35593 16.25" stroke="#010717" stroke-width="1.2" stroke-linecap="round" stroke-linejoin="round"/>
<path d="M14.9629 16.25C14.7559 16.25 14.5879 16.418 14.5899 16.625C14.5889 16.832 14.7569 17 14.9639 17C15.1709 17 15.3389 16.832 15.3389 16.625C15.3389 16.418 15.1709 16.25 14.9629 16.25" stroke="#010717" stroke-width="1.2" stroke-linecap="round" stroke-linejoin="round"/>
</svg>
