<svg width="21" height="22" viewBox="0 0 21 22" fill="none" xmlns="http://www.w3.org/2000/svg">
<path d="M0.5 19.1818V2.81818C0.5 2.33597 0.691558 1.87351 1.03253 1.53253C1.37351 1.19156 1.83597 1 2.31818 1H18.6818C19.164 1 19.6265 1.19156 19.9675 1.53253C20.3084 1.87351 20.5 2.33597 20.5 2.81818V19.1818C20.5 19.664 20.3084 20.1265 19.9675 20.4675C19.6265 20.8084 19.164 21 18.6818 21H2.31818C1.83597 21 1.37351 20.8084 1.03253 20.4675C0.691558 20.1265 0.5 19.664 0.5 19.1818Z" stroke="black"/>
<path d="M13.2276 6.4549H16.864M13.2276 14.1822H16.864M13.2276 16.9094H16.864M4.13672 6.4549H5.9549M7.77308 6.4549H5.9549M5.9549 6.4549V4.63672M5.9549 6.4549V8.27308M4.66945 16.8313L5.9549 15.5458M7.24126 14.2604L5.9549 15.5458M5.9549 15.5458L4.66945 14.2604M5.9549 15.5458L7.24126 16.8313" stroke="black" stroke-width="0.8" stroke-linecap="round" stroke-linejoin="round"/>
</svg>
