<svg width="14" height="14" viewBox="0 0 14 14" fill="none" xmlns="http://www.w3.org/2000/svg">
<path d="M2.33333 8.33268C1.59667 8.33268 1 7.73602 1 6.99935C1 6.26268 1.59667 5.66602 2.33333 5.66602C3.07 5.66602 3.66667 6.26268 3.66667 6.99935C3.66667 7.73602 3.07 8.33268 2.33333 8.33268Z" stroke="white" stroke-width="1.2" stroke-linecap="round" stroke-linejoin="round"/>
<path d="M6.99935 8.33268C6.26268 8.33268 5.66602 7.73602 5.66602 6.99935C5.66602 6.26268 6.26268 5.66602 6.99935 5.66602C7.73602 5.66602 8.33268 6.26268 8.33268 6.99935C8.33268 7.73602 7.73602 8.33268 6.99935 8.33268Z" stroke="white" stroke-width="1.2" stroke-linecap="round" stroke-linejoin="round"/>
<path d="M11.6673 8.33268C10.9307 8.33268 10.334 7.73602 10.334 6.99935C10.334 6.26268 10.9307 5.66602 11.6673 5.66602C12.404 5.66602 13.0007 6.26268 13.0007 6.99935C13.0007 7.73602 12.404 8.33268 11.6673 8.33268Z" stroke="white" stroke-width="1.2" stroke-linecap="round" stroke-linejoin="round"/>
<path d="M2.33333 13.0007C1.59667 13.0007 1 12.404 1 11.6673C1 10.9307 1.59667 10.334 2.33333 10.334C3.07 10.334 3.66667 10.9307 3.66667 11.6673C3.66667 12.404 3.07 13.0007 2.33333 13.0007Z" stroke="white" stroke-width="1.2" stroke-linecap="round" stroke-linejoin="round"/>
<path d="M6.99935 13.0007C6.26268 13.0007 5.66602 12.404 5.66602 11.6673C5.66602 10.9307 6.26268 10.334 6.99935 10.334C7.73602 10.334 8.33268 10.9307 8.33268 11.6673C8.33268 12.404 7.73602 13.0007 6.99935 13.0007Z" stroke="white" stroke-width="1.2" stroke-linecap="round" stroke-linejoin="round"/>
<path d="M11.6673 13.0007C10.9307 13.0007 10.334 12.404 10.334 11.6673C10.334 10.9307 10.9307 10.334 11.6673 10.334C12.404 10.334 13.0007 10.9307 13.0007 11.6673C13.0007 12.404 12.404 13.0007 11.6673 13.0007Z" stroke="white" stroke-width="1.2" stroke-linecap="round" stroke-linejoin="round"/>
<path d="M2.33333 3.66667C1.59667 3.66667 1 3.07 1 2.33333C1 1.59667 1.59667 1 2.33333 1C3.07 1 3.66667 1.59667 3.66667 2.33333C3.66667 3.07 3.07 3.66667 2.33333 3.66667Z" stroke="white" stroke-width="1.2" stroke-linecap="round" stroke-linejoin="round"/>
<path d="M6.99935 3.66667C6.26268 3.66667 5.66602 3.07 5.66602 2.33333C5.66602 1.59667 6.26268 1 6.99935 1C7.73602 1 8.33268 1.59667 8.33268 2.33333C8.33268 3.07 7.73602 3.66667 6.99935 3.66667Z" stroke="white" stroke-width="1.2" stroke-linecap="round" stroke-linejoin="round"/>
<path d="M11.6673 3.66667C10.9307 3.66667 10.334 3.07 10.334 2.33333C10.334 1.59667 10.9307 1 11.6673 1C12.404 1 13.0007 1.59667 13.0007 2.33333C13.0007 3.07 12.404 3.66667 11.6673 3.66667Z" stroke="white" stroke-width="1.2" stroke-linecap="round" stroke-linejoin="round"/>
</svg>
