<svg width="734" height="601" viewBox="0 0 734 601" fill="none" xmlns="http://www.w3.org/2000/svg">
<g clip-path="url(#clip0_2_145)">
<path d="M304.113 582.42V677.42H305.113V582.42" fill="#1D1D1B"/>
<path d="M304.113 299.42V582.42H305.113V299.42" fill="#1D1D1B"/>
<path d="M351.113 582.42V677.42H352.113V582.42" fill="#1D1D1B"/>
<path d="M351.113 393.42V588.42H352.113V393.42" fill="#1D1D1B"/>
<path d="M351.113 299.42V393.42H352.113V299.42" fill="#1D1D1B"/>
<path d="M398.113 404.42V677.42H399.113V404.42" fill="#1D1D1B"/>
<path d="M398.113 299.42V406.42H399.113V299.42" fill="#1D1D1B"/>
<path d="M445.113 299.42V677.42H446.113V299.42" fill="#1D1D1B"/>
<path d="M492.113 440.42V677.42H493.113V440.42" fill="#1D1D1B"/>
<path d="M539.113 440.42V677.42H540.113V440.42" fill="#1D1D1B"/>
<path d="M586.113 440.42V677.42H587.113V440.42" fill="#1D1D1B"/>
<path d="M633.113 440.42V677.42H634.113V440.42" fill="#1D1D1B"/>
<path d="M680.422 440.252V677.771H681.032V440.252" fill="#1D1D1B"/>
<path d="M492.238 298.42V442.058H492.849V298.42" fill="#1D1D1B"/>
<path d="M539.279 298.42V440.251H539.89V298.42" fill="#1D1D1B"/>
<path d="M586.326 298.42V440.068H586.937V298.42" fill="#1D1D1B"/>
<path d="M633.375 298.42V440.251H633.986V298.42" fill="#1D1D1B"/>
<path d="M680.422 298.42V440.251H681.032V298.42" fill="#1D1D1B"/>
<path d="M267 393.287H728V392.287H267" fill="#1D1D1B"/>
<path d="M256.113 346.42H728.113V345.42H256.113" fill="#1D1D1B"/>
<path d="M256.113 440.42H728.113V439.42H256.113" fill="#1D1D1B"/>
<path d="M442.113 535.42H728.113V534.42H442.113" fill="#1D1D1B"/>
<path d="M225 487.287H728V486.287H225" fill="#1D1D1B"/>
<path d="M445.113 534.42H256.113V535.42H445.113" fill="#1D1D1B"/>
<path d="M239 582.287H728V581.287H239" fill="#1D1D1B"/>
<path d="M489.616 550.504V537.59L477.839 520.411C477.372 519.86 477.115 519.167 477.113 518.451C477.114 518.025 477.206 517.604 477.384 517.215C477.561 516.826 477.819 516.478 478.142 516.193C478.725 515.683 479.482 515.407 480.262 515.42C480.675 515.422 481.082 515.519 481.449 515.704C481.816 515.889 482.134 516.157 482.376 516.485L492.672 531.766L502.844 516.431C503.118 516.111 503.461 515.854 503.848 515.68C504.235 515.505 504.656 515.416 505.082 515.42C505.794 515.423 506.482 515.676 507.022 516.132C507.367 516.402 507.645 516.746 507.835 517.137C508.024 517.528 508.119 517.957 508.113 518.39C508.102 519.106 507.845 519.797 507.382 520.35L495.697 537.59V550.504C495.701 550.892 495.624 551.277 495.473 551.636C495.321 551.995 495.098 552.32 494.815 552.592C494.533 552.864 494.198 553.078 493.83 553.22C493.461 553.362 493.068 553.429 492.672 553.419C492.277 553.429 491.883 553.362 491.515 553.22C491.147 553.078 490.811 552.864 490.529 552.592C490.247 552.32 490.023 551.995 489.871 551.636C489.72 551.277 489.644 550.892 489.647 550.504H489.616Z" fill="#7743AB"/>
<path d="M367.485 395.732H354.566L337.331 407.332C336.78 407.794 336.084 408.047 335.365 408.046C334.938 408.043 334.516 407.951 334.126 407.777C333.736 407.602 333.387 407.349 333.1 407.033C332.588 406.459 332.311 405.714 332.325 404.945C332.328 404.537 332.427 404.136 332.614 403.773C332.8 403.41 333.069 403.096 333.399 402.857L348.723 392.722L333.338 382.703C333.019 382.432 332.763 382.094 332.588 381.713C332.413 381.333 332.323 380.918 332.325 380.499C332.326 379.797 332.58 379.119 333.039 378.588C333.31 378.249 333.655 377.976 334.048 377.79C334.44 377.604 334.87 377.509 335.304 377.514C336.023 377.525 336.717 377.776 337.276 378.228L354.566 389.737H367.509C367.899 389.735 368.285 389.811 368.644 389.962C369.003 390.112 369.329 390.333 369.601 390.611C369.873 390.89 370.086 391.22 370.228 391.583C370.37 391.945 370.438 392.333 370.428 392.722C370.438 393.111 370.371 393.498 370.228 393.86C370.086 394.223 369.873 394.553 369.6 394.831C369.328 395.109 369.003 395.329 368.643 395.479C368.284 395.628 367.898 395.704 367.509 395.701L367.485 395.732Z" fill="#7743AB"/>
<path d="M348.113 506.507V474.327C348.111 473.939 348.187 473.555 348.337 473.197C348.488 472.84 348.709 472.516 348.989 472.245C349.269 471.973 349.601 471.761 349.965 471.619C350.329 471.478 350.719 471.41 351.11 471.421C351.502 471.41 351.891 471.478 352.256 471.619C352.621 471.761 352.953 471.973 353.233 472.244C353.514 472.515 353.736 472.839 353.887 473.197C354.038 473.555 354.115 473.939 354.113 474.327V506.507C354.116 506.895 354.039 507.28 353.889 507.639C353.738 507.997 353.516 508.322 353.236 508.593C352.955 508.865 352.623 509.078 352.258 509.22C351.893 509.362 351.502 509.429 351.11 509.419C350.719 509.429 350.329 509.36 349.965 509.218C349.6 509.076 349.268 508.863 348.989 508.591C348.709 508.32 348.488 507.995 348.337 507.637C348.187 507.279 348.111 506.895 348.113 506.507Z" fill="#DB0032"/>
<path d="M650.13 396.42H617.103C616.704 396.422 616.309 396.346 615.942 396.195C615.574 396.045 615.24 395.822 614.962 395.542C614.683 395.262 614.464 394.929 614.318 394.564C614.173 394.199 614.104 393.809 614.114 393.417C614.103 393.025 614.173 392.635 614.318 392.27C614.464 391.905 614.683 391.573 614.962 391.294C615.241 391.014 615.574 390.792 615.942 390.642C616.31 390.492 616.705 390.417 617.103 390.42H650.13C650.528 390.417 650.922 390.494 651.289 390.644C651.656 390.795 651.989 391.016 652.267 391.296C652.545 391.575 652.763 391.907 652.909 392.272C653.054 392.636 653.123 393.026 653.112 393.417C653.123 393.808 653.054 394.198 652.909 394.563C652.764 394.928 652.545 395.26 652.267 395.54C651.989 395.82 651.657 396.042 651.289 396.194C650.922 396.345 650.528 396.422 650.13 396.42Z" fill="#E9458D"/>
<path d="M320.207 537.42H288.026C287.638 537.423 287.253 537.348 286.895 537.197C286.537 537.047 286.212 536.825 285.94 536.545C285.668 536.265 285.455 535.933 285.313 535.568C285.171 535.202 285.104 534.812 285.114 534.42C285.104 534.028 285.171 533.637 285.313 533.272C285.455 532.907 285.668 532.574 285.94 532.294C286.212 532.014 286.537 531.793 286.895 531.642C287.253 531.492 287.638 531.417 288.026 531.42H320.207C320.594 531.417 320.978 531.494 321.336 531.644C321.693 531.795 322.017 532.017 322.289 532.297C322.56 532.577 322.772 532.909 322.914 533.274C323.055 533.638 323.123 534.028 323.112 534.42C323.123 534.812 323.055 535.201 322.914 535.566C322.772 535.931 322.56 536.263 322.289 536.543C322.017 536.823 321.693 537.045 321.336 537.196C320.978 537.346 320.594 537.422 320.207 537.42V537.42Z" fill="#6AC0AE"/>
<path d="M605.244 443.523C604.979 443.81 604.658 444.038 604.301 444.192C603.944 444.347 603.559 444.424 603.171 444.419H586.081C585.691 444.429 585.303 444.354 584.945 444.2C584.586 444.045 584.264 443.814 584.002 443.523C583.435 442.949 583.116 442.172 583.114 441.361C583.104 440.967 583.177 440.576 583.33 440.213C583.484 439.851 583.713 439.526 584.002 439.261C584.566 438.727 585.308 438.427 586.081 438.42H603.146C603.537 438.417 603.925 438.492 604.287 438.642C604.649 438.792 604.977 439.013 605.254 439.292C605.53 439.572 605.748 439.904 605.896 440.27C606.043 440.636 606.117 441.028 606.113 441.423C606.112 441.815 606.032 442.204 605.879 442.565C605.725 442.926 605.501 443.252 605.219 443.523H605.244Z" fill="#DB0032"/>
<path d="M580.765 440.984C580.775 440.143 580.616 439.308 580.296 438.529C579.976 437.751 579.502 437.045 578.903 436.454C578.314 435.848 577.609 435.367 576.829 435.039C576.05 434.712 575.212 434.545 574.367 434.549C573.517 434.539 572.673 434.702 571.888 435.028C571.103 435.355 570.393 435.838 569.8 436.448C569.2 437.04 568.725 437.746 568.404 438.526C568.083 439.305 567.922 440.141 567.932 440.984C567.923 441.826 568.083 442.66 568.403 443.438C568.723 444.217 569.196 444.923 569.794 445.514C570.39 446.122 571.101 446.604 571.887 446.932C572.673 447.259 573.516 447.425 574.367 447.419C575.212 447.422 576.049 447.255 576.829 446.927C577.608 446.6 578.313 446.12 578.903 445.514C579.501 444.923 579.975 444.217 580.294 443.438C580.614 442.66 580.774 441.826 580.765 440.984V440.984Z" fill="#DB0032"/>
<path d="M732.694 581.68C732.706 580.841 732.55 580.008 732.235 579.23C731.921 578.452 731.454 577.745 730.862 577.149C730.272 576.544 729.567 576.064 728.788 575.736C728.008 575.409 727.171 575.242 726.326 575.245C725.475 575.234 724.631 575.397 723.846 575.725C723.06 576.053 722.35 576.537 721.759 577.149C721.159 577.74 720.684 578.446 720.363 579.224C720.042 580.002 719.882 580.838 719.891 581.68C719.881 582.522 720.041 583.358 720.361 584.137C720.681 584.916 721.155 585.623 721.753 586.216C722.349 586.824 723.06 587.306 723.846 587.633C724.632 587.96 725.475 588.126 726.326 588.121C727.17 588.124 728.007 587.957 728.785 587.63C729.563 587.302 730.268 586.821 730.856 586.216C731.456 585.623 731.93 584.917 732.251 584.137C732.572 583.358 732.733 582.522 732.724 581.68H732.694Z" fill="#E9458D"/>
<path d="M546.113 344.42C546.122 343.635 545.959 342.857 545.634 342.131C545.309 341.405 544.829 340.747 544.222 340.196C543.627 339.631 542.914 339.182 542.125 338.876C541.337 338.571 540.49 338.416 539.635 338.42C538.773 338.41 537.918 338.562 537.122 338.866C536.326 339.171 535.606 339.621 535.005 340.191C534.398 340.743 533.918 341.402 533.593 342.129C533.268 342.855 533.105 343.634 533.114 344.42C533.106 345.205 533.269 345.983 533.594 346.709C533.919 347.434 534.399 348.092 535.005 348.644C535.608 349.211 536.329 349.66 537.124 349.965C537.919 350.27 538.773 350.425 539.635 350.42C540.49 350.422 541.336 350.267 542.124 349.961C542.912 349.656 543.626 349.208 544.222 348.644C544.828 348.092 545.308 347.434 545.633 346.709C545.958 345.983 546.121 345.205 546.113 344.42V344.42Z" fill="#E9458D"/>
<path d="M452.2 488.099C452.209 487.258 452.049 486.424 451.729 485.645C451.409 484.867 450.936 484.161 450.338 483.569C449.749 482.963 449.044 482.482 448.264 482.154C447.485 481.827 446.647 481.661 445.802 481.665C444.951 481.654 444.106 481.817 443.32 482.143C442.534 482.47 441.822 482.953 441.229 483.563C440.636 484.158 440.168 484.867 439.853 485.646C439.539 486.425 439.384 487.259 439.397 488.099C439.384 488.939 439.54 489.772 439.854 490.55C440.169 491.328 440.636 492.035 441.229 492.63C441.824 493.238 442.536 493.72 443.322 494.047C444.107 494.374 444.951 494.54 445.802 494.534C446.646 494.538 447.482 494.371 448.261 494.043C449.039 493.716 449.744 493.235 450.332 492.63C450.931 492.038 451.405 491.332 451.726 490.554C452.047 489.776 452.208 488.941 452.2 488.099Z" fill="#E9458D"/>
<path d="M733.959 391.691C733.968 390.85 733.808 390.015 733.488 389.237C733.168 388.459 732.695 387.753 732.097 387.161C731.507 386.556 730.801 386.075 730.022 385.748C729.243 385.421 728.405 385.254 727.56 385.256C726.709 385.246 725.865 385.409 725.08 385.737C724.295 386.064 723.585 386.549 722.994 387.161C722.395 387.753 721.921 388.458 721.6 389.237C721.279 390.015 721.117 390.85 721.125 391.691C721.117 392.534 721.278 393.37 721.599 394.149C721.92 394.928 722.394 395.635 722.994 396.228C723.588 396.835 724.299 397.316 725.083 397.642C725.868 397.968 726.711 398.133 727.56 398.126C728.405 398.13 729.242 397.964 730.021 397.638C730.801 397.311 731.506 396.832 732.097 396.228C732.695 395.635 733.169 394.928 733.488 394.149C733.808 393.369 733.968 392.534 733.959 391.691V391.691Z" fill="#7743AB"/>
<path d="M357.826 345.664C357.835 344.822 357.674 343.987 357.353 343.209C357.032 342.43 356.558 341.725 355.958 341.134C355.37 340.526 354.664 340.044 353.885 339.717C353.105 339.39 352.267 339.224 351.422 339.229C350.571 339.219 349.728 339.382 348.943 339.708C348.158 340.035 347.447 340.518 346.855 341.128C346.255 341.72 345.781 342.427 345.46 343.206C345.139 343.985 344.978 344.821 344.987 345.664C344.979 346.506 345.14 347.34 345.461 348.119C345.782 348.897 346.256 349.603 346.855 350.194C347.45 350.801 348.16 351.283 348.945 351.61C349.729 351.937 350.572 352.104 351.422 352.099C352.267 352.101 353.104 351.934 353.883 351.607C354.662 351.28 355.368 350.799 355.958 350.194C356.557 349.603 357.031 348.897 357.352 348.119C357.673 347.34 357.834 346.506 357.826 345.664V345.664Z" fill="#E9458D"/>
<path d="M262.834 347.068C262.842 346.227 262.682 345.393 262.362 344.614C262.042 343.836 261.569 343.13 260.972 342.538C260.382 341.933 259.676 341.452 258.897 341.125C258.118 340.798 257.281 340.631 256.435 340.633C255.584 340.623 254.74 340.787 253.954 341.113C253.168 341.439 252.456 341.922 251.863 342.532C251.264 343.125 250.791 343.832 250.471 344.611C250.151 345.39 249.991 346.226 250 347.068C249.991 347.91 250.151 348.744 250.471 349.522C250.791 350.301 251.264 351.007 251.863 351.598C252.458 352.206 253.17 352.688 253.955 353.016C254.741 353.343 255.584 353.509 256.435 353.503C257.28 353.506 258.116 353.339 258.894 353.012C259.673 352.685 260.377 352.204 260.965 351.598C261.564 351.007 262.039 350.301 262.359 349.523C262.68 348.745 262.842 347.91 262.834 347.068V347.068Z" fill="#6AC0AE"/>
<path d="M690.113 488.423C690.113 491.074 689.007 493.617 687.039 495.492C685.07 497.367 682.4 498.42 679.616 498.42C676.832 498.42 674.161 497.367 672.192 495.492C670.222 493.618 669.115 491.075 669.113 488.423C669.113 485.77 670.22 483.226 672.19 481.35C674.159 479.474 676.831 478.42 679.616 478.42C680.995 478.42 682.361 478.679 683.635 479.181C684.909 479.684 686.066 480.421 687.041 481.35C688.016 482.279 688.789 483.382 689.316 484.595C689.843 485.809 690.114 487.11 690.113 488.423Z" fill="#FED16D"/>
<path d="M455.113 343.423C455.114 344.736 454.856 346.036 454.354 347.25C453.852 348.463 453.115 349.565 452.187 350.494C451.259 351.422 450.156 352.158 448.943 352.661C447.73 353.163 446.429 353.421 445.116 353.42C443.803 353.421 442.502 353.163 441.289 352.661C440.075 352.159 438.972 351.422 438.044 350.494C437.115 349.566 436.378 348.463 435.875 347.25C435.372 346.037 435.113 344.736 435.113 343.423C435.113 340.77 436.167 338.226 438.043 336.35C439.919 334.474 442.463 333.42 445.116 333.42C446.43 333.42 447.73 333.679 448.943 334.181C450.157 334.684 451.259 335.421 452.187 336.35C453.116 337.279 453.852 338.382 454.354 339.595C454.856 340.809 455.114 342.11 455.113 343.423Z" fill="#FED16D"/>
<path d="M451.586 350.156C450.811 350.925 449.883 351.534 448.857 351.947C447.831 352.361 446.728 352.569 445.616 352.56C444.514 352.563 443.422 352.352 442.405 351.939C441.389 351.526 440.47 350.919 439.703 350.156C438.91 349.417 438.281 348.532 437.852 347.553C437.423 346.574 437.204 345.522 437.208 344.459C437.205 343.388 437.424 342.328 437.852 341.34C438.281 340.353 438.91 339.458 439.703 338.708C440.474 337.953 441.395 337.356 442.411 336.953C443.427 336.55 444.518 336.35 445.616 336.364C446.724 336.344 447.825 336.542 448.851 336.945C449.878 337.347 450.808 337.947 451.586 338.708C452.376 339.457 453 340.353 453.419 341.342C453.838 342.331 454.044 343.391 454.025 344.459C454.039 345.518 453.83 346.569 453.411 347.548C452.992 348.527 452.371 349.415 451.586 350.156V350.156ZM455.853 334.531C454.511 333.231 452.916 332.199 451.159 331.494C449.403 330.788 447.519 330.423 445.616 330.42C443.713 330.423 441.83 330.788 440.074 331.494C438.317 332.199 436.722 333.231 435.38 334.531C432.654 337.163 431.12 340.728 431.113 344.447C431.116 346.281 431.494 348.096 432.226 349.788C432.958 351.48 434.03 353.017 435.38 354.309C436.722 355.609 438.317 356.641 440.074 357.346C441.83 358.052 443.713 358.416 445.616 358.42C447.519 358.416 449.403 358.052 451.159 357.346C452.916 356.641 454.511 355.609 455.853 354.309C457.201 353.016 458.271 351.479 459.002 349.787C459.733 348.094 460.111 346.28 460.113 344.447C460.106 340.73 458.575 337.165 455.853 334.531V334.531Z" fill="#6AC0AE"/>
<path d="M502.113 439.417C502.113 442.07 501.059 444.614 499.183 446.49C497.307 448.366 494.763 449.42 492.11 449.42C489.458 449.418 486.916 448.364 485.041 446.488C483.166 444.612 482.113 442.069 482.113 439.417C482.115 436.766 483.169 434.224 485.043 432.35C486.917 430.475 489.459 429.422 492.11 429.42C494.762 429.42 497.306 430.473 499.181 432.348C501.057 434.222 502.112 436.765 502.113 439.417V439.417Z" fill="#FED16D"/>
<path d="M497.88 445.861C497.131 446.657 496.233 447.288 495.241 447.715C494.25 448.143 493.185 448.36 492.11 448.351C491.046 448.353 489.993 448.134 489.013 447.706C488.033 447.279 487.147 446.651 486.407 445.861C485.642 445.096 485.035 444.18 484.621 443.168C484.207 442.155 483.995 441.066 483.998 439.967C483.995 438.858 484.206 437.76 484.62 436.737C485.034 435.714 485.641 434.787 486.407 434.01C487.148 433.226 488.036 432.606 489.017 432.188C489.997 431.769 491.05 431.561 492.11 431.576C493.181 431.557 494.245 431.763 495.237 432.182C496.228 432.6 497.128 433.222 497.88 434.01C498.641 434.787 499.241 435.716 499.645 436.74C500.049 437.763 500.247 438.861 500.229 439.967C500.241 441.062 500.04 442.149 499.636 443.161C499.233 444.174 498.635 445.093 497.88 445.861V445.861ZM501.994 429.677C500.698 428.331 499.158 427.262 497.462 426.532C495.766 425.801 493.948 425.424 492.11 425.42C490.273 425.424 488.454 425.801 486.759 426.532C485.063 427.262 483.523 428.331 482.227 429.677C479.599 432.409 478.121 436.102 478.113 439.954C478.121 443.788 479.6 447.462 482.227 450.169C484.846 452.883 488.401 454.412 492.11 454.42C495.82 454.412 499.375 452.883 501.994 450.169C503.296 448.829 504.331 447.238 505.037 445.485C505.744 443.732 506.11 441.853 506.113 439.954C506.107 436.101 504.626 432.406 501.994 429.677V429.677Z" fill="#E9458D"/>
<path d="M314.113 439.417C314.113 442.069 313.06 444.612 311.186 446.488C309.311 448.364 306.768 449.418 304.116 449.42C301.463 449.42 298.919 448.366 297.043 446.49C295.167 444.614 294.113 442.07 294.113 439.417C294.115 436.765 295.169 434.222 297.045 432.348C298.921 430.473 301.464 429.42 304.116 429.42C306.767 429.422 309.309 430.475 311.183 432.35C313.058 434.224 314.112 436.766 314.113 439.417Z" fill="#FED16D"/>
<path d="M310.205 445.54C309.447 446.321 308.538 446.94 307.534 447.359C306.53 447.779 305.451 447.991 304.363 447.982C303.283 447.985 302.214 447.771 301.22 447.351C300.225 446.931 299.326 446.315 298.575 445.54C297.8 444.79 297.184 443.891 296.765 442.898C296.345 441.905 296.13 440.837 296.133 439.758C296.13 438.671 296.344 437.594 296.764 436.59C297.183 435.587 297.799 434.677 298.575 433.915C299.328 433.147 300.23 432.54 301.225 432.13C302.219 431.719 303.287 431.515 304.363 431.528C305.448 431.509 306.525 431.711 307.529 432.122C308.534 432.532 309.444 433.142 310.205 433.915C310.979 434.677 311.589 435.587 311.999 436.592C312.41 437.596 312.611 438.673 312.593 439.758C312.607 440.833 312.403 441.9 311.993 442.894C311.582 443.888 310.974 444.788 310.205 445.54V445.54ZM314.381 429.666C313.068 428.346 311.507 427.297 309.788 426.581C308.069 425.864 306.225 425.494 304.363 425.49C302.5 425.494 300.657 425.864 298.938 426.581C297.218 427.297 295.658 428.346 294.344 429.666C291.676 432.343 290.174 435.966 290.168 439.746C290.171 441.608 290.542 443.452 291.259 445.171C291.975 446.89 293.024 448.451 294.344 449.765C296.999 452.427 300.603 453.927 304.363 453.935C308.123 453.927 311.726 452.427 314.381 449.765C317.044 447.11 318.544 443.506 318.551 439.746C318.544 435.968 317.045 432.345 314.381 429.666V429.666Z" fill="#E9458D"/>
<path d="M644.113 582.417C644.113 585.069 643.008 587.612 641.039 589.488C639.071 591.364 636.401 592.418 633.616 592.42C630.831 592.42 628.159 591.366 626.189 589.49C624.22 587.614 623.113 585.07 623.113 582.417C623.115 579.765 624.222 577.222 626.192 575.348C628.161 573.473 630.832 572.42 633.616 572.42C636.4 572.422 639.069 573.475 641.037 575.35C643.005 577.224 644.112 579.766 644.113 582.417V582.417Z" fill="#FED16D"/>
<path d="M639.552 588.933C638.782 589.696 637.869 590.3 636.865 590.709C635.861 591.119 634.787 591.326 633.703 591.32C632.62 591.327 631.546 591.119 630.543 590.709C629.541 590.3 628.629 589.696 627.86 588.933C627.088 588.168 626.474 587.259 626.055 586.256C625.636 585.253 625.419 584.177 625.418 583.09C625.415 582.003 625.629 580.926 626.049 579.922C626.468 578.919 627.084 578.009 627.86 577.248C628.621 576.474 629.532 575.864 630.536 575.454C631.541 575.043 632.618 574.842 633.703 574.86C634.789 574.841 635.867 575.043 636.872 575.454C637.878 575.864 638.789 576.474 639.552 577.248C640.324 578.009 640.933 578.92 641.343 579.924C641.752 580.929 641.953 582.006 641.933 583.09C641.942 584.173 641.737 585.247 641.328 586.25C640.919 587.253 640.316 588.165 639.552 588.933ZM643.722 573.017C642.409 571.695 640.848 570.646 639.129 569.929C637.409 569.213 635.565 568.843 633.703 568.841C630.731 568.862 627.839 569.798 625.418 571.521V561.685C625.421 561.295 625.345 560.909 625.195 560.549C625.045 560.189 624.824 559.863 624.546 559.59C624.267 559.317 623.936 559.103 623.573 558.961C623.21 558.818 622.822 558.75 622.433 558.761C622.043 558.75 621.655 558.818 621.293 558.961C620.93 559.103 620.6 559.317 620.322 559.59C620.044 559.863 619.823 560.189 619.674 560.549C619.525 560.909 619.45 561.296 619.453 561.685V594.006C619.451 594.396 619.526 594.781 619.676 595.141C619.826 595.5 620.046 595.825 620.324 596.098C620.602 596.37 620.932 596.583 621.294 596.726C621.656 596.868 622.044 596.935 622.433 596.925C623.121 596.932 623.791 596.698 624.325 596.263C624.859 595.828 625.224 595.22 625.357 594.544C627.768 596.338 630.697 597.3 633.703 597.285C635.565 597.283 637.409 596.913 639.129 596.196C640.848 595.48 642.409 594.43 643.722 593.109C645.042 591.795 646.09 590.234 646.807 588.515C647.523 586.796 647.894 584.953 647.898 583.09C647.901 581.219 647.533 579.365 646.816 577.636C646.1 575.907 645.048 574.337 643.722 573.017V573.017Z" fill="#E9458D"/>
<path d="M644.113 344.414C644.113 347.067 643.008 349.611 641.039 351.487C639.071 353.363 636.401 354.418 633.616 354.42C630.831 354.42 628.159 353.366 626.189 351.489C624.22 349.613 623.113 347.068 623.113 344.414C623.117 341.762 624.225 339.22 626.194 337.346C628.163 335.472 630.833 334.42 633.616 334.42C636.4 334.422 639.069 335.476 641.037 337.351C643.005 339.226 644.112 341.768 644.113 344.42V344.414Z" fill="#FED16D"/>
<path d="M639.586 350.144C638.811 350.913 637.883 351.522 636.857 351.935C635.831 352.349 634.728 352.557 633.616 352.548C632.513 352.552 631.421 352.341 630.405 351.928C629.389 351.515 628.47 350.908 627.703 350.144C626.91 349.405 626.281 348.52 625.852 347.541C625.423 346.562 625.204 345.51 625.208 344.447C625.205 343.377 625.424 342.316 625.852 341.328C626.281 340.341 626.91 339.446 627.703 338.696C628.473 337.94 629.394 337.341 630.41 336.938C631.426 336.534 632.517 336.332 633.616 336.346C634.725 336.327 635.826 336.526 636.852 336.93C637.878 337.334 638.808 337.935 639.586 338.696C640.375 339.445 640.998 340.342 641.416 341.33C641.834 342.319 642.039 343.38 642.019 344.447C642.035 345.506 641.828 346.557 641.41 347.536C640.992 348.516 640.371 349.403 639.586 350.144V350.144ZM643.79 334.471C642.457 333.18 640.872 332.158 639.125 331.462C637.379 330.767 635.506 330.413 633.616 330.42C631.713 330.422 629.829 330.786 628.073 331.492C626.316 332.197 624.721 333.23 623.38 334.531C620.653 337.163 619.119 340.728 619.113 344.447C619.131 348.148 620.665 351.692 623.38 354.309C624.721 355.61 626.316 356.643 628.073 357.348C629.829 358.054 631.713 358.418 633.616 358.42C636.708 358.413 639.693 357.329 642.019 355.367C642.079 356.094 642.419 356.774 642.971 357.273C643.524 357.772 644.25 358.054 645.007 358.065C645.415 358.07 645.821 357.994 646.198 357.843C646.575 357.692 646.917 357.469 647.203 357.188C647.775 356.62 648.1 355.864 648.113 355.072V344.339C648.054 340.636 646.504 337.1 643.79 334.477V334.471Z" fill="#79A3DC"/>
<path d="M362.113 580.417C362.113 583.069 361.008 585.612 359.039 587.488C357.071 589.364 354.401 590.418 351.616 590.42C350.237 590.42 348.871 590.161 347.597 589.658C346.323 589.156 345.165 588.419 344.19 587.49C343.214 586.561 342.441 585.459 341.913 584.245C341.385 583.031 341.113 581.73 341.113 580.417C341.113 579.104 341.385 577.803 341.913 576.59C342.441 575.377 343.215 574.274 344.19 573.346C345.165 572.417 346.323 571.681 347.598 571.179C348.872 570.677 350.237 570.419 351.616 570.42C354.4 570.42 357.07 571.473 359.039 573.348C361.007 575.223 362.113 577.766 362.113 580.417Z" fill="#FED16D"/>
<path d="M357.586 586.144C356.81 586.912 355.882 587.52 354.856 587.933C353.83 588.347 352.728 588.556 351.616 588.548C350.514 588.55 349.422 588.339 348.406 587.926C347.39 587.513 346.471 586.907 345.703 586.144C344.911 585.405 344.283 584.519 343.854 583.54C343.425 582.561 343.205 581.509 343.208 580.447C343.205 579.377 343.424 578.316 343.852 577.329C344.281 576.341 344.91 575.446 345.703 574.696C346.473 573.939 347.394 573.341 348.41 572.938C349.426 572.534 350.517 572.332 351.616 572.346C352.725 572.327 353.826 572.526 354.852 572.93C355.878 573.334 356.808 573.935 357.586 574.696C358.376 575.445 359 576.341 359.419 577.33C359.838 578.319 360.044 579.379 360.025 580.447C360.038 581.506 359.828 582.557 359.409 583.536C358.99 584.515 358.37 585.402 357.586 586.144V586.144ZM361.79 570.471C360.457 569.18 358.872 568.158 357.125 567.462C355.379 566.767 353.506 566.413 351.616 566.42C349.714 566.423 347.831 566.787 346.074 567.491C344.318 568.196 342.723 569.226 341.38 570.525C338.654 573.16 337.12 576.727 337.113 580.447C337.133 584.147 338.666 587.691 341.38 590.309C342.722 591.609 344.317 592.642 346.073 593.347C347.83 594.053 349.713 594.417 351.616 594.42C354.71 594.413 357.696 593.328 360.025 591.367C360.083 592.094 360.421 592.774 360.972 593.274C361.524 593.773 362.25 594.055 363.007 594.065C363.415 594.069 363.821 593.994 364.198 593.843C364.575 593.692 364.917 593.469 365.203 593.188C365.775 592.62 366.1 591.864 366.113 591.072V580.345C366.059 576.641 364.508 573.103 361.79 570.483V570.471Z" fill="#79A3DC"/>
<path d="M685.582 493.849C684.807 494.645 683.879 495.276 682.853 495.704C681.827 496.132 680.725 496.348 679.613 496.339C678.511 496.341 677.419 496.122 676.403 495.694C675.388 495.266 674.469 494.639 673.701 493.849C672.91 493.083 672.282 492.167 671.854 491.154C671.425 490.142 671.205 489.053 671.206 487.954C671.204 486.845 671.423 485.746 671.852 484.722C672.28 483.698 672.909 482.77 673.701 481.991C674.472 481.21 675.393 480.592 676.409 480.175C677.425 479.758 678.515 479.55 679.613 479.564C680.721 479.543 681.821 479.748 682.847 480.165C683.873 480.582 684.804 481.204 685.582 481.991C686.372 482.768 686.995 483.698 687.414 484.723C687.833 485.748 688.04 486.847 688.02 487.954C688.035 489.05 687.826 490.138 687.407 491.151C686.988 492.165 686.367 493.082 685.582 493.849ZM689.785 477.615C688.452 476.279 686.867 475.22 685.121 474.499C683.375 473.779 681.503 473.412 679.613 473.42C677.711 473.424 675.828 473.801 674.072 474.532C672.316 475.263 670.721 476.331 669.379 477.678C666.653 480.406 665.119 484.101 665.113 487.954C665.131 491.785 666.664 495.454 669.379 498.162C670.721 499.508 672.316 500.577 674.072 501.308C675.828 502.038 677.711 502.416 679.613 502.42C682.706 502.413 685.692 501.29 688.02 499.258C688.078 500.012 688.415 500.717 688.967 501.235C689.518 501.753 690.244 502.047 691.001 502.059C691.41 502.062 691.816 501.983 692.193 501.826C692.57 501.669 692.912 501.437 693.197 501.144C693.773 500.559 694.102 499.774 694.113 498.953V487.83C694.055 483.993 692.502 480.33 689.785 477.615V477.615Z" fill="#6AC0AE"/>
</g>
<g clip-path="url(#clip1_2_145)">
<path d="M304.113 282.133V377.133H305.113V282.133" fill="#1D1D1B"/>
<path d="M304.113 -0.867188V282.133H305.113V-0.867188" fill="#1D1D1B"/>
<path d="M351.113 282.133V377.133H352.113V282.133" fill="#1D1D1B"/>
<path d="M351.113 93.1328V288.133H352.113V93.1328" fill="#1D1D1B"/>
<path d="M351.113 -0.867188V93.1328H352.113V-0.867188" fill="#1D1D1B"/>
<path d="M398.113 104.133V377.133H399.113V104.133" fill="#1D1D1B"/>
<path d="M398.113 -0.867188V106.133H399.113V-0.867188" fill="#1D1D1B"/>
<path d="M445.113 -0.867188V377.133H446.113V-0.867188" fill="#1D1D1B"/>
<path d="M492.113 140.133V377.133H493.113V140.133" fill="#1D1D1B"/>
<path d="M539.113 140.133V377.133H540.113V140.133" fill="#1D1D1B"/>
<path d="M586.113 140.133V377.133H587.113V140.133" fill="#1D1D1B"/>
<path d="M633.113 140.133V377.133H634.113V140.133" fill="#1D1D1B"/>
<path d="M680.422 139.965V377.484H681.032V139.965" fill="#1D1D1B"/>
<path d="M492.238 -1.86719V141.771H492.849V-1.86719" fill="#1D1D1B"/>
<path d="M539.279 -1.86719V139.964H539.89V-1.86719" fill="#1D1D1B"/>
<path d="M586.326 -1.86719V139.781H586.937V-1.86719" fill="#1D1D1B"/>
<path d="M633.375 -1.86719V139.964H633.986V-1.86719" fill="#1D1D1B"/>
<path d="M680.422 -1.86719V139.964H681.032V-1.86719" fill="#1D1D1B"/>
<path d="M267 93H728V92H267" fill="#1D1D1B"/>
<path d="M256.113 46.1328H728.113V45.1328H256.113" fill="#1D1D1B"/>
<path d="M256.113 140.133H728.113V139.133H256.113" fill="#1D1D1B"/>
<path d="M442.113 235.133H728.113V234.133H442.113" fill="#1D1D1B"/>
<path d="M225 187H728V186H225" fill="#1D1D1B"/>
<path d="M445.113 234.133H256.113V235.133H445.113" fill="#1D1D1B"/>
<path d="M239 282H728V281H239" fill="#1D1D1B"/>
<path d="M489.616 250.217V237.303L477.839 220.123C477.372 219.573 477.115 218.88 477.113 218.164C477.114 217.738 477.206 217.317 477.384 216.928C477.561 216.539 477.819 216.191 478.142 215.906C478.725 215.396 479.482 215.12 480.262 215.133C480.675 215.135 481.082 215.232 481.449 215.417C481.816 215.602 482.134 215.87 482.376 216.198L492.672 231.479L502.844 216.144C503.118 215.824 503.461 215.567 503.848 215.393C504.235 215.218 504.656 215.129 505.082 215.133C505.794 215.136 506.482 215.388 507.022 215.845C507.367 216.115 507.645 216.459 507.835 216.85C508.024 217.241 508.119 217.67 508.113 218.103C508.102 218.819 507.845 219.51 507.382 220.063L495.697 237.303V250.217C495.701 250.605 495.624 250.99 495.473 251.349C495.321 251.708 495.098 252.033 494.815 252.305C494.533 252.577 494.198 252.791 493.83 252.933C493.461 253.075 493.068 253.142 492.672 253.132C492.277 253.142 491.883 253.075 491.515 252.933C491.147 252.791 490.811 252.577 490.529 252.305C490.247 252.033 490.023 251.708 489.871 251.349C489.72 250.99 489.644 250.605 489.647 250.217H489.616Z" fill="#7743AB"/>
<path d="M367.485 95.4448H354.566L337.331 107.045C336.78 107.507 336.084 107.76 335.365 107.759C334.938 107.756 334.516 107.664 334.126 107.49C333.736 107.315 333.387 107.062 333.1 106.746C332.588 106.172 332.311 105.426 332.325 104.658C332.328 104.25 332.427 103.848 332.614 103.486C332.8 103.123 333.069 102.809 333.399 102.57L348.723 92.4349L333.338 82.4162C333.019 82.1448 332.763 81.807 332.588 81.4263C332.413 81.0456 332.323 80.6312 332.325 80.2122C332.326 79.5102 332.58 78.8321 333.039 78.3012C333.31 77.9621 333.655 77.6891 334.048 77.5029C334.44 77.3167 334.87 77.2223 335.304 77.2267C336.023 77.2374 336.717 77.4889 337.276 77.941L354.566 89.4494H367.509C367.899 89.4477 368.285 89.5242 368.644 89.6744C369.003 89.8247 369.329 90.0456 369.601 90.3241C369.873 90.6026 370.086 90.9329 370.228 91.2956C370.37 91.6582 370.438 92.0456 370.428 92.4349C370.438 92.8239 370.371 93.2111 370.228 93.5734C370.086 93.9356 369.873 94.2656 369.6 94.5436C369.328 94.8216 369.003 95.042 368.643 95.1916C368.284 95.3411 367.898 95.4169 367.509 95.4143L367.485 95.4448Z" fill="#7743AB"/>
<path d="M348.113 206.22V174.039C348.111 173.652 348.187 173.268 348.337 172.91C348.488 172.553 348.709 172.229 348.989 171.957C349.269 171.686 349.601 171.474 349.965 171.332C350.329 171.191 350.719 171.123 351.11 171.134C351.502 171.123 351.891 171.191 352.256 171.332C352.621 171.474 352.953 171.686 353.233 171.957C353.514 172.228 353.736 172.552 353.887 172.91C354.038 173.268 354.115 173.652 354.113 174.039V206.22C354.116 206.608 354.039 206.993 353.889 207.352C353.738 207.71 353.516 208.035 353.236 208.306C352.955 208.578 352.623 208.791 352.258 208.933C351.893 209.075 351.502 209.142 351.11 209.132C350.719 209.142 350.329 209.073 349.965 208.931C349.6 208.789 349.268 208.576 348.989 208.304C348.709 208.033 348.488 207.708 348.337 207.35C348.187 206.992 348.111 206.608 348.113 206.22Z" fill="#DB0032"/>
<path d="M650.13 96.1327H617.103C616.704 96.1354 616.309 96.059 615.942 95.9082C615.574 95.7575 615.24 95.5354 614.962 95.2552C614.683 94.975 614.464 94.6424 614.318 94.2772C614.173 93.9121 614.104 93.5219 614.114 93.1298C614.103 92.738 614.173 92.348 614.318 91.9832C614.464 91.6184 614.683 91.2862 614.962 91.0065C615.241 90.7268 615.574 90.5052 615.942 90.3552C616.31 90.2051 616.705 90.1295 617.103 90.1329H650.13C650.528 90.1303 650.922 90.2065 651.289 90.357C651.656 90.5074 651.989 90.7291 652.267 91.0087C652.545 91.2883 652.763 91.6202 652.909 91.9846C653.054 92.349 653.123 92.7385 653.112 93.1298C653.123 93.5213 653.054 93.9111 652.909 94.2758C652.764 94.6405 652.545 94.9728 652.267 95.253C651.989 95.5331 651.657 95.7553 651.289 95.9064C650.922 96.0576 650.528 96.1345 650.13 96.1327Z" fill="#E9458D"/>
<path d="M320.207 237.133H288.026C287.638 237.136 287.253 237.06 286.895 236.91C286.537 236.76 286.212 236.538 285.94 236.258C285.668 235.978 285.455 235.646 285.313 235.281C285.171 234.915 285.104 234.525 285.114 234.133C285.104 233.741 285.171 233.35 285.313 232.985C285.455 232.62 285.668 232.287 285.94 232.007C286.212 231.727 286.537 231.506 286.895 231.355C287.253 231.205 287.638 231.129 288.026 231.133H320.207C320.594 231.13 320.978 231.207 321.336 231.357C321.693 231.508 322.017 231.73 322.289 232.01C322.56 232.29 322.772 232.622 322.914 232.987C323.055 233.351 323.123 233.741 323.112 234.133C323.123 234.524 323.055 234.914 322.914 235.279C322.772 235.644 322.56 235.976 322.289 236.256C322.017 236.536 321.693 236.758 321.336 236.908C320.978 237.059 320.594 237.135 320.207 237.133V237.133Z" fill="#6AC0AE"/>
<path d="M605.244 143.235C604.979 143.523 604.658 143.751 604.301 143.905C603.944 144.06 603.559 144.137 603.171 144.132H586.081C585.691 144.142 585.303 144.067 584.945 143.912C584.586 143.758 584.264 143.527 584.002 143.235C583.435 142.662 583.116 141.885 583.114 141.074C583.104 140.68 583.177 140.288 583.33 139.926C583.484 139.563 583.713 139.239 584.002 138.974C584.566 138.44 585.308 138.14 586.081 138.133H603.146C603.537 138.13 603.925 138.205 604.287 138.355C604.649 138.505 604.977 138.726 605.254 139.005C605.53 139.285 605.748 139.617 605.896 139.983C606.043 140.349 606.117 140.741 606.113 141.136C606.112 141.528 606.032 141.917 605.879 142.278C605.725 142.639 605.501 142.964 605.219 143.235H605.244Z" fill="#DB0032"/>
<path d="M580.765 140.697C580.775 139.856 580.616 139.021 580.296 138.242C579.976 137.464 579.502 136.758 578.903 136.167C578.314 135.561 577.609 135.079 576.829 134.752C576.05 134.425 575.212 134.258 574.367 134.262C573.517 134.252 572.673 134.415 571.888 134.741C571.103 135.068 570.393 135.551 569.8 136.161C569.2 136.752 568.725 137.459 568.404 138.239C568.083 139.018 567.922 139.854 567.932 140.697C567.923 141.539 568.083 142.373 568.403 143.151C568.723 143.93 569.196 144.636 569.794 145.227C570.39 145.835 571.101 146.317 571.887 146.644C572.673 146.972 573.516 147.138 574.367 147.132C575.212 147.135 576.049 146.967 576.829 146.64C577.608 146.313 578.313 145.832 578.903 145.227C579.501 144.636 579.975 143.93 580.294 143.151C580.614 142.373 580.774 141.539 580.765 140.697V140.697Z" fill="#DB0032"/>
<path d="M732.694 281.392C732.706 280.553 732.55 279.721 732.235 278.943C731.921 278.165 731.454 277.457 730.862 276.862C730.272 276.257 729.567 275.777 728.788 275.449C728.008 275.122 727.171 274.955 726.326 274.958C725.475 274.947 724.631 275.11 723.846 275.438C723.06 275.766 722.35 276.25 721.759 276.862C721.159 277.453 720.684 278.159 720.363 278.937C720.042 279.715 719.882 280.551 719.891 281.392C719.881 282.235 720.041 283.07 720.361 283.85C720.681 284.629 721.155 285.336 721.753 285.929C722.349 286.537 723.06 287.019 723.846 287.346C724.632 287.673 725.475 287.839 726.326 287.834C727.17 287.837 728.007 287.67 728.785 287.342C729.563 287.015 730.268 286.534 730.856 285.929C731.456 285.336 731.93 284.63 732.251 283.85C732.572 283.071 732.733 282.235 732.724 281.392H732.694Z" fill="#E9458D"/>
<path d="M546.113 44.133C546.122 43.348 545.959 42.5695 545.634 41.8437C545.309 41.118 544.829 40.4601 544.222 39.9093C543.627 39.3436 542.914 38.8946 542.125 38.5893C541.337 38.2841 540.49 38.129 539.635 38.1333C538.773 38.1232 537.918 38.2749 537.122 38.5793C536.326 38.8837 535.606 39.3343 535.005 39.9036C534.398 40.4559 533.918 41.1149 533.593 41.8414C533.268 42.568 533.105 43.3473 533.114 44.133C533.106 44.9178 533.269 45.6961 533.594 46.4217C533.919 47.1472 534.399 47.8053 535.005 48.3567C535.608 48.9236 536.329 49.373 537.124 49.6781C537.919 49.9832 538.773 50.1378 539.635 50.1327C540.49 50.1354 541.336 49.9795 542.124 49.6744C542.912 49.3692 543.626 48.9211 544.222 48.3567C544.828 47.8053 545.308 47.1472 545.633 46.4217C545.958 45.6961 546.121 44.9178 546.113 44.133V44.133Z" fill="#E9458D"/>
<path d="M452.2 187.812C452.209 186.971 452.049 186.137 451.729 185.358C451.409 184.58 450.936 183.874 450.338 183.282C449.749 182.676 449.044 182.195 448.264 181.867C447.485 181.54 446.647 181.373 445.802 181.377C444.951 181.367 444.106 181.53 443.32 181.856C442.534 182.183 441.822 182.666 441.229 183.276C440.636 183.871 440.168 184.579 439.853 185.359C439.539 186.138 439.384 186.972 439.397 187.812C439.384 188.652 439.54 189.485 439.854 190.263C440.169 191.041 440.636 191.748 441.229 192.342C441.824 192.95 442.536 193.432 443.322 193.76C444.107 194.087 444.951 194.253 445.802 194.247C446.646 194.25 447.482 194.084 448.261 193.756C449.039 193.429 449.744 192.948 450.332 192.342C450.931 191.751 451.405 191.045 451.726 190.267C452.047 189.489 452.208 188.654 452.2 187.812Z" fill="#E9458D"/>
<path d="M733.959 91.4042C733.968 90.5628 733.808 89.7282 733.488 88.95C733.168 88.1718 732.695 87.4658 732.097 86.8741C731.507 86.2688 730.801 85.7883 730.022 85.4611C729.243 85.1339 728.405 84.9666 727.56 84.9692C726.709 84.9586 725.865 85.1221 725.08 85.4496C724.295 85.7772 723.585 86.262 722.994 86.8741C722.395 87.4655 721.921 88.1713 721.6 88.9495C721.279 89.7277 721.117 90.5625 721.125 91.4042C721.117 92.2469 721.278 93.0827 721.599 93.862C721.92 94.6413 722.394 95.3481 722.994 95.9404C723.588 96.5477 724.299 97.0289 725.083 97.3551C725.868 97.6814 726.711 97.846 727.56 97.8391C728.405 97.8429 729.242 97.6768 730.021 97.3506C730.801 97.0244 731.506 96.5448 732.097 95.9404C732.695 95.3478 733.169 94.6408 733.488 93.8615C733.808 93.0822 733.968 92.2465 733.959 91.4042V91.4042Z" fill="#7743AB"/>
<path d="M357.826 45.3768C357.835 44.5349 357.674 43.6999 357.353 42.9215C357.032 42.1432 356.558 41.4375 355.958 40.8467C355.37 40.2392 354.664 39.7572 353.885 39.4298C353.105 39.1024 352.267 38.9364 351.422 38.9419C350.571 38.9315 349.728 39.0945 348.943 39.421C348.158 39.7474 347.447 40.2304 346.855 40.8406C346.255 41.4329 345.781 42.1397 345.46 42.919C345.139 43.6983 344.978 44.5341 344.987 45.3768C344.979 46.2186 345.14 47.0533 345.461 47.8315C345.782 48.6097 346.256 49.3155 346.855 49.9069C347.45 50.5142 348.16 50.9958 348.945 51.323C349.729 51.6502 350.572 51.8164 351.422 51.8117C352.267 51.8144 353.104 51.6471 353.883 51.3199C354.662 50.9927 355.368 50.5122 355.958 49.9069C356.557 49.3155 357.031 48.6097 357.352 47.8315C357.673 47.0533 357.834 46.2186 357.826 45.3768V45.3768Z" fill="#E9458D"/>
<path d="M262.834 46.7811C262.842 45.9398 262.682 45.1054 262.362 44.3273C262.042 43.5491 261.569 42.8431 260.972 42.251C260.382 41.6457 259.676 41.1652 258.897 40.838C258.118 40.5107 257.281 40.3435 256.435 40.3461C255.584 40.3363 254.74 40.4996 253.954 40.826C253.168 41.1524 252.456 41.6351 251.863 42.2449C251.264 42.8377 250.791 43.5447 250.471 44.324C250.151 45.1032 249.991 45.9388 250 46.7811C249.991 47.6224 250.151 48.457 250.471 49.2353C250.791 50.0135 251.264 50.7195 251.863 51.3112C252.458 51.9192 253.17 52.4012 253.955 52.7284C254.741 53.0557 255.584 53.2215 256.435 53.216C257.28 53.2192 258.116 53.0522 258.894 52.7249C259.673 52.3976 260.377 51.9168 260.965 51.3112C261.564 50.7198 262.039 50.014 262.359 49.2358C262.68 48.4576 262.842 47.6228 262.834 46.7811V46.7811Z" fill="#6AC0AE"/>
<path d="M690.113 188.136C690.113 190.787 689.007 193.33 687.039 195.205C685.07 197.08 682.4 198.133 679.616 198.133C676.832 198.133 674.161 197.08 672.192 195.205C670.222 193.33 669.115 190.788 669.113 188.136C669.113 185.483 670.22 182.939 672.19 181.063C674.159 179.187 676.831 178.133 679.616 178.133C680.995 178.133 682.361 178.392 683.635 178.894C684.909 179.397 686.066 180.134 687.041 181.063C688.016 181.992 688.789 183.095 689.316 184.308C689.843 185.522 690.114 186.822 690.113 188.136Z" fill="#FED16D"/>
<path d="M455.113 43.1358C455.114 44.4489 454.856 45.7492 454.354 46.9624C453.852 48.1757 453.115 49.2781 452.187 50.2065C451.259 51.135 450.156 51.8713 448.943 52.3735C447.73 52.8756 446.429 53.1336 445.116 53.1328C443.803 53.1336 442.502 52.8756 441.289 52.3736C440.075 51.8715 438.972 51.1353 438.044 50.2069C437.115 49.2785 436.378 48.1762 435.875 46.9629C435.372 45.7496 435.113 44.4492 435.113 43.1358C435.113 40.4829 436.167 37.9386 438.043 36.0626C439.919 34.1867 442.463 33.1328 445.116 33.1328C446.43 33.1328 447.73 33.3916 448.943 33.8944C450.157 34.3971 451.259 35.1341 452.187 36.063C453.116 36.9919 453.852 38.0947 454.354 39.3083C454.856 40.5219 455.114 41.8225 455.113 43.1358Z" fill="#FED16D"/>
<path d="M451.586 49.8692C450.811 50.6378 449.883 51.2471 448.857 51.6603C447.831 52.0735 446.728 52.282 445.616 52.2732C444.514 52.276 443.422 52.0646 442.405 51.6516C441.389 51.2385 440.47 50.6323 439.703 49.8692C438.91 49.1304 438.281 48.2448 437.852 47.2658C437.423 46.2868 437.204 45.2345 437.208 44.1719C437.205 43.1013 437.424 42.041 437.852 41.0533C438.281 40.0656 438.91 39.1704 439.703 38.4204C440.474 37.6657 441.395 37.0689 442.411 36.6661C443.427 36.2633 444.518 36.0628 445.616 36.0766C446.724 36.0568 447.825 36.2545 448.851 36.6574C449.878 37.0603 450.808 37.6602 451.586 38.4204C452.376 39.1698 453 40.066 453.419 41.0547C453.838 42.0435 454.044 43.104 454.025 44.1719C454.039 45.231 453.83 46.2818 453.411 47.261C452.992 48.2402 452.371 49.1275 451.586 49.8692V49.8692ZM455.853 34.2436C454.511 32.9439 452.916 31.9118 451.159 31.2065C449.403 30.5011 447.519 30.1363 445.616 30.1328C443.713 30.1363 441.83 30.5011 440.074 31.2065C438.317 31.9118 436.722 32.9439 435.38 34.2436C432.654 36.8762 431.12 40.4412 431.113 44.1599C431.116 45.9934 431.494 47.8085 432.226 49.5009C432.958 51.1933 434.03 52.7298 435.38 54.0221C436.722 55.3218 438.317 56.3538 440.074 57.0591C441.83 57.7645 443.713 58.1293 445.616 58.1328C447.519 58.1293 449.403 57.7645 451.159 57.0591C452.916 56.3538 454.511 55.3218 455.853 54.0221C457.201 52.7285 458.271 51.1917 459.002 49.4995C459.733 47.8072 460.111 45.9928 460.113 44.1599C460.106 40.4424 458.575 36.8783 455.853 34.2436V34.2436Z" fill="#6AC0AE"/>
<path d="M502.113 139.13C502.113 141.783 501.059 144.327 499.183 146.203C497.307 148.079 494.763 149.133 492.11 149.133C489.458 149.131 486.916 148.077 485.041 146.201C483.166 144.325 482.113 141.782 482.113 139.13C482.115 136.479 483.169 133.937 485.043 132.063C486.917 130.188 489.459 129.134 492.11 129.133C494.762 129.133 497.306 130.186 499.181 132.06C501.057 133.935 502.112 136.478 502.113 139.13V139.13Z" fill="#FED16D"/>
<path d="M497.88 145.574C497.131 146.37 496.233 147 495.241 147.428C494.25 147.856 493.185 148.072 492.11 148.064C491.046 148.066 489.993 147.847 489.013 147.419C488.033 146.992 487.147 146.364 486.407 145.574C485.642 144.809 485.035 143.893 484.621 142.88C484.207 141.868 483.995 140.779 483.998 139.68C483.995 138.571 484.206 137.473 484.62 136.45C485.034 135.427 485.641 134.499 486.407 133.723C487.148 132.939 488.036 132.319 489.017 131.901C489.997 131.482 491.05 131.274 492.11 131.289C493.181 131.27 494.245 131.476 495.237 131.895C496.228 132.313 497.128 132.935 497.88 133.723C498.641 134.5 499.241 135.429 499.645 136.452C500.049 137.476 500.247 138.574 500.229 139.68C500.241 140.775 500.04 141.861 499.636 142.874C499.233 143.887 498.635 144.805 497.88 145.574V145.574ZM501.994 129.39C500.698 128.044 499.158 126.975 497.462 126.245C495.766 125.514 493.948 125.136 492.11 125.133C490.273 125.136 488.454 125.514 486.759 126.245C485.063 126.975 483.523 128.044 482.227 129.39C479.599 132.122 478.121 135.815 478.113 139.667C478.121 143.501 479.6 147.175 482.227 149.881C484.846 152.596 488.401 154.125 492.11 154.133C495.82 154.125 499.375 152.596 501.994 149.881C503.296 148.542 504.331 146.951 505.037 145.198C505.744 143.445 506.11 141.566 506.113 139.667C506.107 135.814 504.626 132.119 501.994 129.39V129.39Z" fill="#E9458D"/>
<path d="M314.113 139.13C314.113 141.782 313.06 144.325 311.186 146.201C309.311 148.077 306.768 149.131 304.116 149.133C301.463 149.133 298.919 148.079 297.043 146.203C295.167 144.327 294.113 141.783 294.113 139.13C294.115 136.478 295.169 133.935 297.045 132.06C298.921 130.186 301.464 129.133 304.116 129.133C306.767 129.134 309.309 130.188 311.183 132.063C313.058 133.937 314.112 136.479 314.113 139.13Z" fill="#FED16D"/>
<path d="M310.205 145.253C309.447 146.034 308.538 146.653 307.534 147.072C306.53 147.492 305.451 147.704 304.363 147.695C303.283 147.698 302.214 147.484 301.22 147.064C300.225 146.644 299.326 146.028 298.575 145.253C297.8 144.503 297.184 143.604 296.765 142.611C296.345 141.617 296.13 140.55 296.133 139.471C296.13 138.384 296.344 137.306 296.764 136.303C297.183 135.3 297.799 134.39 298.575 133.628C299.328 132.86 300.23 132.253 301.225 131.842C302.219 131.432 303.287 131.228 304.363 131.241C305.448 131.222 306.525 131.424 307.529 131.835C308.534 132.245 309.444 132.855 310.205 133.628C310.979 134.39 311.589 135.3 311.999 136.304C312.41 137.309 312.611 138.386 312.593 139.471C312.607 140.546 312.403 141.613 311.993 142.607C311.582 143.601 310.974 144.501 310.205 145.253V145.253ZM314.381 129.379C313.068 128.059 311.507 127.01 309.788 126.294C308.069 125.577 306.225 125.207 304.363 125.203C302.5 125.207 300.657 125.577 298.938 126.294C297.218 127.01 295.658 128.059 294.344 129.379C291.676 132.056 290.174 135.679 290.168 139.459C290.171 141.321 290.542 143.165 291.259 144.884C291.975 146.603 293.024 148.164 294.344 149.478C296.999 152.14 300.603 153.64 304.363 153.647C308.123 153.64 311.726 152.14 314.381 149.478C317.044 146.823 318.544 143.219 318.551 139.459C318.544 135.681 317.045 132.058 314.381 129.379V129.379Z" fill="#E9458D"/>
<path d="M644.113 282.13C644.113 284.782 643.008 287.325 641.039 289.201C639.071 291.077 636.401 292.131 633.616 292.133C630.831 292.133 628.159 291.079 626.189 289.203C624.22 287.327 623.113 284.783 623.113 282.13C623.115 279.478 624.222 276.935 626.192 275.061C628.161 273.186 630.832 272.133 633.616 272.133C636.4 272.134 639.069 273.188 641.037 275.063C643.005 276.937 644.112 279.479 644.113 282.13V282.13Z" fill="#FED16D"/>
<path d="M639.552 288.646C638.782 289.409 637.869 290.012 636.865 290.422C635.861 290.832 634.787 291.039 633.703 291.033C632.62 291.04 631.546 290.832 630.543 290.422C629.541 290.013 628.629 289.409 627.86 288.646C627.088 287.881 626.474 286.971 626.055 285.969C625.636 284.966 625.419 283.89 625.418 282.803C625.415 281.716 625.629 280.639 626.049 279.635C626.468 278.632 627.084 277.722 627.86 276.96C628.621 276.187 629.532 275.577 630.536 275.167C631.541 274.756 632.618 274.554 633.703 274.573C634.789 274.554 635.867 274.756 636.872 275.166C637.878 275.577 638.789 276.187 639.552 276.96C640.324 277.722 640.933 278.633 641.343 279.637C641.752 280.642 641.953 281.719 641.933 282.803C641.942 283.886 641.737 284.96 641.328 285.963C640.919 286.966 640.316 287.878 639.552 288.646ZM643.722 272.73C642.409 271.408 640.848 270.359 639.129 269.642C637.409 268.926 635.565 268.556 633.703 268.554C630.731 268.575 627.839 269.511 625.418 271.234V261.398C625.421 261.008 625.345 260.622 625.195 260.262C625.045 259.902 624.824 259.576 624.546 259.303C624.267 259.03 623.936 258.816 623.573 258.673C623.21 258.531 622.822 258.463 622.433 258.474C622.043 258.463 621.655 258.531 621.293 258.673C620.93 258.816 620.6 259.03 620.322 259.303C620.044 259.576 619.823 259.902 619.674 260.262C619.525 260.622 619.45 261.009 619.453 261.398V293.719C619.451 294.109 619.526 294.494 619.676 294.853C619.826 295.213 620.046 295.538 620.324 295.811C620.602 296.083 620.932 296.296 621.294 296.438C621.656 296.581 622.044 296.648 622.433 296.638C623.121 296.645 623.791 296.411 624.325 295.976C624.859 295.541 625.224 294.933 625.357 294.257C627.768 296.05 630.697 297.012 633.703 296.998C635.565 296.996 637.409 296.626 639.129 295.909C640.848 295.192 642.409 294.143 643.722 292.822C645.042 291.508 646.09 289.947 646.807 288.228C647.523 286.509 647.894 284.666 647.898 282.803C647.901 280.932 647.533 279.078 646.816 277.349C646.1 275.62 645.048 274.05 643.722 272.73V272.73Z" fill="#E9458D"/>
<path d="M644.113 44.1268C644.113 46.7795 643.008 49.3237 641.039 51.2C639.071 53.0763 636.401 54.1312 633.616 54.1328C630.831 54.1328 628.159 53.0786 626.189 51.2021C624.22 49.3256 623.113 46.7805 623.113 44.1268C623.117 41.4751 624.225 38.9331 626.194 37.0592C628.163 35.1854 630.833 34.1328 633.616 34.1328C636.4 34.1344 639.069 35.1885 641.037 37.0635C643.005 38.9385 644.112 41.4811 644.113 44.1328V44.1268Z" fill="#FED16D"/>
<path d="M639.586 49.8573C638.811 50.6258 637.883 51.2351 636.857 51.6483C635.831 52.0615 634.728 52.27 633.616 52.2612C632.513 52.2647 631.421 52.0536 630.405 51.6406C629.389 51.2275 628.47 50.6209 627.703 49.8573C626.91 49.1184 626.281 48.2329 625.852 47.2539C625.423 46.2749 625.204 45.2225 625.208 44.1599C625.205 43.0894 625.424 42.0291 625.852 41.0414C626.281 40.0537 626.91 39.1585 627.703 38.4085C628.473 37.6524 629.394 37.0544 630.41 36.6505C631.426 36.2466 632.517 36.0453 633.616 36.0586C634.725 36.0401 635.826 36.2388 636.852 36.6427C637.878 37.0467 638.808 37.6474 639.586 38.4085C640.375 39.1581 640.998 40.0546 641.416 41.0433C641.834 42.032 642.039 43.0924 642.019 44.1599C642.035 45.2188 641.828 46.27 641.41 47.2494C640.992 48.2288 640.371 49.116 639.586 49.8573V49.8573ZM643.79 34.1836C642.457 32.8931 640.872 31.8705 639.125 31.1752C637.379 30.4798 635.506 30.1255 633.616 30.1329C631.713 30.1351 629.829 30.4993 628.073 31.2048C626.316 31.9102 624.721 32.9429 623.38 34.2437C620.653 36.8755 619.119 40.441 619.113 44.1599C619.131 47.8605 620.665 51.4046 623.38 54.0221C624.721 55.3228 626.316 56.3556 628.073 57.061C629.829 57.7664 631.713 58.1307 633.616 58.1328C636.708 58.1262 639.693 57.0417 642.019 55.0798C642.079 55.8071 642.419 56.4865 642.971 56.9855C643.524 57.4845 644.25 57.7671 645.007 57.7782C645.415 57.7824 645.821 57.7068 646.198 57.556C646.575 57.4052 646.917 57.1823 647.203 56.9008C647.775 56.3331 648.1 55.5765 648.113 54.7853V44.0517C648.054 40.3488 646.504 36.8128 643.79 34.1896V34.1836Z" fill="#79A3DC"/>
<path d="M362.113 280.13C362.113 282.782 361.008 285.325 359.039 287.201C357.071 289.077 354.401 290.131 351.616 290.133C350.237 290.133 348.871 289.874 347.597 289.371C346.323 288.869 345.165 288.132 344.19 287.203C343.214 286.274 342.441 285.171 341.913 283.958C341.385 282.744 341.113 281.443 341.113 280.13C341.113 278.816 341.385 277.516 341.913 276.303C342.441 275.089 343.215 273.987 344.19 273.059C345.165 272.13 346.323 271.394 347.598 270.892C348.872 270.39 350.237 270.132 351.616 270.133C354.4 270.133 357.07 271.186 359.039 273.061C361.007 274.936 362.113 277.478 362.113 280.13Z" fill="#FED16D"/>
<path d="M357.586 285.857C356.81 286.625 355.882 287.233 354.856 287.646C353.83 288.059 352.728 288.269 351.616 288.261C350.514 288.263 349.422 288.052 348.406 287.639C347.39 287.226 346.471 286.62 345.703 285.857C344.911 285.118 344.283 284.232 343.854 283.253C343.425 282.274 343.205 281.222 343.208 280.16C343.205 279.089 343.424 278.029 343.852 277.041C344.281 276.054 344.91 275.158 345.703 274.408C346.473 273.652 347.394 273.054 348.41 272.651C349.426 272.247 350.517 272.045 351.616 272.059C352.725 272.04 353.826 272.239 354.852 272.643C355.878 273.047 356.808 273.647 357.586 274.408C358.376 275.158 359 276.054 359.419 277.043C359.838 278.031 360.044 279.092 360.025 280.16C360.038 281.219 359.828 282.269 359.409 283.248C358.99 284.228 358.37 285.115 357.586 285.857V285.857ZM361.79 270.184C360.457 268.893 358.872 267.87 357.125 267.175C355.379 266.48 353.506 266.126 351.616 266.133C349.714 266.136 347.831 266.5 346.074 267.204C344.318 267.909 342.723 268.939 341.38 270.238C338.654 272.872 337.12 276.439 337.113 280.16C337.133 283.86 338.666 287.404 341.38 290.022C342.722 291.322 344.317 292.355 346.073 293.06C347.83 293.765 349.713 294.13 351.616 294.133C354.71 294.125 357.696 293.041 360.025 291.08C360.083 291.807 360.421 292.487 360.972 292.987C361.524 293.486 362.25 293.768 363.007 293.778C363.415 293.782 363.821 293.707 364.198 293.556C364.575 293.405 364.917 293.182 365.203 292.901C365.775 292.333 366.1 291.576 366.113 290.785V280.058C366.059 276.354 364.508 272.816 361.79 270.196V270.184Z" fill="#79A3DC"/>
<path d="M685.582 193.562C684.807 194.358 683.879 194.989 682.853 195.417C681.827 195.845 680.725 196.061 679.613 196.052C678.511 196.054 677.419 195.834 676.403 195.407C675.388 194.979 674.469 194.351 673.701 193.562C672.91 192.796 672.282 191.88 671.854 190.867C671.425 189.855 671.205 188.766 671.206 187.667C671.204 186.558 671.423 185.459 671.852 184.435C672.28 183.411 672.909 182.482 673.701 181.704C674.472 180.923 675.393 180.305 676.409 179.888C677.425 179.471 678.515 179.263 679.613 179.276C680.721 179.256 681.821 179.461 682.847 179.878C683.873 180.295 684.804 180.917 685.582 181.704C686.372 182.481 686.995 183.411 687.414 184.436C687.833 185.461 688.04 186.56 688.02 187.667C688.035 188.763 687.826 189.851 687.407 190.864C686.988 191.878 686.367 192.795 685.582 193.562ZM689.785 177.328C688.452 175.992 686.867 174.933 685.121 174.212C683.375 173.492 681.503 173.125 679.613 173.133C677.711 173.137 675.828 173.514 674.072 174.245C672.316 174.975 670.721 176.044 669.379 177.39C666.653 180.119 665.119 183.814 665.113 187.667C665.131 191.498 666.664 195.167 669.379 197.875C670.721 199.221 672.316 200.29 674.072 201.021C675.828 201.751 677.711 202.129 679.613 202.133C682.706 202.126 685.692 201.003 688.02 198.971C688.078 199.725 688.415 200.43 688.967 200.948C689.518 201.466 690.244 201.76 691.001 201.772C691.41 201.775 691.816 201.696 692.193 201.539C692.57 201.381 692.912 201.149 693.197 200.857C693.773 200.272 694.102 199.487 694.113 198.666V187.543C694.055 183.706 692.502 180.043 689.785 177.328V177.328Z" fill="#6AC0AE"/>
</g>
<defs>
<clipPath id="clip0_2_145">
<rect width="734" height="300" fill="white" transform="translate(0 300.287)"/>
</clipPath>
<clipPath id="clip1_2_145">
<rect width="734" height="300" fill="white"/>
</clipPath>
</defs>
</svg>
