<svg width="201" height="51" viewBox="0 0 201 51" fill="none" xmlns="http://www.w3.org/2000/svg">
<mask id="mask0_1_2007" style="mask-type:luminance" maskUnits="userSpaceOnUse" x="0" y="0" width="201" height="51">
<path d="M16.0625 45.9397V29.0944L0.922074 6.65484C0.263718 5.86519 -0.063138 4.85115 0.0101107 3.82567C0.0833593 2.80019 0.551016 1.84301 1.31492 1.15495C2.05658 0.484482 3.02598 0.121984 4.02559 0.141372C4.55653 0.145612 5.07907 0.274446 5.55121 0.517341C6.02336 0.760235 6.43193 1.11044 6.7441 1.53994L19.9438 21.4966L32.9864 1.46129C33.3393 1.04549 33.7788 0.71198 34.2742 0.483964C34.7696 0.255947 35.3088 0.138995 35.8542 0.141372C36.7675 0.143467 37.6492 0.475471 38.337 1.07631C38.7797 1.42796 39.1359 1.87646 39.3784 2.38721C39.6208 2.89795 39.743 3.45736 39.7355 4.02267C39.7236 4.95648 39.397 5.85896 38.8084 6.58406L23.8252 29.1023V45.9397C23.8252 46.9691 23.4162 47.9564 22.6883 48.6843C21.9604 49.4122 20.9732 49.821 19.9438 49.821C18.9144 49.821 17.9272 49.4122 17.1993 48.6843C16.4714 47.9564 16.0625 46.9691 16.0625 45.9397ZM42.4541 44.7769C39.4604 41.7618 37.604 37.8025 37.2007 33.5728C36.7975 29.3432 37.8723 25.1044 40.2422 21.5779C42.6121 18.0514 46.1308 15.4552 50.1994 14.2308C54.268 13.0064 58.6352 13.2294 62.5577 14.8623C66.4803 16.4951 69.7159 19.4368 71.7139 23.1865C73.712 26.9363 74.349 31.2624 73.5166 35.4289C72.6842 39.5954 70.4338 43.3449 67.1484 46.0391C63.863 48.7333 59.7455 50.2057 55.4966 50.206C53.0714 50.2007 50.671 49.717 48.433 48.7827C46.195 47.8484 44.1632 46.4818 42.4541 44.7612V44.7769ZM63.1022 39.277C64.0963 38.2834 64.885 37.1037 65.4232 35.8053C65.9615 34.5068 66.2387 33.1151 66.239 31.7095C66.2394 30.304 65.9629 28.9123 65.4254 27.6136C64.8878 26.3149 64.0997 25.1346 63.1061 24.1404C62.1125 23.1463 60.9328 22.3576 59.6344 21.8194C58.336 21.2812 56.9443 21.0042 55.5387 21.0038C54.1332 21.0034 52.7413 21.2798 51.4426 21.8173C50.1439 22.3549 48.9638 23.143 47.9697 24.1366C46.9582 25.1292 46.1556 26.3143 45.6092 27.6218C45.0627 28.9293 44.7833 30.3328 44.7876 31.75C44.7862 33.8727 45.4162 35.9479 46.5973 37.7116C47.7785 39.4753 49.4576 40.8479 51.4209 41.6548C53.3843 42.4617 55.5433 42.6666 57.6233 42.2431C59.7034 41.8197 61.6105 40.7872 63.1022 39.277ZM83.0196 45.9555V3.8813C83.0196 2.8519 83.4286 1.86462 84.1565 1.13673C84.8843 0.408836 85.8716 0 86.901 0C87.9304 0 88.9176 0.408836 89.6455 1.13673C90.3734 1.86462 90.7823 2.8519 90.7823 3.8813V45.9397C90.7823 46.9691 90.3734 47.9564 89.6455 48.6843C88.9176 49.4122 87.9304 49.821 86.901 49.821C85.8716 49.821 84.8843 49.4122 84.1565 48.6843C83.4286 47.9564 83.0196 46.9691 83.0196 45.9397V45.9555ZM103.542 7.84125C103.125 7.44627 102.793 6.97057 102.566 6.44307C102.34 5.91556 102.223 5.34729 102.223 4.77308C102.223 4.19886 102.34 3.63078 102.566 3.10328C102.793 2.57577 103.125 2.09988 103.542 1.7049C103.937 1.30362 104.41 0.986798 104.931 0.773421C105.452 0.560044 106.012 0.454681 106.575 0.463631C107.705 0.475903 108.787 0.919948 109.6 1.7049C110.395 2.5282 110.84 3.62828 110.84 4.77308C110.84 5.91787 110.395 7.01795 109.6 7.84125C108.785 8.6235 107.704 9.06728 106.575 9.08271C106.01 9.08576 105.45 8.97457 104.929 8.75585C104.407 8.53713 103.936 8.21529 103.542 7.80979V7.84125ZM103.856 48.5953C103.483 48.2485 103.187 47.8276 102.987 47.3594C102.787 46.8912 102.687 46.386 102.693 45.8768V23.5709C102.679 23.0607 102.776 22.5533 102.976 22.0839C103.177 21.6146 103.477 21.1945 103.856 20.8524C104.222 20.4832 104.658 20.1902 105.138 19.9906C105.618 19.791 106.133 19.6887 106.653 19.6896C107.162 19.6758 107.668 19.7726 108.136 19.9733C108.604 20.1741 109.023 20.4741 109.364 20.8524C110.056 21.59 110.445 22.56 110.456 23.5709V45.8768C110.461 46.388 110.365 46.8951 110.171 47.3684C109.978 47.8417 109.693 48.2716 109.331 48.6331C108.97 48.9945 108.54 49.2803 108.066 49.4734C107.593 49.6666 107.086 49.7636 106.575 49.7583C106.064 49.7545 105.56 49.6466 105.093 49.4412C104.625 49.2359 104.205 48.9374 103.856 48.564V48.5953ZM128.739 46.6546C128.575 47.5415 128.104 48.3426 127.409 48.9172C126.714 49.4918 125.839 49.8033 124.937 49.7974C124.43 49.8101 123.926 49.7211 123.455 49.5354C122.983 49.3498 122.554 49.0713 122.192 48.7167C121.83 48.3621 121.543 47.9386 121.348 47.471C121.152 47.0035 121.053 46.5015 121.055 45.9948V3.92062C121.055 2.89123 121.464 1.90395 122.192 1.17605C122.92 0.448159 123.907 0.0393233 124.937 0.0393233C125.966 0.0393233 126.953 0.448159 127.681 1.17605C128.409 1.90395 128.818 2.89123 128.818 3.92062V16.7275C131.972 14.4813 135.741 13.2606 139.613 13.2312C144.458 13.331 149.07 15.3254 152.461 18.7867C155.852 22.2481 157.751 26.9007 157.751 31.7461C157.751 36.5916 155.852 41.244 152.461 44.7054C149.07 48.1667 144.458 50.1613 139.613 50.2611C135.701 50.2543 131.896 48.9778 128.771 46.6234L128.739 46.6546ZM147.219 39.3557C148.213 38.3556 148.999 37.1686 149.531 35.8632C150.064 34.5578 150.333 33.1598 150.322 31.75C150.313 29.6317 149.678 27.5635 148.498 25.8043C147.318 24.0451 145.645 22.6731 143.689 21.8603C141.733 21.0475 139.58 20.8298 137.501 21.2347C135.422 21.6397 133.508 22.6491 132 24.1366C130.99 25.1303 130.188 26.3155 129.642 27.6228C129.096 28.93 128.815 30.3331 128.818 31.75C128.84 33.872 129.485 35.9408 130.674 37.6987C131.863 39.4567 133.543 40.8264 135.504 41.637C137.465 42.4476 139.621 42.6636 141.704 42.2579C143.787 41.8523 145.705 40.843 147.219 39.3557ZM169.494 44.7926C166.911 42.2052 165.152 38.9113 164.439 35.3261C163.725 31.7408 164.088 28.0246 165.483 24.6455C166.878 21.2664 169.241 18.3756 172.276 16.3374C175.311 14.2992 178.881 13.2047 182.536 13.1919C184.944 13.1829 187.33 13.6518 189.555 14.5717C191.781 15.4915 193.801 16.8437 195.5 18.5502C198.957 22.0186 200.93 26.6961 201 31.5929V45.7984C200.984 46.8465 200.565 47.8481 199.829 48.5953C199.311 49.1252 198.651 49.4944 197.928 49.6582C197.205 49.822 196.45 49.7736 195.754 49.5189C195.058 49.2642 194.45 48.8139 194.004 48.2222C193.557 47.6305 193.291 46.9226 193.237 46.1833C190.269 48.7787 186.463 50.213 182.52 50.2217C177.626 50.1992 172.941 48.2353 169.494 44.7612V44.7926ZM190.142 39.2928C192.149 37.2861 193.278 34.5639 193.278 31.7252C193.279 28.8866 192.152 26.1639 190.146 24.1562C188.139 22.1484 185.417 21.0201 182.578 21.0193C179.74 21.0186 177.017 22.1456 175.009 24.1523C173.998 25.145 173.195 26.3298 172.649 27.6373C172.102 28.9449 171.823 30.3486 171.827 31.7657C171.826 33.8884 172.456 35.9636 173.637 37.7273C174.818 39.491 176.497 40.8637 178.46 41.6706C180.424 42.4775 182.583 42.6823 184.663 42.2589C186.743 41.8355 188.65 40.803 190.142 39.2928Z" fill="white"/>
</mask>
<g mask="url(#mask0_1_2007)">
<path d="M286.881 -210H-200V276.881H286.881V-210Z" fill="#DB0032"/>
</g>
</svg>
