<svg width="25" height="21" viewBox="0 0 25 21" fill="none" xmlns="http://www.w3.org/2000/svg">
<path d="M24.5049 19.9028V19.9542H24.5515C24.5602 19.9543 24.5689 19.9521 24.5765 19.9476C24.5795 19.9454 24.582 19.9424 24.5836 19.939C24.5852 19.9356 24.586 19.9318 24.5858 19.928C24.586 19.9242 24.5852 19.9205 24.5836 19.9171C24.5819 19.9138 24.5795 19.9109 24.5765 19.9088C24.5689 19.9041 24.5602 19.9019 24.5515 19.9022H24.5049V19.9028ZM24.552 19.8664C24.572 19.8651 24.5917 19.871 24.608 19.8831C24.6145 19.8886 24.6196 19.8955 24.623 19.9034C24.6264 19.9113 24.628 19.92 24.6276 19.9286C24.6279 19.936 24.6266 19.9434 24.6239 19.9503C24.6212 19.9572 24.6171 19.9634 24.6118 19.9686C24.5993 19.9798 24.5836 19.9865 24.5671 19.9877L24.6296 20.061H24.5815L24.524 19.9882H24.5054V20.061H24.4651V19.8665H24.5526L24.552 19.8664ZM24.5395 20.1281C24.5606 20.1283 24.5815 20.1239 24.6008 20.1152C24.6195 20.107 24.6365 20.0951 24.6508 20.0804C24.6652 20.0656 24.6767 20.0482 24.6847 20.029C24.7011 19.9882 24.7011 19.9425 24.6847 19.9017C24.6766 19.8826 24.6651 19.8651 24.6508 19.8503C24.6365 19.8356 24.6195 19.8238 24.6008 19.8155C24.5814 19.8073 24.5605 19.8032 24.5395 19.8034C24.5181 19.8032 24.4968 19.8073 24.477 19.8155C24.4579 19.8236 24.4406 19.8354 24.4259 19.8503C24.4038 19.8736 24.3888 19.9031 24.3829 19.9351C24.3769 19.9671 24.3803 20.0002 24.3925 20.0303C24.4001 20.0495 24.4115 20.067 24.4259 20.0817C24.4406 20.0966 24.4579 20.1084 24.477 20.1165C24.4967 20.1252 24.518 20.1295 24.5395 20.1294V20.1281ZM24.5395 19.7566C24.5944 19.7566 24.6472 19.7787 24.6863 19.8183C24.7052 19.8373 24.7203 19.86 24.7306 19.885C24.7413 19.9107 24.7468 19.9384 24.7468 19.9663C24.7468 19.9943 24.7413 20.0219 24.7306 20.0476C24.72 20.0725 24.705 20.0951 24.6863 20.1143C24.6672 20.1332 24.6448 20.1485 24.6205 20.1593C24.5949 20.1705 24.5673 20.1762 24.5395 20.176C24.5113 20.1762 24.4834 20.1705 24.4575 20.1593C24.4328 20.1487 24.4103 20.1334 24.3911 20.1143C24.3724 20.0944 24.3576 20.071 24.3475 20.0454C24.3368 20.0197 24.3313 19.9921 24.3313 19.9641C24.3313 19.9362 24.3368 19.9085 24.3475 19.8828C24.3578 19.8578 24.3729 19.8351 24.3917 19.8161C24.4107 19.7967 24.4333 19.7814 24.4581 19.7712C24.4841 19.7599 24.5119 19.7542 24.5401 19.7544L24.5395 19.7566ZM5.4019 19.0057C5.4019 18.6349 5.63812 18.3303 6.0242 18.3303C6.39315 18.3303 6.64212 18.6218 6.64212 19.0057C6.64212 19.3896 6.39315 19.6811 6.0242 19.6811C5.63812 19.6811 5.4019 19.3765 5.4019 19.0057ZM7.06269 19.0057V17.9505H6.61662V18.2075C6.47514 18.0176 6.26054 17.8984 5.9687 17.8984C5.39378 17.8984 4.94258 18.3621 4.94258 19.0062C4.94258 19.6502 5.39353 20.1139 5.9687 20.1139C6.26042 20.1139 6.47514 19.9947 6.61662 19.8048V20.061H7.06219V19.0057H7.06269ZM22.1348 19.0057C22.1348 18.6349 22.371 18.3303 22.7572 18.3303C23.1265 18.3303 23.3751 18.6218 23.3751 19.0057C23.3751 19.3896 23.1265 19.6811 22.7572 19.6811C22.3711 19.6811 22.1348 19.3765 22.1348 19.0057ZM23.7961 19.0057V17.1035H23.3496V18.2075C23.2081 18.0176 22.9935 17.8984 22.7017 17.8984C22.1268 17.8984 21.6756 18.3621 21.6756 19.0062C21.6756 19.6502 22.1265 20.1139 22.7017 20.1139C22.9935 20.1139 23.2081 19.9947 23.3496 19.8048V20.061H23.7961V19.0057ZM12.599 18.3086C12.8865 18.3086 13.0711 18.4939 13.1182 18.8202H12.0538C12.1014 18.5156 12.2813 18.3086 12.5991 18.3086H12.599ZM12.608 17.8973C12.0068 17.8973 11.5862 18.3471 11.5862 19.005C11.5862 19.6758 12.0237 20.1128 12.6379 20.1128C12.9468 20.1128 13.2298 20.0335 13.4788 19.8172L13.2602 19.4772C13.0882 19.6186 12.8692 19.6979 12.6634 19.6979C12.3759 19.6979 12.1142 19.561 12.0498 19.1812H13.573C13.5774 19.1242 13.5819 19.0666 13.5819 19.0049C13.5774 18.3472 13.1819 17.8971 12.6077 17.8971L12.608 17.8973ZM17.9933 19.0049C17.9933 18.6341 18.2295 18.3295 18.6156 18.3295C18.9846 18.3295 19.2335 18.621 19.2335 19.0049C19.2335 19.3888 18.9846 19.6803 18.6156 19.6803C18.2295 19.6803 17.9932 19.3757 17.9932 19.0049H17.9933ZM19.654 19.0049V17.9505H19.2081V18.2075C19.0662 18.0176 18.8521 17.8984 18.5602 17.8984C17.9853 17.8984 17.5341 18.3621 17.5341 19.0062C17.5341 19.6502 17.9851 20.1139 18.5602 20.1139C18.8521 20.1139 19.0662 19.9947 19.2081 19.8048V20.061H19.6541V19.0057L19.654 19.0049ZM15.4742 19.0049C15.4742 19.6448 15.9074 20.1126 16.5686 20.1126C16.8776 20.1126 17.0834 20.042 17.306 19.8611L17.0918 19.4903C16.9243 19.6141 16.7485 19.6803 16.5544 19.6803C16.1983 19.6758 15.9364 19.411 15.9364 19.0049C15.9364 18.5988 16.1983 18.3341 16.5544 18.3295C16.748 18.3295 16.9238 18.3957 17.0918 18.5195L17.306 18.1487C17.083 17.9678 16.8772 17.8971 16.5686 17.8971C15.9074 17.8971 15.4742 18.3648 15.4742 19.0049ZM21.2248 17.8971C20.9674 17.8971 20.7998 18.0209 20.684 18.2062V17.9505H20.2419V20.0598H20.6885V18.8774C20.6885 18.5283 20.8343 18.3344 21.1259 18.3344C21.2214 18.333 21.3162 18.351 21.4049 18.3875L21.5424 17.9551C21.4436 17.9151 21.3149 17.8975 21.2245 17.8975L21.2248 17.8971ZM9.26803 18.1182C9.05344 17.9727 8.75772 17.8975 8.43152 17.8975C7.91183 17.8975 7.57725 18.1537 7.57725 18.5728C7.57725 18.9167 7.82634 19.1289 8.28504 19.1951L8.49576 19.226C8.74035 19.2613 8.85584 19.3275 8.85584 19.4466C8.85584 19.6097 8.69336 19.7028 8.38827 19.7028C8.07931 19.7028 7.85634 19.6012 7.70598 19.4821L7.49639 19.8398C7.74098 20.0251 8.04994 20.1135 8.38452 20.1135C8.97695 20.1135 9.32028 19.8267 9.32028 19.425C9.32028 19.0542 9.05006 18.8603 8.60362 18.7941L8.3934 18.7628C8.2003 18.7371 8.04557 18.6971 8.04557 18.5557C8.04557 18.4015 8.19142 18.3087 8.43614 18.3087C8.69798 18.3087 8.95145 18.4102 9.07568 18.4895L9.26878 18.1187L9.26803 18.1182ZM15.0237 17.8979C14.7663 17.8979 14.5987 18.0217 14.4834 18.207V17.9505H14.0413V20.0598H14.4874V18.8774C14.4874 18.5283 14.6332 18.3344 14.9248 18.3344C15.0203 18.333 15.1151 18.351 15.2038 18.3875L15.3413 17.9551C15.2425 17.9151 15.1138 17.8975 15.0234 17.8975L15.0237 17.8979ZM11.2172 17.9505H10.4878V17.3106H10.0368V17.9505H9.62074V18.3697H10.0368V19.332C10.0368 19.8214 10.2215 20.1129 10.7492 20.1129C10.9428 20.1129 11.1658 20.0512 11.3073 19.9498L11.1784 19.557C11.0453 19.6363 10.8995 19.6763 10.7835 19.6763C10.5605 19.6763 10.4878 19.5349 10.4878 19.3232V18.3701H11.2172V17.9505ZM4.54813 20.0603V18.7365C4.54813 18.238 4.23917 17.9025 3.74111 17.8981C3.47927 17.8936 3.20918 17.9773 3.02008 18.2733C2.8786 18.0394 2.65562 17.8981 2.34216 17.8981C2.12307 17.8981 1.90897 17.9642 1.74137 18.2113V17.9505H1.29492V20.0598H1.74486V18.8903C1.74486 18.5241 1.94234 18.3295 2.2473 18.3295C2.54351 18.3295 2.69337 18.5281 2.69337 18.8856V20.0596H3.14431V18.89C3.14431 18.5238 3.35016 18.3292 3.64625 18.3292C3.95083 18.3292 4.09619 18.5278 4.09619 18.8854V20.0593L4.54813 20.0603Z" fill="white"/>
<path d="M24.7585 13.0448V12.7363H24.6803L24.59 12.948L24.5001 12.7363H24.4218V13.0448H24.4772V12.8124L24.5617 13.0129H24.6192L24.7037 12.8119V13.0448H24.7587H24.7585ZM24.2629 13.0448V12.7892H24.3629V12.7371H24.1074V12.7892H24.2074V13.0448H24.2624H24.2629Z" fill="white"/>
<path d="M15.881 14.3655H9.12109V1.87305H15.8811L15.881 14.3655Z" fill="white"/>
<path d="M9.54879 8.12074C9.54879 5.58664 10.7026 3.32925 12.4994 1.87449C11.1394 0.771686 9.45716 0.173158 7.72515 0.17579C3.45856 0.17579 0 3.73281 0 8.12074C0 12.5087 3.45856 16.0657 7.72515 16.0657C9.4572 16.0683 11.1394 15.4698 12.4995 14.367C10.7029 12.9125 9.54879 10.655 9.54879 8.12074Z" fill="white"/>
<path d="M25.0002 8.12074C25.0002 12.5087 21.5416 16.0657 17.275 16.0657C15.5428 16.0683 13.8604 15.4698 12.5 14.367C14.2973 12.9122 15.4511 10.655 15.4511 8.12074C15.4511 5.58651 14.2973 3.32925 12.5 1.87449C13.8603 0.771719 15.5427 0.173204 17.2749 0.17579C21.5415 0.17579 25 3.73281 25 8.12074" fill="white"/>
</svg>
