<svg width="20" height="22" viewBox="0 0 20 22" fill="none" xmlns="http://www.w3.org/2000/svg">
<g clip-path="url(#clip0_1_2271)">
<path d="M19.6531 20.9693C19.5606 20.7127 19.3929 20.5377 19.2715 20.3102C18.9767 19.9193 18.6299 19.581 18.2831 19.2427C18.1617 19.2018 18.1097 19.0852 17.9941 19.0385C17.9189 18.9393 17.7976 18.8868 17.6993 18.811C17.5028 18.6593 17.2889 18.531 17.0692 18.4027C16.653 18.1343 16.1386 17.9652 15.6299 17.7902C15.0808 17.656 14.5028 17.5568 13.9016 17.4752C13.3062 17.3877 12.7109 17.306 12.26 17.0668C11.9999 16.991 11.8091 16.8452 11.5837 16.7285C11.3756 16.5885 11.1502 16.4718 10.9768 16.2968C10.7629 16.1685 10.6299 15.9527 10.4623 15.7777C10.4045 15.661 10.3062 15.591 10.26 15.4627C10.2022 15.4393 10.1848 15.3693 10.1502 15.3285C10.1097 15.2818 10.1097 15.1885 10.0403 15.171C10.0057 15.4102 10.0172 15.696 10.0403 15.941C10.0692 16.046 10.0808 16.1743 10.1097 16.2793C10.127 16.3727 10.2137 16.5243 10.1791 16.5943C8.37559 16.501 7.05768 15.9235 5.91317 15.1652C5.34669 14.786 4.86114 14.3252 4.41028 13.8293C4.21374 13.5552 3.99987 13.2927 3.82646 12.9893C3.64727 12.6918 3.49698 12.3535 3.33513 12.0385C3.06924 11.356 2.82068 10.656 2.7282 9.79851C2.60681 8.99934 2.63571 7.97851 2.8149 7.23768C2.87848 6.82934 3.01143 6.48518 3.12704 6.12934C3.20218 5.96601 3.28311 5.80268 3.35247 5.63351C3.45074 5.49351 3.50276 5.30101 3.62415 5.17851C3.95363 4.55434 4.44496 4.08767 4.94785 3.63851C5.4912 3.23601 6.1097 2.90934 6.85536 2.71101C7.57213 2.54768 8.549 2.51851 9.32357 2.68767C10.8958 3.01434 12.0808 3.72601 13.075 4.63601C14.0808 5.52851 14.8554 6.66017 15.3872 8.03684C15.9363 9.34351 16.127 11.3793 15.6357 12.861C15.4334 12.7443 15.2311 12.6335 15.0288 12.5227C14.786 12.4527 14.549 12.371 14.2658 12.3418C13.9247 12.336 13.5895 12.3418 13.3698 12.4527C13.8149 12.406 14.1733 12.5285 14.4507 12.6335C14.6126 12.6977 14.7051 12.7385 14.8322 12.8143C15.0808 12.9602 15.3004 13.0943 15.4854 13.2927C16.0114 13.7593 16.3872 14.3777 16.5663 15.1943C16.5663 15.2177 16.5952 15.2118 16.5895 15.171C16.6126 15.1652 16.6241 15.1477 16.6357 15.1243C16.6646 15.0893 16.6993 15.0543 16.7282 15.0135C16.786 14.9435 16.8438 14.8735 16.8843 14.786C17.0057 14.6402 17.1039 14.4768 17.1964 14.3077C17.4103 13.9927 17.5721 13.631 17.7571 13.2868C18.075 12.5518 18.3351 11.7585 18.497 10.8602C18.8207 8.86518 18.4334 6.97517 17.7571 5.58101C17.0635 4.17517 16.0924 3.04934 14.838 2.20351C13.5721 1.36351 12.0924 0.745175 10.0577 0.686841C10.0461 0.646008 10.0288 0.692675 9.98831 0.686841C8.91317 0.651841 8.04611 0.803508 7.18484 1.02517C6.786 1.15934 6.36981 1.27601 6.01721 1.45684C5.61259 1.59101 5.28889 1.81267 4.91895 1.97601C4.786 2.10434 4.58369 2.16851 4.44496 2.29101C4.26577 2.37851 4.13282 2.51851 3.95363 2.60601C3.66461 2.86267 3.35825 3.09017 3.07502 3.35267C2.79756 3.60934 2.55479 3.90101 2.28889 4.16934C2.24843 4.26268 2.17906 4.32684 2.1097 4.39684C2.06346 4.48434 2.00565 4.56017 1.93051 4.62434C1.90161 4.72934 1.80912 4.77017 1.77444 4.87517C1.69929 4.93351 1.68195 5.05018 1.59525 5.10267C1.5201 5.28934 1.38716 5.42351 1.30045 5.59851C1.1964 5.76768 1.11548 5.95434 1.01143 6.11768C0.849583 6.49684 0.676173 6.86434 0.543225 7.27268C0.404496 7.66934 0.288889 8.08934 0.207964 8.54434C0.121259 8.97017 0.0403344 9.52434 0.0518951 9.97351C-0.00590834 10.1368 0.0403344 10.4402 0.0518951 10.6327C0.0518951 10.6677 0.0287737 10.6793 0.0287737 10.7027C0.0287737 10.9185 0.0865772 11.181 0.0981379 11.3152C0.144381 11.811 0.231086 12.2718 0.369814 12.6743C0.456519 13.1235 0.64149 13.4735 0.774438 13.876C0.976751 14.2143 1.11548 14.6168 1.35825 14.9202C1.53744 15.276 1.79178 15.556 2.03455 15.8477C2.29467 16.1277 2.55479 16.4135 2.86692 16.641C3.43918 17.1427 4.1097 17.5452 4.8438 17.8893C6.21374 18.5602 8.25999 18.9977 10.0981 18.8868C10.5663 18.8227 11.0403 18.7643 11.4681 18.6593C11.8611 18.5135 12.3178 18.426 12.7918 18.3677C13.8727 18.2977 14.8091 18.3968 15.6415 18.6418C16.4854 18.8693 17.2137 19.2135 17.8438 19.6627C18.1791 19.861 18.4565 20.1177 18.7398 20.3627C19.0288 20.6135 19.26 20.9227 19.5259 21.2027C19.5606 21.3077 19.6299 21.3835 19.682 21.4768C19.7513 21.5527 19.7166 21.7277 19.8843 21.7043C19.9883 21.5993 19.8669 21.4477 19.8611 21.3193C19.7571 21.2085 19.734 21.0627 19.6531 20.9693Z" fill="white"/>
<path d="M15.4554 14.7635C15.4323 14.7635 15.4265 14.781 15.4091 14.7868C15.3687 14.8743 15.386 15.0143 15.4091 15.1018C15.5305 15.3526 15.571 15.6793 15.8369 15.7843C15.964 15.7435 15.9525 15.5568 15.9467 15.376C15.8889 15.1543 15.808 14.956 15.675 14.8101C15.5825 14.7751 15.519 14.7168 15.4554 14.7635ZM13.8831 15.3993C13.8831 15.3876 13.8658 15.376 13.86 15.3993C13.6403 15.3701 13.5652 15.4926 13.4554 15.5801C13.2646 16.0876 13.571 16.5835 14.1086 16.5776C14.3224 16.5251 14.4554 16.3851 14.4901 16.146C14.4612 15.7201 14.282 15.446 13.8831 15.3993Z" fill="white"/>
</g>
<defs>
<clipPath id="clip0_1_2271">
<rect width="20" height="21" fill="white" transform="translate(0 0.675781)"/>
</clipPath>
</defs>
</svg>
