<svg width="36" height="13" viewBox="0 0 36 13" fill="none" xmlns="http://www.w3.org/2000/svg">
<path d="M15.6063 11.9758H12.6688L14.5047 0.382929H17.4426L15.6063 11.9758ZM10.1976 0.382929L7.39708 8.35657L7.06569 6.63954L7.066 6.64016L6.07757 1.42673C6.07757 1.42673 5.95805 0.382929 4.6841 0.382929H0.054326L0 0.579223C0 0.579223 1.41579 0.881882 3.07274 1.90429L5.62485 11.9761H8.68551L13.3591 0.382929H10.1976ZM33.3027 11.9758H36L33.6483 0.382619H31.2869C30.1965 0.382619 29.9309 1.24656 29.9309 1.24656L25.5498 11.9758H28.612L29.2243 10.2538H32.9587L33.3027 11.9758ZM30.0703 7.87498L31.6138 3.53666L32.4821 7.87498H30.0703ZM25.7795 3.17074L26.1987 0.681246C26.1987 0.681246 24.9051 0.175781 23.5566 0.175781C22.0989 0.175781 18.6371 0.830405 18.6371 4.0136C18.6371 7.00856 22.7001 7.04577 22.7001 8.61892C22.7001 10.1921 19.0557 9.91018 17.853 8.91816L17.4163 11.5212C17.4163 11.5212 18.728 12.1758 20.732 12.1758C22.7366 12.1758 25.7608 11.1093 25.7608 8.20679C25.7608 5.1926 21.6613 4.91196 21.6613 3.60147C21.6616 2.29067 24.5224 2.45906 25.7795 3.17074Z" fill="white"/>
<path d="M7.066 6.64004L6.07757 1.42661C6.07757 1.42661 5.95805 0.382812 4.68411 0.382812H0.0543261L0 0.579107C0 0.579107 2.22525 1.05294 4.35966 2.82827C6.4005 4.52515 7.066 6.64004 7.066 6.64004Z" fill="white"/>
</svg>
