<svg width="21" height="19" viewBox="0 0 21 19" fill="none" xmlns="http://www.w3.org/2000/svg">
<path d="M10.3858 2.18725L10.5 2.32136L10.6142 2.18725C11.6767 0.93959 13.3054 0.15 15 0.15C17.9972 0.15 20.35 2.50284 20.35 5.5C20.35 7.34073 19.5235 9.02272 18.0401 10.8363C16.5559 12.6509 14.4297 14.5789 11.8538 16.9148L11.8492 16.9189L11.849 16.9191L10.4996 18.1475L9.15088 16.929L9.15056 16.9287L9.11924 16.9002C6.55541 14.5704 4.43894 12.6471 2.95989 10.8376C1.47649 9.02273 0.65 7.34073 0.65 5.5C0.65 2.50284 3.00284 0.15 6 0.15C7.69458 0.15 9.32334 0.93959 10.3858 2.18725ZM4.55104 10.09C5.93811 11.7108 7.92042 13.5072 10.2966 15.6587L10.3939 15.7561L10.5 15.8621L10.6061 15.7561L10.7034 15.6587C13.0796 13.5072 15.0619 11.7108 16.449 10.09C17.8351 8.47034 18.65 7.00037 18.65 5.5C18.65 3.41716 17.0828 1.85 15 1.85C13.4386 1.85 11.9142 2.82831 11.3383 4.21H9.67105C9.08603 2.8288 7.5619 1.85 6 1.85C3.91716 1.85 2.35 3.41716 2.35 5.5C2.35 7.00037 3.16489 8.47034 4.55104 10.09Z" fill="black" stroke="white" stroke-width="0.3"/>
</svg>
