<svg width="57" height="50" viewBox="0 0 57 50" fill="none" xmlns="http://www.w3.org/2000/svg">
<g clip-path="url(#clip0_29_510)">
<path d="M45.747 6.60839C45.8272 6.35632 45.8708 6.08841 45.8708 5.81038C45.8708 4.46995 44.8644 3.36114 43.563 3.18195V2.617C43.563 1.1741 42.3802 0 40.9265 0H15.7793C14.3257 0 13.1428 1.17399 13.1428 2.617V3.18195C11.8412 3.36114 10.8348 4.47005 10.8348 5.81038C10.8348 6.08829 10.8785 6.35632 10.9587 6.60839C4.75893 7.56867 0 12.9049 0 19.3238V28.4007V45.4254C0 47.6614 1.83263 49.4805 4.08523 49.4805H52.6201C54.8728 49.4805 56.7055 47.6614 56.7055 45.4254V28.4007V19.3238C56.7055 12.9049 51.9465 7.56867 45.747 6.60839ZM43.1942 5.1666C43.5518 5.1666 43.8427 5.45539 43.8427 5.81026C43.8427 6.16525 43.5518 6.45393 43.1942 6.45393H37.3929C37.0354 6.45393 36.7447 6.16525 36.7447 5.81026C36.7447 5.45529 37.0356 5.1666 37.3929 5.1666H43.1942ZM15.1706 2.61678C15.1707 2.2895 15.4494 2.01291 15.7792 2.01291H40.9265C41.2562 2.01291 41.5348 2.2895 41.5348 2.61678V3.15359H37.3931C35.9173 3.15359 34.7167 4.3454 34.7167 5.81026C34.7167 6.03255 34.7473 6.24737 34.7994 6.45393H21.9059C21.958 6.24737 21.9886 6.03267 21.9886 5.81026C21.9886 4.3455 20.788 3.15359 19.3123 3.15359H15.1706V2.61678ZM13.5111 5.1666H19.3125C19.67 5.1666 19.9607 5.45529 19.9607 5.81026C19.9607 6.16525 19.6699 6.45393 19.3125 6.45393H13.5111C13.1536 6.45393 12.8627 6.16525 12.8627 5.81026C12.8627 5.45529 13.1536 5.1666 13.5111 5.1666ZM16.4116 8.46707H19.3123H37.3928H40.2184C46.2495 8.46707 51.156 13.3374 51.156 19.3238V27.3941H49.5383V19.3238C49.5386 18.7679 49.0847 18.3174 48.5245 18.3174C47.9644 18.3174 47.5106 18.7679 47.5106 19.3238V27.3941H41.649V25.5472C41.649 24.1043 40.4663 22.9303 39.0125 22.9303H37.6744C36.2207 22.9303 35.0379 24.1043 35.0379 25.5472V27.3941H21.3762V25.5472C21.3762 24.1043 20.1935 22.9303 18.7399 22.9303H17.4014C15.9478 22.9303 14.7651 24.1043 14.7651 25.5472V27.3941H9.1948V19.3238C9.1948 18.7679 8.74094 18.3174 8.18076 18.3174C7.62057 18.3174 7.1667 18.7679 7.1667 19.3238V27.3941H5.47396V19.3238C5.47396 13.3374 10.3805 8.46707 16.4116 8.46707ZM37.066 27.3939V25.5472C37.066 25.2199 37.3447 24.9433 37.6745 24.9433H39.0127C39.3423 24.9433 39.6211 25.2199 39.6211 25.5472V27.3939H37.066ZM39.6211 29.407V31.2538C39.6211 31.5811 39.3423 31.8576 39.0127 31.8576H37.6745C37.3447 31.8576 37.066 31.5811 37.066 31.2538V29.407H39.6211ZM16.7931 27.3939V25.5472C16.7931 25.2199 17.0718 24.9433 17.4014 24.9433H18.7397C19.0694 24.9433 19.3481 25.2199 19.3481 25.5472V27.3939H16.7931ZM19.3482 29.407V31.2538C19.3482 31.5811 19.0695 31.8576 18.7399 31.8576H17.4014C17.0718 31.8576 16.7931 31.5811 16.7931 31.2538V29.407H19.3482ZM2.02799 19.3238C2.02799 15.2446 4.30717 11.6854 7.66698 9.83047C5.07447 12.1853 3.44597 15.5692 3.44597 19.3238V27.3941H2.02799V19.3238ZM52.6201 47.4675H4.08523C2.9509 47.4675 2.02799 46.5514 2.02799 45.4254V29.4071H3.44597V37.8241C3.44597 38.3801 3.89982 38.8307 4.46001 38.8307C5.0202 38.8307 5.47407 38.3801 5.47407 37.8241V29.4071H14.7653V31.2539C14.7653 32.6968 15.9479 33.8709 17.4016 33.8709H18.7399C20.1935 33.8709 21.3762 32.6968 21.3762 31.2539V29.4071H35.038V31.2539C35.038 32.6968 36.2209 33.8709 37.6745 33.8709H39.0127C40.4663 33.8709 41.649 32.6968 41.649 31.2539V29.4071H51.1562V37.8241C51.1562 38.3801 51.6101 38.8307 52.1702 38.8307C52.7304 38.8307 53.1843 38.3801 53.1843 37.8241V29.4071H54.6773V45.4254C54.6773 46.5514 53.7546 47.4675 52.6201 47.4675ZM54.6774 27.3941H53.1843V19.3238C53.1843 15.5145 51.5079 12.0871 48.8494 9.72857C52.3125 11.5529 54.6773 15.1686 54.6773 19.3238L54.6774 27.3941Z" fill="#A3A3A3"/>
<path d="M38.7634 43.7939H4.4601C3.90002 43.7939 3.44604 44.2445 3.44604 44.8005C3.44604 45.3566 3.89991 45.8071 4.4601 45.8071H38.7634C39.3236 45.8071 39.7774 45.3566 39.7774 44.8005C39.7774 44.2445 39.3234 43.7939 38.7634 43.7939Z" fill="#A3A3A3"/>
<path d="M52.1705 43.7939H42.5489C41.9887 43.7939 41.5349 44.2445 41.5349 44.8005C41.5349 45.3566 41.9887 45.8071 42.5489 45.8071H52.1705C52.7305 45.8071 53.1845 45.3566 53.1845 44.8005C53.1845 44.2445 52.7305 43.7939 52.1705 43.7939Z" fill="#A3A3A3"/>
</g>
<defs>
<clipPath id="clip0_29_510">
<rect width="57" height="50" fill="white"/>
</clipPath>
</defs>
</svg>
