<svg width="24" height="24" viewBox="0 0 24 24" fill="none" xmlns="http://www.w3.org/2000/svg">
<path d="M7.27392 5.33369C8.78504 4.93466 10.3638 5.028 11.9134 5C11.8224 6.46429 11.9134 7.97408 11.4248 9.3812C11.2349 9.91393 10.9153 10.3909 10.4949 10.769C10.0745 11.1471 9.56662 11.4144 9.01707 11.5467C7.70533 11.8594 6.34579 11.8839 5.00024 11.8944C5.04339 10.2609 4.92679 8.56913 5.43982 6.994C5.69984 6.1481 6.43557 5.53904 7.27392 5.33369ZM12.1128 5C13.7218 5.02917 15.3775 4.91716 16.9446 5.4002C17.3394 5.51824 17.6984 5.73344 17.9887 6.02614C18.2789 6.31883 18.4912 6.67968 18.6061 7.07567C19.0725 8.6333 18.9816 10.2866 19.0002 11.8944C17.657 11.8851 16.2952 11.8617 14.9858 11.5444C14.4215 11.4062 13.9017 11.1266 13.4754 10.7318C13.049 10.337 12.7302 9.84008 12.5488 9.28786C12.1128 7.90174 12.1874 6.43395 12.1128 5ZM5.00024 12.1044C6.19634 12.0971 7.3912 12.1829 8.57399 12.3611C9.73998 12.5396 10.8675 13.256 11.3281 14.3726C11.9402 15.8357 11.7875 17.4552 11.911 19C10.5119 18.9848 9.10218 19.0327 7.72166 18.7771C6.93695 18.6266 6.1056 18.2824 5.69284 17.5555C5.16581 16.6116 5.10635 15.5009 5.04455 14.438C5.03522 13.6597 4.98625 12.8827 5.00374 12.1044H5.00024ZM15.1828 12.4113C16.4362 12.1604 17.7212 12.1196 18.9967 12.1068C18.9781 13.7146 19.0749 15.3679 18.6026 16.9255C18.4868 17.32 18.2747 17.6795 17.9854 17.9715C17.6962 18.2636 17.3389 18.4791 16.9458 18.5986C15.381 19.0805 13.7172 18.9708 12.1011 18.9965C12.1757 17.5322 12.1011 16.0224 12.5792 14.6153C12.9663 13.4754 14.0133 12.6376 15.1828 12.4113Z" fill="white"/>
</svg>
