<svg width="600" height="734" viewBox="0 0 600 734" fill="none" xmlns="http://www.w3.org/2000/svg">
<g clip-path="url(#clip0_2_145)">
<path d="M17.8672 304.113H-77.1328V305.113H17.8672" fill="#1D1D1B"/>
<path d="M300.867 304.113H17.8672V305.113H300.867" fill="#1D1D1B"/>
<path d="M17.8672 351.113H-77.1328V352.113H17.8672" fill="#1D1D1B"/>
<path d="M206.867 351.113H11.8672V352.113H206.867" fill="#1D1D1B"/>
<path d="M300.867 351.113H206.867V352.113H300.867" fill="#1D1D1B"/>
<path d="M195.867 398.113H-77.1328V399.113H195.867" fill="#1D1D1B"/>
<path d="M300.867 398.113H193.867V399.113H300.867" fill="#1D1D1B"/>
<path d="M300.867 445.113H-77.1328V446.113H300.867" fill="#1D1D1B"/>
<path d="M159.867 492.113H-77.1328V493.113H159.867" fill="#1D1D1B"/>
<path d="M159.867 539.113H-77.1328V540.113H159.867" fill="#1D1D1B"/>
<path d="M159.867 586.113H-77.1328V587.113H159.867" fill="#1D1D1B"/>
<path d="M159.867 633.113H-77.1328V634.113H159.867" fill="#1D1D1B"/>
<path d="M160.035 680.422H-77.4837V681.032H160.035" fill="#1D1D1B"/>
<path d="M301.867 492.238H158.229V492.849H301.867" fill="#1D1D1B"/>
<path d="M301.867 539.279H160.036V539.89H301.867" fill="#1D1D1B"/>
<path d="M301.867 586.326H160.219V586.937H301.867" fill="#1D1D1B"/>
<path d="M301.867 633.375H160.036V633.986H301.867" fill="#1D1D1B"/>
<path d="M301.867 680.422H160.036V681.032H301.867" fill="#1D1D1B"/>
<path d="M207 267L207 728H208L208 267" fill="#1D1D1B"/>
<path d="M253.867 256.113L253.867 728.113H254.867L254.867 256.113" fill="#1D1D1B"/>
<path d="M159.867 256.113L159.867 728.113H160.867L160.867 256.113" fill="#1D1D1B"/>
<path d="M64.8672 442.113L64.8672 728.113H65.8672L65.8672 442.113" fill="#1D1D1B"/>
<path d="M113 225L113 728H114L114 225" fill="#1D1D1B"/>
<path d="M65.8672 445.113L65.8672 256.113H64.8672L64.8672 445.113" fill="#1D1D1B"/>
<path d="M18 239L18 728H19L19 239" fill="#1D1D1B"/>
<path d="M49.7833 489.616H62.6969L79.8765 477.839C80.4268 477.372 81.1199 477.115 81.8361 477.113C82.2621 477.114 82.6833 477.206 83.0722 477.384C83.4612 477.561 83.8092 477.819 84.0938 478.142C84.6044 478.725 84.8804 479.482 84.8667 480.262C84.8651 480.675 84.7678 481.082 84.5827 481.449C84.3977 481.816 84.1301 482.134 83.8017 482.376L68.5208 492.672L83.8565 502.844C84.1764 503.118 84.4328 503.461 84.6075 503.848C84.7821 504.235 84.8706 504.656 84.8667 505.082C84.8641 505.794 84.6115 506.482 84.1547 507.022C83.8851 507.367 83.5415 507.645 83.1501 507.835C82.7587 508.024 82.3301 508.119 81.8969 508.113C81.1812 508.102 80.4903 507.845 79.9374 507.382L62.6969 495.697H49.7833C49.3949 495.701 49.0097 495.624 48.6509 495.473C48.2921 495.321 47.967 495.098 47.6949 494.815C47.4228 494.533 47.2094 494.198 47.0674 493.83C46.9253 493.461 46.8576 493.068 46.8683 492.672C46.8576 492.277 46.9253 491.883 47.0674 491.515C47.2094 491.147 47.4228 490.811 47.6949 490.529C47.967 490.247 48.2921 490.023 48.6509 489.871C49.0097 489.72 49.3949 489.644 49.7833 489.647V489.616Z" fill="#7743AB"/>
<path d="M204.555 367.485V354.566L192.955 337.331C192.493 336.78 192.24 336.084 192.241 335.365C192.244 334.938 192.336 334.516 192.51 334.126C192.685 333.736 192.938 333.387 193.254 333.1C193.828 332.588 194.574 332.311 195.342 332.325C195.75 332.328 196.152 332.427 196.514 332.614C196.877 332.8 197.191 333.069 197.43 333.399L207.565 348.723L217.584 333.338C217.855 333.019 218.193 332.763 218.574 332.588C218.954 332.413 219.369 332.323 219.788 332.325C220.49 332.326 221.168 332.58 221.699 333.039C222.038 333.31 222.311 333.655 222.497 334.048C222.683 334.44 222.778 334.87 222.773 335.304C222.763 336.023 222.511 336.717 222.059 337.276L210.551 354.566V367.509C210.552 367.899 210.476 368.285 210.326 368.644C210.175 369.003 209.954 369.329 209.676 369.601C209.397 369.873 209.067 370.086 208.704 370.228C208.342 370.37 207.954 370.438 207.565 370.428C207.176 370.438 206.789 370.371 206.427 370.228C206.064 370.086 205.734 369.873 205.456 369.6C205.178 369.328 204.958 369.003 204.808 368.643C204.659 368.284 204.583 367.898 204.586 367.509L204.555 367.485Z" fill="#7743AB"/>
<path d="M93.7799 348.113H125.961C126.348 348.111 126.732 348.187 127.09 348.337C127.447 348.488 127.771 348.709 128.043 348.989C128.314 349.269 128.526 349.601 128.668 349.965C128.809 350.329 128.877 350.719 128.866 351.11C128.877 351.502 128.809 351.891 128.668 352.256C128.526 352.621 128.314 352.953 128.043 353.233C127.772 353.514 127.448 353.736 127.09 353.887C126.732 354.038 126.348 354.115 125.961 354.113H93.7799C93.3917 354.116 93.0069 354.039 92.6485 353.889C92.29 353.738 91.9653 353.516 91.6936 353.236C91.4219 352.955 91.2089 352.623 91.0671 352.258C90.9253 351.893 90.8577 351.502 90.8683 351.11C90.8585 350.719 90.9267 350.329 91.0689 349.965C91.211 349.6 91.4242 349.268 91.6959 348.989C91.9675 348.709 92.2919 348.488 92.6499 348.337C93.0079 348.187 93.3922 348.111 93.7799 348.113Z" fill="#DB0032"/>
<path d="M203.867 650.13V617.103C203.865 616.704 203.941 616.309 204.092 615.942C204.243 615.574 204.465 615.24 204.745 614.962C205.025 614.683 205.358 614.464 205.723 614.318C206.088 614.173 206.478 614.104 206.87 614.114C207.262 614.103 207.652 614.173 208.017 614.318C208.382 614.464 208.714 614.683 208.994 614.962C209.273 615.241 209.495 615.574 209.645 615.942C209.795 616.31 209.871 616.705 209.867 617.103V650.13C209.87 650.528 209.794 650.922 209.643 651.289C209.493 651.656 209.271 651.989 208.991 652.267C208.712 652.545 208.38 652.763 208.015 652.909C207.651 653.054 207.262 653.123 206.87 653.112C206.479 653.123 206.089 653.054 205.724 652.909C205.359 652.764 205.027 652.545 204.747 652.267C204.467 651.989 204.245 651.657 204.094 651.289C203.942 650.922 203.865 650.528 203.867 650.13Z" fill="#E9458D"/>
<path d="M62.8673 320.207V288.026C62.8638 287.638 62.9395 287.253 63.0898 286.895C63.24 286.537 63.4617 286.212 63.7417 285.94C64.0218 285.668 64.3543 285.455 64.7194 285.313C65.0846 285.171 65.475 285.104 65.8672 285.114C66.2594 285.104 66.6497 285.171 67.0149 285.313C67.3801 285.455 67.7126 285.668 67.9926 285.94C68.2726 286.212 68.4944 286.537 68.6446 286.895C68.7949 287.253 68.8705 287.638 68.8671 288.026V320.207C68.8697 320.594 68.7934 320.978 68.6428 321.336C68.4922 321.693 68.2703 322.017 67.9904 322.289C67.7105 322.56 67.3782 322.772 67.0135 322.914C66.6487 323.055 66.2589 323.123 65.8672 323.112C65.4755 323.123 65.0856 323.055 64.7209 322.914C64.3561 322.772 64.0239 322.56 63.744 322.289C63.464 322.017 63.2422 321.693 63.0916 321.336C62.9409 320.978 62.8647 320.594 62.8673 320.207V320.207Z" fill="#6AC0AE"/>
<path d="M156.765 605.244C156.477 604.979 156.249 604.658 156.095 604.301C155.94 603.944 155.863 603.559 155.868 603.171V586.081C155.858 585.691 155.933 585.303 156.088 584.945C156.242 584.586 156.473 584.264 156.765 584.002C157.338 583.435 158.115 583.116 158.926 583.114C159.32 583.104 159.712 583.177 160.074 583.33C160.437 583.484 160.761 583.713 161.026 584.002C161.56 584.566 161.86 585.308 161.867 586.081V603.146C161.87 603.537 161.795 603.925 161.645 604.287C161.495 604.649 161.274 604.977 160.995 605.254C160.715 605.53 160.383 605.748 160.017 605.896C159.651 606.043 159.259 606.117 158.864 606.113C158.472 606.112 158.083 606.032 157.722 605.879C157.361 605.725 157.036 605.501 156.765 605.219V605.244Z" fill="#DB0032"/>
<path d="M159.303 580.765C160.144 580.775 160.979 580.616 161.758 580.296C162.536 579.976 163.242 579.502 163.833 578.903C164.439 578.314 164.921 577.609 165.248 576.829C165.575 576.05 165.742 575.212 165.738 574.367C165.748 573.517 165.585 572.673 165.259 571.888C164.932 571.103 164.449 570.393 163.839 569.8C163.248 569.2 162.541 568.725 161.761 568.404C160.982 568.083 160.146 567.922 159.303 567.932C158.461 567.923 157.627 568.083 156.849 568.403C156.07 568.723 155.364 569.196 154.773 569.794C154.165 570.39 153.683 571.101 153.356 571.887C153.028 572.673 152.862 573.516 152.868 574.367C152.865 575.212 153.033 576.049 153.36 576.829C153.687 577.608 154.168 578.313 154.773 578.903C155.364 579.501 156.07 579.975 156.849 580.294C157.627 580.614 158.461 580.774 159.303 580.765V580.765Z" fill="#DB0032"/>
<path d="M18.6075 732.694C19.4465 732.706 20.2795 732.55 21.0574 732.235C21.8353 731.921 22.5426 731.454 23.1376 730.862C23.7429 730.272 24.2234 729.567 24.5506 728.788C24.8779 728.008 25.0451 727.171 25.0425 726.326C25.0531 725.475 24.8897 724.631 24.5621 723.846C24.2345 723.06 23.7498 722.35 23.1376 721.759C22.5471 721.159 21.8414 720.684 21.063 720.363C20.2846 720.042 19.4495 719.882 18.6075 719.891C17.7652 719.881 16.9295 720.041 16.1502 720.361C15.371 720.681 14.664 721.155 14.0713 721.753C13.4633 722.349 12.9813 723.06 12.6541 723.846C12.3268 724.632 12.161 725.475 12.1665 726.326C12.1633 727.17 12.3303 728.007 12.6576 728.785C12.9849 729.563 13.4657 730.268 14.0713 730.856C14.6637 731.456 15.3705 731.93 16.1497 732.251C16.929 732.572 17.7648 732.733 18.6075 732.724V732.694Z" fill="#E9458D"/>
<path d="M255.867 546.113C256.652 546.122 257.431 545.959 258.156 545.634C258.882 545.309 259.54 544.829 260.091 544.222C260.656 543.627 261.105 542.914 261.411 542.125C261.716 541.337 261.871 540.49 261.867 539.635C261.877 538.773 261.725 537.918 261.421 537.122C261.116 536.326 260.666 535.606 260.096 535.005C259.544 534.398 258.885 533.918 258.159 533.593C257.432 533.268 256.653 533.105 255.867 533.114C255.082 533.106 254.304 533.269 253.578 533.594C252.853 533.919 252.195 534.399 251.643 535.005C251.076 535.608 250.627 536.329 250.322 537.124C250.017 537.919 249.862 538.773 249.867 539.635C249.865 540.49 250.021 541.336 250.326 542.124C250.631 542.912 251.079 543.626 251.643 544.222C252.195 544.828 252.853 545.308 253.578 545.633C254.304 545.958 255.082 546.121 255.867 546.113V546.113Z" fill="#E9458D"/>
<path d="M112.188 452.2C113.029 452.209 113.863 452.049 114.642 451.729C115.42 451.409 116.126 450.936 116.718 450.338C117.324 449.749 117.805 449.044 118.133 448.264C118.46 447.485 118.627 446.647 118.623 445.802C118.633 444.951 118.47 444.106 118.144 443.32C117.817 442.534 117.334 441.822 116.724 441.229C116.129 440.636 115.421 440.168 114.641 439.853C113.862 439.539 113.028 439.384 112.188 439.397C111.348 439.384 110.515 439.54 109.737 439.854C108.959 440.169 108.252 440.636 107.658 441.229C107.05 441.824 106.568 442.536 106.24 443.322C105.913 444.107 105.747 444.951 105.753 445.802C105.75 446.646 105.916 447.482 106.244 448.261C106.571 449.039 107.052 449.744 107.658 450.332C108.249 450.931 108.955 451.405 109.733 451.726C110.511 452.047 111.346 452.208 112.188 452.2Z" fill="#E9458D"/>
<path d="M208.596 733.959C209.437 733.968 210.272 733.808 211.05 733.488C211.828 733.168 212.534 732.695 213.126 732.097C213.731 731.507 214.212 730.801 214.539 730.022C214.866 729.243 215.033 728.405 215.031 727.56C215.041 726.709 214.878 725.865 214.55 725.08C214.223 724.295 213.738 723.585 213.126 722.994C212.535 722.395 211.829 721.921 211.051 721.6C210.272 721.279 209.438 721.117 208.596 721.125C207.753 721.117 206.917 721.278 206.138 721.599C205.359 721.92 204.652 722.394 204.06 722.994C203.452 723.588 202.971 724.299 202.645 725.083C202.319 725.868 202.154 726.711 202.161 727.56C202.157 728.405 202.323 729.242 202.649 730.021C202.976 730.801 203.455 731.506 204.06 732.097C204.652 732.695 205.359 733.169 206.139 733.488C206.918 733.808 207.753 733.968 208.596 733.959V733.959Z" fill="#7743AB"/>
<path d="M254.623 357.826C255.465 357.835 256.3 357.674 257.078 357.353C257.857 357.032 258.563 356.558 259.153 355.958C259.761 355.37 260.243 354.664 260.57 353.885C260.898 353.105 261.064 352.267 261.058 351.422C261.069 350.571 260.906 349.728 260.579 348.943C260.253 348.158 259.77 347.447 259.159 346.855C258.567 346.255 257.86 345.781 257.081 345.46C256.302 345.139 255.466 344.978 254.623 344.987C253.781 344.979 252.947 345.14 252.168 345.461C251.39 345.782 250.685 346.256 250.093 346.855C249.486 347.45 249.004 348.16 248.677 348.945C248.35 349.729 248.184 350.572 248.188 351.422C248.186 352.267 248.353 353.104 248.68 353.883C249.007 354.662 249.488 355.368 250.093 355.958C250.685 356.557 251.39 357.031 252.168 357.352C252.947 357.673 253.781 357.834 254.623 357.826V357.826Z" fill="#E9458D"/>
<path d="M253.219 262.834C254.06 262.842 254.895 262.682 255.673 262.362C256.451 262.042 257.157 261.569 257.749 260.972C258.354 260.382 258.835 259.676 259.162 258.897C259.489 258.118 259.657 257.281 259.654 256.435C259.664 255.584 259.5 254.74 259.174 253.954C258.848 253.168 258.365 252.456 257.755 251.863C257.162 251.264 256.455 250.791 255.676 250.471C254.897 250.151 254.061 249.991 253.219 250C252.378 249.991 251.543 250.151 250.765 250.471C249.987 250.791 249.281 251.264 248.689 251.863C248.081 252.458 247.599 253.17 247.272 253.955C246.944 254.741 246.779 255.584 246.784 256.435C246.781 257.28 246.948 258.116 247.275 258.894C247.602 259.673 248.083 260.377 248.689 260.965C249.28 261.564 249.986 262.039 250.764 262.359C251.542 262.68 252.377 262.842 253.219 262.834V262.834Z" fill="#6AC0AE"/>
<path d="M111.864 690.113C109.213 690.113 106.67 689.007 104.795 687.039C102.92 685.07 101.867 682.4 101.867 679.616C101.867 676.832 102.92 674.161 104.795 672.192C106.67 670.222 109.212 669.115 111.864 669.113C114.517 669.113 117.061 670.22 118.937 672.19C120.813 674.159 121.867 676.831 121.867 679.616C121.867 680.995 121.608 682.361 121.106 683.635C120.603 684.909 119.866 686.066 118.937 687.041C118.008 688.016 116.905 688.789 115.692 689.316C114.478 689.843 113.178 690.114 111.864 690.113Z" fill="#FED16D"/>
<path d="M256.864 455.113C255.551 455.114 254.251 454.856 253.038 454.354C251.824 453.852 250.722 453.115 249.793 452.187C248.865 451.259 248.129 450.156 247.627 448.943C247.124 447.73 246.866 446.429 246.867 445.116C246.866 443.803 247.124 442.502 247.626 441.289C248.128 440.075 248.865 438.972 249.793 438.044C250.721 437.115 251.824 436.378 253.037 435.875C254.25 435.372 255.551 435.113 256.864 435.113C259.517 435.113 262.061 436.167 263.937 438.043C265.813 439.919 266.867 442.463 266.867 445.116C266.867 446.43 266.608 447.73 266.106 448.943C265.603 450.157 264.866 451.259 263.937 452.187C263.008 453.116 261.905 453.852 260.692 454.354C259.478 454.856 258.178 455.114 256.864 455.113Z" fill="#FED16D"/>
<path d="M250.131 451.586C249.362 450.811 248.753 449.883 248.34 448.857C247.927 447.831 247.718 446.728 247.727 445.616C247.724 444.514 247.935 443.422 248.348 442.405C248.761 441.389 249.368 440.47 250.131 439.703C250.87 438.91 251.755 438.281 252.734 437.852C253.713 437.423 254.766 437.204 255.828 437.208C256.899 437.205 257.959 437.424 258.947 437.852C259.934 438.281 260.83 438.91 261.58 439.703C262.334 440.474 262.931 441.395 263.334 442.411C263.737 443.427 263.937 444.518 263.923 445.616C263.943 446.724 263.746 447.825 263.343 448.851C262.94 449.878 262.34 450.808 261.58 451.586C260.83 452.376 259.934 453 258.945 453.419C257.957 453.838 256.896 454.044 255.828 454.025C254.769 454.039 253.718 453.83 252.739 453.411C251.76 452.992 250.873 452.371 250.131 451.586V451.586ZM265.756 455.853C267.056 454.511 268.088 452.916 268.794 451.159C269.499 449.403 269.864 447.519 269.867 445.616C269.864 443.713 269.499 441.83 268.794 440.074C268.088 438.317 267.056 436.722 265.756 435.38C263.124 432.654 259.559 431.12 255.84 431.113C254.007 431.116 252.192 431.494 250.499 432.226C248.807 432.958 247.27 434.03 245.978 435.38C244.678 436.722 243.646 438.317 242.941 440.074C242.235 441.83 241.871 443.713 241.867 445.616C241.871 447.519 242.235 449.403 242.941 451.159C243.646 452.916 244.678 454.511 245.978 455.853C247.272 457.201 248.808 458.271 250.501 459.002C252.193 459.733 254.007 460.111 255.84 460.113C259.558 460.106 263.122 458.575 265.756 455.853V455.853Z" fill="#6AC0AE"/>
<path d="M160.87 502.113C158.217 502.113 155.673 501.059 153.797 499.183C151.921 497.307 150.867 494.763 150.867 492.11C150.869 489.458 151.923 486.916 153.799 485.041C155.675 483.166 158.218 482.113 160.87 482.113C163.521 482.115 166.063 483.169 167.937 485.043C169.812 486.917 170.866 489.459 170.867 492.11C170.867 494.762 169.814 497.306 167.94 499.181C166.065 501.057 163.522 502.112 160.87 502.113V502.113Z" fill="#FED16D"/>
<path d="M154.426 497.88C153.63 497.131 153 496.233 152.572 495.241C152.144 494.25 151.928 493.185 151.936 492.11C151.934 491.046 152.153 489.993 152.581 489.013C153.008 488.033 153.636 487.147 154.426 486.407C155.191 485.642 156.107 485.035 157.12 484.621C158.132 484.207 159.221 483.995 160.32 483.998C161.429 483.995 162.527 484.206 163.55 484.62C164.573 485.034 165.501 485.641 166.277 486.407C167.061 487.148 167.681 488.036 168.099 489.017C168.518 489.997 168.726 491.05 168.711 492.11C168.73 493.181 168.524 494.245 168.105 495.237C167.687 496.228 167.065 497.128 166.277 497.88C165.5 498.641 164.571 499.241 163.548 499.645C162.524 500.049 161.426 500.247 160.32 500.229C159.225 500.241 158.139 500.04 157.126 499.636C156.113 499.233 155.195 498.635 154.426 497.88V497.88ZM170.61 501.994C171.956 500.698 173.025 499.158 173.755 497.462C174.486 495.766 174.864 493.948 174.867 492.11C174.864 490.273 174.486 488.454 173.755 486.759C173.025 485.063 171.956 483.523 170.61 482.227C167.878 479.599 164.185 478.121 160.333 478.113C156.499 478.121 152.825 479.6 150.119 482.227C147.404 484.846 145.875 488.401 145.867 492.11C145.875 495.82 147.404 499.375 150.119 501.994C151.458 503.296 153.049 504.331 154.802 505.037C156.555 505.744 158.434 506.11 160.333 506.113C164.186 506.107 167.881 504.626 170.61 501.994V501.994Z" fill="#E9458D"/>
<path d="M160.87 314.113C158.218 314.113 155.675 313.06 153.799 311.186C151.923 309.311 150.869 306.768 150.867 304.116C150.867 301.463 151.921 298.919 153.797 297.043C155.673 295.167 158.217 294.113 160.87 294.113C163.522 294.115 166.065 295.169 167.94 297.045C169.814 298.921 170.867 301.464 170.867 304.116C170.866 306.767 169.812 309.309 167.937 311.183C166.063 313.058 163.521 314.112 160.87 314.113Z" fill="#FED16D"/>
<path d="M154.747 310.205C153.966 309.447 153.347 308.538 152.928 307.534C152.508 306.53 152.296 305.451 152.305 304.363C152.302 303.283 152.516 302.214 152.936 301.22C153.356 300.225 153.972 299.326 154.747 298.575C155.497 297.8 156.396 297.184 157.389 296.765C158.383 296.345 159.45 296.13 160.529 296.133C161.616 296.13 162.694 296.344 163.697 296.764C164.7 297.183 165.61 297.799 166.372 298.575C167.14 299.328 167.747 300.23 168.158 301.225C168.568 302.219 168.772 303.287 168.759 304.363C168.778 305.448 168.576 306.525 168.165 307.529C167.755 308.534 167.145 309.444 166.372 310.205C165.61 310.979 164.7 311.589 163.696 311.999C162.691 312.41 161.614 312.611 160.529 312.593C159.454 312.607 158.387 312.403 157.393 311.993C156.399 311.582 155.499 310.974 154.747 310.205V310.205ZM170.621 314.381C171.941 313.068 172.99 311.507 173.706 309.788C174.423 308.069 174.793 306.225 174.797 304.363C174.793 302.5 174.423 300.657 173.706 298.938C172.99 297.218 171.941 295.658 170.621 294.344C167.944 291.676 164.321 290.174 160.541 290.168C158.679 290.171 156.835 290.542 155.116 291.259C153.397 291.975 151.836 293.024 150.522 294.344C147.86 296.999 146.36 300.603 146.353 304.363C146.36 308.123 147.86 311.726 150.522 314.381C153.177 317.044 156.781 318.544 160.541 318.551C164.319 318.544 167.942 317.045 170.621 314.381V314.381Z" fill="#E9458D"/>
<path d="M17.8702 644.113C15.2183 644.113 12.6749 643.008 10.7992 641.039C8.9234 639.071 7.86879 636.401 7.86719 633.616C7.86719 630.831 8.92109 628.159 10.797 626.189C12.6729 624.22 15.2173 623.113 17.8702 623.113C20.5221 623.115 23.0649 624.222 24.9395 626.192C26.8141 628.161 27.8672 630.832 27.8672 633.616C27.8656 636.4 26.8118 639.069 24.9374 641.037C23.0629 643.005 20.5211 644.112 17.8702 644.113V644.113Z" fill="#FED16D"/>
<path d="M11.3541 639.552C10.5911 638.782 9.98751 637.869 9.57789 636.865C9.16826 635.861 8.96065 634.787 8.96692 633.703C8.96045 632.62 9.16801 631.546 9.57766 630.543C9.98732 629.541 10.591 628.629 11.3541 627.86C12.1187 627.088 13.0286 626.474 14.0314 626.055C15.0341 625.636 16.1099 625.419 17.1968 625.418C18.2843 625.415 19.3614 625.629 20.3648 626.049C21.3682 626.468 22.2776 627.084 23.0395 627.86C23.8127 628.621 24.423 629.532 24.8334 630.536C25.2437 631.541 25.4456 632.618 25.4267 633.703C25.4457 634.789 25.2439 635.867 24.8335 636.872C24.4232 637.878 23.8128 638.789 23.0395 639.552C22.278 640.324 21.3673 640.933 20.3629 641.343C19.3585 641.752 18.2812 641.953 17.1968 641.933C16.1138 641.942 15.0396 641.737 14.0367 641.328C13.0337 640.919 12.1219 640.316 11.3541 639.552ZM27.2705 643.722C28.5919 642.409 29.641 640.848 30.3576 639.129C31.0743 637.409 31.4443 635.565 31.4465 633.703C31.4253 630.731 30.4895 627.839 28.7663 625.418H38.6018C38.9918 625.421 39.3782 625.345 39.7382 625.195C40.0982 625.045 40.4244 624.824 40.6973 624.546C40.9702 624.267 41.1842 623.936 41.3266 623.573C41.469 623.21 41.5369 622.822 41.5263 622.433C41.5369 622.043 41.469 621.655 41.3265 621.293C41.184 620.93 40.9699 620.6 40.697 620.322C40.424 620.044 40.0978 619.823 39.7378 619.674C39.3778 619.525 38.9915 619.45 38.6018 619.453H6.28063C5.89148 619.451 5.50577 619.526 5.14651 619.676C4.78725 619.826 4.46178 620.046 4.18947 620.324C3.91716 620.602 3.70362 620.932 3.56151 621.294C3.4194 621.656 3.35164 622.044 3.3623 622.433C3.35512 623.121 3.58932 623.791 4.02425 624.325C4.45917 624.859 5.0674 625.224 5.74336 625.357C3.94957 627.768 2.98753 630.697 3.00207 633.703C3.00425 635.565 3.37428 637.409 4.09091 639.129C4.80754 640.848 5.85668 642.409 7.17808 643.722C8.49167 645.042 10.0526 646.09 11.7717 646.807C13.4908 647.523 15.3343 647.894 17.1968 647.898C19.0684 647.901 20.9221 647.533 22.6511 646.816C24.38 646.1 25.9499 645.048 27.2705 643.722V643.722Z" fill="#E9458D"/>
<path d="M255.873 644.113C253.221 644.113 250.676 643.008 248.8 641.039C246.924 639.071 245.869 636.401 245.867 633.616C245.867 630.831 246.921 628.159 248.798 626.189C250.674 624.22 253.219 623.113 255.873 623.113C258.525 623.117 261.067 624.225 262.941 626.194C264.815 628.163 265.867 630.833 265.867 633.616C265.866 636.4 264.812 639.069 262.936 641.037C261.061 643.005 258.519 644.112 255.867 644.113H255.873Z" fill="#FED16D"/>
<path d="M250.143 639.586C249.374 638.811 248.765 637.883 248.352 636.857C247.939 635.831 247.73 634.728 247.739 633.616C247.735 632.513 247.946 631.421 248.359 630.405C248.773 629.389 249.379 628.47 250.143 627.703C250.882 626.91 251.767 626.281 252.746 625.852C253.725 625.423 254.778 625.204 255.84 625.208C256.911 625.205 257.971 625.424 258.959 625.852C259.946 626.281 260.841 626.91 261.591 627.703C262.348 628.473 262.946 629.394 263.35 630.41C263.753 631.426 263.955 632.517 263.941 633.616C263.96 634.725 263.761 635.826 263.357 636.852C262.953 637.878 262.353 638.808 261.591 639.586C260.842 640.375 259.945 640.998 258.957 641.416C257.968 641.834 256.908 642.039 255.84 642.019C254.781 642.035 253.73 641.828 252.751 641.41C251.771 640.992 250.884 640.371 250.143 639.586V639.586ZM265.816 643.79C267.107 642.457 268.129 640.872 268.825 639.125C269.52 637.379 269.874 635.506 269.867 633.616C269.865 631.713 269.501 629.829 268.795 628.073C268.09 626.316 267.057 624.721 265.756 623.38C263.124 620.653 259.559 619.119 255.84 619.113C252.14 619.131 248.595 620.665 245.978 623.38C244.677 624.721 243.644 626.316 242.939 628.073C242.234 629.829 241.869 631.713 241.867 633.616C241.874 636.708 242.958 639.693 244.92 642.019C244.193 642.079 243.513 642.419 243.015 642.971C242.516 643.524 242.233 644.25 242.222 645.007C242.218 645.415 242.293 645.821 242.444 646.198C242.595 646.575 242.818 646.917 243.099 647.203C243.667 647.775 244.424 648.1 245.215 648.113H255.948C259.651 648.054 263.187 646.504 265.81 643.79H265.816Z" fill="#79A3DC"/>
<path d="M19.8702 362.113C17.2183 362.113 14.6749 361.008 12.7992 359.039C10.9234 357.071 9.86879 354.401 9.86719 351.616C9.86719 350.237 10.1259 348.871 10.6286 347.597C11.1313 346.323 11.8682 345.165 12.797 344.19C13.7259 343.214 14.8286 342.441 16.0422 341.913C17.2558 341.385 18.5566 341.113 19.8702 341.113C21.1836 341.113 22.484 341.385 23.6973 341.913C24.9106 342.441 26.0129 343.215 26.9413 344.19C27.8696 345.165 28.6059 346.323 29.1079 347.598C29.61 348.872 29.868 350.237 29.8672 351.616C29.8672 354.4 28.8139 357.07 26.9391 359.039C25.0643 361.007 22.5216 362.113 19.8702 362.113Z" fill="#FED16D"/>
<path d="M14.1428 357.586C13.3753 356.81 12.7668 355.882 12.3537 354.856C11.9406 353.83 11.7314 352.728 11.7388 351.616C11.7366 350.514 11.9484 349.422 12.3614 348.406C12.7744 347.39 13.3802 346.471 14.1428 345.703C14.8825 344.911 15.7681 344.283 16.7469 343.854C17.7258 343.425 18.7777 343.205 19.8401 343.208C20.9106 343.205 21.9709 343.424 22.9586 343.852C23.9463 344.281 24.8415 344.91 25.5915 345.703C26.3476 346.473 26.9456 347.394 27.3495 348.41C27.7534 349.426 27.9547 350.517 27.9414 351.616C27.96 352.725 27.7612 353.826 27.3573 354.852C26.9533 355.878 26.3526 356.808 25.5915 357.586C24.8422 358.376 23.9459 359 22.9572 359.419C21.9685 359.838 20.908 360.044 19.8401 360.025C18.7811 360.038 17.7306 359.828 16.7515 359.409C15.7725 358.99 14.8851 358.37 14.1428 357.586V357.586ZM29.8164 361.79C31.1069 360.457 32.1295 358.872 32.8249 357.125C33.5202 355.379 33.8745 353.506 33.8671 351.616C33.8641 349.714 33.5 347.831 32.7957 346.074C32.0914 344.318 31.0607 342.723 29.7623 341.38C27.1275 338.654 23.5606 337.12 19.8401 337.113C16.1398 337.133 12.5961 338.666 9.97794 341.38C8.67772 342.722 7.64532 344.317 6.93993 346.073C6.23454 347.83 5.86999 349.713 5.86719 351.616C5.87457 354.71 6.95885 357.696 8.9202 360.025C8.19295 360.083 7.51279 360.421 7.01344 360.972C6.51408 361.524 6.23168 362.25 6.22178 363.007C6.21763 363.415 6.29323 363.821 6.44404 364.198C6.59484 364.575 6.81772 364.917 7.09924 365.203C7.66694 365.775 8.42352 366.1 9.21468 366.113H19.9423C23.6463 366.059 27.184 364.508 29.8044 361.79H29.8164Z" fill="#79A3DC"/>
<path d="M106.438 685.582C105.642 684.807 105.011 683.879 104.583 682.853C104.155 681.827 103.939 680.725 103.948 679.613C103.946 678.511 104.166 677.419 104.593 676.403C105.021 675.388 105.649 674.469 106.438 673.701C107.204 672.91 108.12 672.282 109.133 671.854C110.145 671.425 111.234 671.205 112.333 671.206C113.442 671.204 114.541 671.423 115.565 671.852C116.589 672.28 117.518 672.909 118.296 673.701C119.077 674.472 119.695 675.393 120.112 676.409C120.529 677.425 120.737 678.515 120.724 679.613C120.744 680.721 120.539 681.821 120.122 682.847C119.705 683.873 119.083 684.804 118.296 685.582C117.519 686.372 116.589 686.995 115.564 687.414C114.539 687.833 113.44 688.04 112.333 688.02C111.237 688.035 110.149 687.826 109.136 687.407C108.122 686.988 107.205 686.367 106.438 685.582ZM122.672 689.785C124.008 688.452 125.067 686.867 125.788 685.121C126.508 683.375 126.875 681.503 126.867 679.613C126.863 677.711 126.486 675.828 125.755 674.072C125.025 672.316 123.956 670.721 122.61 669.379C119.881 666.653 116.186 665.119 112.333 665.113C108.502 665.131 104.833 666.664 102.125 669.379C100.779 670.721 99.7097 672.316 98.9792 674.072C98.2486 675.828 97.8708 677.711 97.8672 679.613C97.8737 682.706 98.9968 685.692 101.029 688.02C100.275 688.078 99.5702 688.415 99.052 688.967C98.5338 689.518 98.24 690.244 98.2282 691.001C98.2247 691.41 98.304 691.816 98.4613 692.193C98.6185 692.57 98.8505 692.912 99.1432 693.197C99.7284 693.773 100.513 694.102 101.334 694.113H112.457C116.294 694.055 119.957 692.502 122.672 689.785V689.785Z" fill="#6AC0AE"/>
</g>
<g clip-path="url(#clip1_2_145)">
<path d="M317.867 304.113H222.867V305.113H317.867" fill="#1D1D1B"/>
<path d="M600.867 304.113H317.867V305.113H600.867" fill="#1D1D1B"/>
<path d="M317.867 351.113H222.867V352.113H317.867" fill="#1D1D1B"/>
<path d="M506.867 351.113H311.867V352.113H506.867" fill="#1D1D1B"/>
<path d="M600.867 351.113H506.867V352.113H600.867" fill="#1D1D1B"/>
<path d="M495.867 398.113H222.867V399.113H495.867" fill="#1D1D1B"/>
<path d="M600.867 398.113H493.867V399.113H600.867" fill="#1D1D1B"/>
<path d="M600.867 445.113H222.867V446.113H600.867" fill="#1D1D1B"/>
<path d="M459.867 492.113H222.867V493.113H459.867" fill="#1D1D1B"/>
<path d="M459.867 539.113H222.867V540.113H459.867" fill="#1D1D1B"/>
<path d="M459.867 586.113H222.867V587.113H459.867" fill="#1D1D1B"/>
<path d="M459.867 633.113H222.867V634.113H459.867" fill="#1D1D1B"/>
<path d="M460.035 680.422H222.516V681.032H460.035" fill="#1D1D1B"/>
<path d="M601.867 492.238H458.229V492.849H601.867" fill="#1D1D1B"/>
<path d="M601.867 539.279H460.036V539.89H601.867" fill="#1D1D1B"/>
<path d="M601.867 586.326H460.219V586.937H601.867" fill="#1D1D1B"/>
<path d="M601.867 633.375H460.036V633.986H601.867" fill="#1D1D1B"/>
<path d="M601.867 680.422H460.036V681.032H601.867" fill="#1D1D1B"/>
<path d="M507 267V728H508V267" fill="#1D1D1B"/>
<path d="M553.867 256.113V728.113H554.867V256.113" fill="#1D1D1B"/>
<path d="M459.867 256.113L459.867 728.113H460.867L460.867 256.113" fill="#1D1D1B"/>
<path d="M364.867 442.113V728.113H365.867V442.113" fill="#1D1D1B"/>
<path d="M413 225L413 728H414L414 225" fill="#1D1D1B"/>
<path d="M365.867 445.113V256.113H364.867V445.113" fill="#1D1D1B"/>
<path d="M318 239L318 728H319L319 239" fill="#1D1D1B"/>
<path d="M349.783 489.616H362.697L379.877 477.839C380.427 477.372 381.12 477.115 381.836 477.113C382.262 477.114 382.683 477.206 383.072 477.384C383.461 477.561 383.809 477.819 384.094 478.142C384.604 478.725 384.88 479.482 384.867 480.262C384.865 480.675 384.768 481.082 384.583 481.449C384.398 481.816 384.13 482.134 383.802 482.376L368.521 492.672L383.856 502.844C384.176 503.118 384.433 503.461 384.607 503.848C384.782 504.235 384.871 504.656 384.867 505.082C384.864 505.794 384.612 506.482 384.155 507.022C383.885 507.367 383.541 507.645 383.15 507.835C382.759 508.024 382.33 508.119 381.897 508.113C381.181 508.102 380.49 507.845 379.937 507.382L362.697 495.697H349.783C349.395 495.701 349.01 495.624 348.651 495.473C348.292 495.321 347.967 495.098 347.695 494.815C347.423 494.533 347.209 494.198 347.067 493.83C346.925 493.461 346.858 493.068 346.868 492.672C346.858 492.277 346.925 491.883 347.067 491.515C347.209 491.147 347.423 490.811 347.695 490.529C347.967 490.247 348.292 490.023 348.651 489.871C349.01 489.72 349.395 489.644 349.783 489.647V489.616Z" fill="#7743AB"/>
<path d="M504.555 367.485V354.566L492.955 337.331C492.493 336.78 492.24 336.084 492.241 335.365C492.244 334.938 492.336 334.516 492.51 334.126C492.685 333.736 492.938 333.387 493.254 333.1C493.828 332.588 494.574 332.311 495.342 332.325C495.75 332.328 496.152 332.427 496.514 332.614C496.877 332.8 497.191 333.069 497.43 333.399L507.565 348.723L517.584 333.338C517.855 333.019 518.193 332.763 518.574 332.588C518.954 332.413 519.369 332.323 519.788 332.325C520.49 332.326 521.168 332.58 521.699 333.039C522.038 333.31 522.311 333.655 522.497 334.048C522.683 334.44 522.778 334.87 522.773 335.304C522.763 336.023 522.511 336.717 522.059 337.276L510.551 354.566V367.509C510.552 367.899 510.476 368.285 510.326 368.644C510.175 369.003 509.954 369.329 509.676 369.601C509.397 369.873 509.067 370.086 508.704 370.228C508.342 370.37 507.954 370.438 507.565 370.428C507.176 370.438 506.789 370.371 506.427 370.228C506.064 370.086 505.734 369.873 505.456 369.6C505.178 369.328 504.958 369.003 504.808 368.643C504.659 368.284 504.583 367.898 504.586 367.509L504.555 367.485Z" fill="#7743AB"/>
<path d="M393.78 348.113H425.961C426.348 348.111 426.732 348.187 427.09 348.337C427.447 348.488 427.771 348.709 428.043 348.989C428.314 349.269 428.526 349.601 428.668 349.965C428.809 350.329 428.877 350.719 428.866 351.11C428.877 351.502 428.809 351.891 428.668 352.256C428.526 352.621 428.314 352.953 428.043 353.233C427.772 353.514 427.448 353.736 427.09 353.887C426.732 354.038 426.348 354.115 425.961 354.113H393.78C393.392 354.116 393.007 354.039 392.648 353.889C392.29 353.738 391.965 353.516 391.694 353.236C391.422 352.955 391.209 352.623 391.067 352.258C390.925 351.893 390.858 351.502 390.868 351.11C390.858 350.719 390.927 350.329 391.069 349.965C391.211 349.6 391.424 349.268 391.696 348.989C391.967 348.709 392.292 348.488 392.65 348.337C393.008 348.187 393.392 348.111 393.78 348.113Z" fill="#DB0032"/>
<path d="M503.867 650.13V617.103C503.865 616.704 503.941 616.309 504.092 615.942C504.243 615.574 504.465 615.24 504.745 614.962C505.025 614.683 505.358 614.464 505.723 614.318C506.088 614.173 506.478 614.104 506.87 614.114C507.262 614.103 507.652 614.173 508.017 614.318C508.382 614.464 508.714 614.683 508.994 614.962C509.273 615.241 509.495 615.574 509.645 615.942C509.795 616.31 509.871 616.705 509.867 617.103V650.13C509.87 650.528 509.794 650.922 509.643 651.289C509.493 651.656 509.271 651.989 508.991 652.267C508.712 652.545 508.38 652.763 508.015 652.909C507.651 653.054 507.262 653.123 506.87 653.112C506.479 653.123 506.089 653.054 505.724 652.909C505.359 652.764 505.027 652.545 504.747 652.267C504.467 651.989 504.245 651.657 504.094 651.289C503.942 650.922 503.865 650.528 503.867 650.13Z" fill="#E9458D"/>
<path d="M362.867 320.207V288.026C362.864 287.638 362.94 287.253 363.09 286.895C363.24 286.537 363.462 286.212 363.742 285.94C364.022 285.668 364.354 285.455 364.719 285.313C365.085 285.171 365.475 285.104 365.867 285.114C366.259 285.104 366.65 285.171 367.015 285.313C367.38 285.455 367.713 285.668 367.993 285.94C368.273 286.212 368.494 286.537 368.645 286.895C368.795 287.253 368.871 287.638 368.867 288.026V320.207C368.87 320.594 368.793 320.978 368.643 321.336C368.492 321.693 368.27 322.017 367.99 322.289C367.71 322.56 367.378 322.772 367.013 322.914C366.649 323.055 366.259 323.123 365.867 323.112C365.476 323.123 365.086 323.055 364.721 322.914C364.356 322.772 364.024 322.56 363.744 322.289C363.464 322.017 363.242 321.693 363.092 321.336C362.941 320.978 362.865 320.594 362.867 320.207V320.207Z" fill="#6AC0AE"/>
<path d="M456.765 605.244C456.477 604.979 456.249 604.658 456.095 604.301C455.94 603.944 455.863 603.559 455.868 603.171V586.081C455.858 585.691 455.933 585.303 456.088 584.945C456.242 584.586 456.473 584.264 456.765 584.002C457.338 583.435 458.115 583.116 458.926 583.114C459.32 583.104 459.712 583.177 460.074 583.33C460.437 583.484 460.761 583.713 461.026 584.002C461.56 584.566 461.86 585.308 461.867 586.081V603.146C461.87 603.537 461.795 603.925 461.645 604.287C461.495 604.649 461.274 604.977 460.995 605.254C460.715 605.53 460.383 605.748 460.017 605.896C459.651 606.043 459.259 606.117 458.864 606.113C458.472 606.112 458.083 606.032 457.722 605.879C457.361 605.725 457.036 605.501 456.765 605.219V605.244Z" fill="#DB0032"/>
<path d="M459.303 580.765C460.144 580.775 460.979 580.616 461.758 580.296C462.536 579.976 463.242 579.502 463.833 578.903C464.439 578.314 464.921 577.609 465.248 576.829C465.575 576.05 465.742 575.212 465.738 574.367C465.748 573.517 465.585 572.673 465.259 571.888C464.932 571.103 464.449 570.393 463.839 569.8C463.248 569.2 462.541 568.725 461.761 568.404C460.982 568.083 460.146 567.922 459.303 567.932C458.461 567.923 457.627 568.083 456.849 568.403C456.07 568.723 455.364 569.196 454.773 569.794C454.165 570.39 453.683 571.101 453.356 571.887C453.028 572.673 452.862 573.516 452.868 574.367C452.865 575.212 453.033 576.049 453.36 576.829C453.687 577.608 454.168 578.313 454.773 578.903C455.364 579.501 456.07 579.975 456.849 580.294C457.627 580.614 458.461 580.774 459.303 580.765V580.765Z" fill="#DB0032"/>
<path d="M318.608 732.694C319.447 732.706 320.279 732.55 321.057 732.235C321.835 731.921 322.543 731.454 323.138 730.862C323.743 730.272 324.223 729.567 324.551 728.788C324.878 728.008 325.045 727.171 325.042 726.326C325.053 725.475 324.89 724.631 324.562 723.846C324.234 723.06 323.75 722.35 323.138 721.759C322.547 721.159 321.841 720.684 321.063 720.363C320.285 720.042 319.449 719.882 318.608 719.891C317.765 719.881 316.93 720.041 316.15 720.361C315.371 720.681 314.664 721.155 314.071 721.753C313.463 722.349 312.981 723.06 312.654 723.846C312.327 724.632 312.161 725.475 312.166 726.326C312.163 727.17 312.33 728.007 312.658 728.785C312.985 729.563 313.466 730.268 314.071 730.856C314.664 731.456 315.37 731.93 316.15 732.251C316.929 732.572 317.765 732.733 318.608 732.724V732.694Z" fill="#E9458D"/>
<path d="M555.867 546.113C556.652 546.122 557.431 545.959 558.156 545.634C558.882 545.309 559.54 544.829 560.091 544.222C560.656 543.627 561.105 542.914 561.411 542.125C561.716 541.337 561.871 540.49 561.867 539.635C561.877 538.773 561.725 537.918 561.421 537.122C561.116 536.326 560.666 535.606 560.096 535.005C559.544 534.398 558.885 533.918 558.159 533.593C557.432 533.268 556.653 533.105 555.867 533.114C555.082 533.106 554.304 533.269 553.578 533.594C552.853 533.919 552.195 534.399 551.643 535.005C551.076 535.608 550.627 536.329 550.322 537.124C550.017 537.919 549.862 538.773 549.867 539.635C549.865 540.49 550.021 541.336 550.326 542.124C550.631 542.912 551.079 543.626 551.643 544.222C552.195 544.828 552.853 545.308 553.578 545.633C554.304 545.958 555.082 546.121 555.867 546.113V546.113Z" fill="#E9458D"/>
<path d="M412.188 452.2C413.029 452.209 413.863 452.049 414.642 451.729C415.42 451.409 416.126 450.936 416.718 450.338C417.324 449.749 417.805 449.044 418.133 448.264C418.46 447.485 418.627 446.647 418.623 445.802C418.633 444.951 418.47 444.106 418.144 443.32C417.817 442.534 417.334 441.822 416.724 441.229C416.129 440.636 415.421 440.168 414.641 439.853C413.862 439.539 413.028 439.384 412.188 439.397C411.348 439.384 410.515 439.54 409.737 439.854C408.959 440.169 408.252 440.636 407.658 441.229C407.05 441.824 406.568 442.536 406.24 443.322C405.913 444.107 405.747 444.951 405.753 445.802C405.75 446.646 405.916 447.482 406.244 448.261C406.571 449.039 407.052 449.744 407.658 450.332C408.249 450.931 408.955 451.405 409.733 451.726C410.511 452.047 411.346 452.208 412.188 452.2Z" fill="#E9458D"/>
<path d="M508.596 733.959C509.437 733.968 510.272 733.808 511.05 733.488C511.828 733.168 512.534 732.695 513.126 732.097C513.731 731.507 514.212 730.801 514.539 730.022C514.866 729.243 515.033 728.405 515.031 727.56C515.041 726.709 514.878 725.865 514.55 725.08C514.223 724.295 513.738 723.585 513.126 722.994C512.535 722.395 511.829 721.921 511.051 721.6C510.272 721.279 509.438 721.117 508.596 721.125C507.753 721.117 506.917 721.278 506.138 721.599C505.359 721.92 504.652 722.394 504.06 722.994C503.452 723.588 502.971 724.299 502.645 725.083C502.319 725.868 502.154 726.711 502.161 727.56C502.157 728.405 502.323 729.242 502.649 730.021C502.976 730.801 503.455 731.506 504.06 732.097C504.652 732.695 505.359 733.169 506.139 733.488C506.918 733.808 507.753 733.968 508.596 733.959V733.959Z" fill="#7743AB"/>
<path d="M554.623 357.826C555.465 357.835 556.3 357.674 557.078 357.353C557.857 357.032 558.563 356.558 559.153 355.958C559.761 355.37 560.243 354.664 560.57 353.885C560.898 353.105 561.064 352.267 561.058 351.422C561.069 350.571 560.906 349.728 560.579 348.943C560.253 348.158 559.77 347.447 559.159 346.855C558.567 346.255 557.86 345.781 557.081 345.46C556.302 345.139 555.466 344.978 554.623 344.987C553.781 344.979 552.947 345.14 552.168 345.461C551.39 345.782 550.685 346.256 550.093 346.855C549.486 347.45 549.004 348.16 548.677 348.945C548.35 349.729 548.184 350.572 548.188 351.422C548.186 352.267 548.353 353.104 548.68 353.883C549.007 354.662 549.488 355.368 550.093 355.958C550.685 356.557 551.39 357.031 552.168 357.352C552.947 357.673 553.781 357.834 554.623 357.826V357.826Z" fill="#E9458D"/>
<path d="M553.219 262.834C554.06 262.842 554.895 262.682 555.673 262.362C556.451 262.042 557.157 261.569 557.749 260.972C558.354 260.382 558.835 259.676 559.162 258.897C559.489 258.118 559.657 257.281 559.654 256.435C559.664 255.584 559.5 254.74 559.174 253.954C558.848 253.168 558.365 252.456 557.755 251.863C557.162 251.264 556.455 250.791 555.676 250.471C554.897 250.151 554.061 249.991 553.219 250C552.378 249.991 551.543 250.151 550.765 250.471C549.987 250.791 549.281 251.264 548.689 251.863C548.081 252.458 547.599 253.17 547.272 253.955C546.944 254.741 546.779 255.584 546.784 256.435C546.781 257.28 546.948 258.116 547.275 258.894C547.602 259.673 548.083 260.377 548.689 260.965C549.28 261.564 549.986 262.039 550.764 262.359C551.542 262.68 552.377 262.842 553.219 262.834V262.834Z" fill="#6AC0AE"/>
<path d="M411.864 690.113C409.213 690.113 406.67 689.007 404.795 687.039C402.92 685.07 401.867 682.4 401.867 679.616C401.867 676.832 402.92 674.161 404.795 672.192C406.67 670.222 409.212 669.115 411.864 669.113C414.517 669.113 417.061 670.22 418.937 672.19C420.813 674.159 421.867 676.831 421.867 679.616C421.867 680.995 421.608 682.361 421.106 683.635C420.603 684.909 419.866 686.066 418.937 687.041C418.008 688.016 416.905 688.789 415.692 689.316C414.478 689.843 413.178 690.114 411.864 690.113Z" fill="#FED16D"/>
<path d="M556.864 455.113C555.551 455.114 554.251 454.856 553.038 454.354C551.824 453.852 550.722 453.115 549.793 452.187C548.865 451.259 548.129 450.156 547.627 448.943C547.124 447.73 546.866 446.429 546.867 445.116C546.866 443.803 547.124 442.502 547.626 441.289C548.128 440.075 548.865 438.972 549.793 438.044C550.721 437.115 551.824 436.378 553.037 435.875C554.25 435.372 555.551 435.113 556.864 435.113C559.517 435.113 562.061 436.167 563.937 438.043C565.813 439.919 566.867 442.463 566.867 445.116C566.867 446.43 566.608 447.73 566.106 448.943C565.603 450.157 564.866 451.259 563.937 452.187C563.008 453.116 561.905 453.852 560.692 454.354C559.478 454.856 558.178 455.114 556.864 455.113Z" fill="#FED16D"/>
<path d="M550.131 451.586C549.362 450.811 548.753 449.883 548.34 448.857C547.927 447.831 547.718 446.728 547.727 445.616C547.724 444.514 547.935 443.422 548.348 442.405C548.761 441.389 549.368 440.47 550.131 439.703C550.87 438.91 551.755 438.281 552.734 437.852C553.713 437.423 554.766 437.204 555.828 437.208C556.899 437.205 557.959 437.424 558.947 437.852C559.934 438.281 560.83 438.91 561.58 439.703C562.334 440.474 562.931 441.395 563.334 442.411C563.737 443.427 563.937 444.518 563.923 445.616C563.943 446.724 563.746 447.825 563.343 448.851C562.94 449.878 562.34 450.808 561.58 451.586C560.83 452.376 559.934 453 558.945 453.419C557.957 453.838 556.896 454.044 555.828 454.025C554.769 454.039 553.718 453.83 552.739 453.411C551.76 452.992 550.873 452.371 550.131 451.586V451.586ZM565.756 455.853C567.056 454.511 568.088 452.916 568.794 451.159C569.499 449.403 569.864 447.519 569.867 445.616C569.864 443.713 569.499 441.83 568.794 440.074C568.088 438.317 567.056 436.722 565.756 435.38C563.124 432.654 559.559 431.12 555.84 431.113C554.007 431.116 552.192 431.494 550.499 432.226C548.807 432.958 547.27 434.03 545.978 435.38C544.678 436.722 543.646 438.317 542.941 440.074C542.235 441.83 541.871 443.713 541.867 445.616C541.871 447.519 542.235 449.403 542.941 451.159C543.646 452.916 544.678 454.511 545.978 455.853C547.272 457.201 548.808 458.271 550.501 459.002C552.193 459.733 554.007 460.111 555.84 460.113C559.558 460.106 563.122 458.575 565.756 455.853V455.853Z" fill="#6AC0AE"/>
<path d="M460.87 502.113C458.217 502.113 455.673 501.059 453.797 499.183C451.921 497.307 450.867 494.763 450.867 492.11C450.869 489.458 451.923 486.916 453.799 485.041C455.675 483.166 458.218 482.113 460.87 482.113C463.521 482.115 466.063 483.169 467.937 485.043C469.812 486.917 470.866 489.459 470.867 492.11C470.867 494.762 469.814 497.306 467.94 499.181C466.065 501.057 463.522 502.112 460.87 502.113V502.113Z" fill="#FED16D"/>
<path d="M454.426 497.88C453.63 497.131 453 496.233 452.572 495.241C452.144 494.25 451.928 493.185 451.936 492.11C451.934 491.046 452.153 489.993 452.581 489.013C453.008 488.033 453.636 487.147 454.426 486.407C455.191 485.642 456.107 485.035 457.12 484.621C458.132 484.207 459.221 483.995 460.32 483.998C461.429 483.995 462.527 484.206 463.55 484.62C464.573 485.034 465.501 485.641 466.277 486.407C467.061 487.148 467.681 488.036 468.099 489.017C468.518 489.997 468.726 491.05 468.711 492.11C468.73 493.181 468.524 494.245 468.105 495.237C467.687 496.228 467.065 497.128 466.277 497.88C465.5 498.641 464.571 499.241 463.548 499.645C462.524 500.049 461.426 500.247 460.32 500.229C459.225 500.241 458.139 500.04 457.126 499.636C456.113 499.233 455.195 498.635 454.426 497.88V497.88ZM470.61 501.994C471.956 500.698 473.025 499.158 473.755 497.462C474.486 495.766 474.864 493.948 474.867 492.11C474.864 490.273 474.486 488.454 473.755 486.759C473.025 485.063 471.956 483.523 470.61 482.227C467.878 479.599 464.185 478.121 460.333 478.113C456.499 478.121 452.825 479.6 450.119 482.227C447.404 484.846 445.875 488.401 445.867 492.11C445.875 495.82 447.404 499.375 450.119 501.994C451.458 503.296 453.049 504.331 454.802 505.037C456.555 505.744 458.434 506.11 460.333 506.113C464.186 506.107 467.881 504.626 470.61 501.994V501.994Z" fill="#E9458D"/>
<path d="M460.87 314.113C458.218 314.113 455.675 313.06 453.799 311.186C451.923 309.311 450.869 306.768 450.867 304.116C450.867 301.463 451.921 298.919 453.797 297.043C455.673 295.167 458.217 294.113 460.87 294.113C463.522 294.115 466.065 295.169 467.94 297.045C469.814 298.921 470.867 301.464 470.867 304.116C470.866 306.767 469.812 309.309 467.937 311.183C466.063 313.058 463.521 314.112 460.87 314.113Z" fill="#FED16D"/>
<path d="M454.747 310.205C453.966 309.447 453.347 308.538 452.928 307.534C452.508 306.53 452.296 305.451 452.305 304.363C452.302 303.283 452.516 302.214 452.936 301.22C453.356 300.225 453.972 299.326 454.747 298.575C455.497 297.8 456.396 297.184 457.389 296.765C458.383 296.345 459.45 296.13 460.529 296.133C461.616 296.13 462.694 296.344 463.697 296.764C464.7 297.183 465.61 297.799 466.372 298.575C467.14 299.328 467.747 300.23 468.158 301.225C468.568 302.219 468.772 303.287 468.759 304.363C468.778 305.448 468.576 306.525 468.165 307.529C467.755 308.534 467.145 309.444 466.372 310.205C465.61 310.979 464.7 311.589 463.696 311.999C462.691 312.41 461.614 312.611 460.529 312.593C459.454 312.607 458.387 312.403 457.393 311.993C456.399 311.582 455.499 310.974 454.747 310.205V310.205ZM470.621 314.381C471.941 313.068 472.99 311.507 473.706 309.788C474.423 308.069 474.793 306.225 474.797 304.363C474.793 302.5 474.423 300.657 473.706 298.938C472.99 297.218 471.941 295.658 470.621 294.344C467.944 291.676 464.321 290.174 460.541 290.168C458.679 290.171 456.835 290.542 455.116 291.259C453.397 291.975 451.836 293.024 450.522 294.344C447.86 296.999 446.36 300.603 446.353 304.363C446.36 308.123 447.86 311.726 450.522 314.381C453.177 317.044 456.781 318.544 460.541 318.551C464.319 318.544 467.942 317.045 470.621 314.381V314.381Z" fill="#E9458D"/>
<path d="M317.87 644.113C315.218 644.113 312.675 643.008 310.799 641.039C308.923 639.071 307.869 636.401 307.867 633.616C307.867 630.831 308.921 628.159 310.797 626.189C312.673 624.22 315.217 623.113 317.87 623.113C320.522 623.115 323.065 624.222 324.939 626.192C326.814 628.161 327.867 630.832 327.867 633.616C327.866 636.4 326.812 639.069 324.937 641.037C323.063 643.005 320.521 644.112 317.87 644.113V644.113Z" fill="#FED16D"/>
<path d="M311.354 639.552C310.591 638.782 309.988 637.869 309.578 636.865C309.168 635.861 308.961 634.787 308.967 633.703C308.96 632.62 309.168 631.546 309.578 630.543C309.987 629.541 310.591 628.629 311.354 627.86C312.119 627.088 313.029 626.474 314.031 626.055C315.034 625.636 316.11 625.419 317.197 625.418C318.284 625.415 319.361 625.629 320.365 626.049C321.368 626.468 322.278 627.084 323.04 627.86C323.813 628.621 324.423 629.532 324.833 630.536C325.244 631.541 325.446 632.618 325.427 633.703C325.446 634.789 325.244 635.867 324.834 636.872C324.423 637.878 323.813 638.789 323.04 639.552C322.278 640.324 321.367 640.933 320.363 641.343C319.358 641.752 318.281 641.953 317.197 641.933C316.114 641.942 315.04 641.737 314.037 641.328C313.034 640.919 312.122 640.316 311.354 639.552ZM327.27 643.722C328.592 642.409 329.641 640.848 330.358 639.129C331.074 637.409 331.444 635.565 331.446 633.703C331.425 630.731 330.489 627.839 328.766 625.418H338.602C338.992 625.421 339.378 625.345 339.738 625.195C340.098 625.045 340.424 624.824 340.697 624.546C340.97 624.267 341.184 623.936 341.327 623.573C341.469 623.21 341.537 622.822 341.526 622.433C341.537 622.043 341.469 621.655 341.327 621.293C341.184 620.93 340.97 620.6 340.697 620.322C340.424 620.044 340.098 619.823 339.738 619.674C339.378 619.525 338.991 619.45 338.602 619.453H306.281C305.891 619.451 305.506 619.526 305.147 619.676C304.787 619.826 304.462 620.046 304.189 620.324C303.917 620.602 303.704 620.932 303.562 621.294C303.419 621.656 303.352 622.044 303.362 622.433C303.355 623.121 303.589 623.791 304.024 624.325C304.459 624.859 305.067 625.224 305.743 625.357C303.95 627.768 302.988 630.697 303.002 633.703C303.004 635.565 303.374 637.409 304.091 639.129C304.808 640.848 305.857 642.409 307.178 643.722C308.492 645.042 310.053 646.09 311.772 646.807C313.491 647.523 315.334 647.894 317.197 647.898C319.068 647.901 320.922 647.533 322.651 646.816C324.38 646.1 325.95 645.048 327.27 643.722V643.722Z" fill="#E9458D"/>
<path d="M555.873 644.113C553.221 644.113 550.676 643.008 548.8 641.039C546.924 639.071 545.869 636.401 545.867 633.616C545.867 630.831 546.921 628.159 548.798 626.189C550.674 624.22 553.219 623.113 555.873 623.113C558.525 623.117 561.067 624.225 562.941 626.194C564.815 628.163 565.867 630.833 565.867 633.616C565.866 636.4 564.812 639.069 562.936 641.037C561.061 643.005 558.519 644.112 555.867 644.113H555.873Z" fill="#FED16D"/>
<path d="M550.143 639.586C549.374 638.811 548.765 637.883 548.352 636.857C547.939 635.831 547.73 634.728 547.739 633.616C547.735 632.513 547.946 631.421 548.359 630.405C548.773 629.389 549.379 628.47 550.143 627.703C550.882 626.91 551.767 626.281 552.746 625.852C553.725 625.423 554.778 625.204 555.84 625.208C556.911 625.205 557.971 625.424 558.959 625.852C559.946 626.281 560.841 626.91 561.591 627.703C562.348 628.473 562.946 629.394 563.35 630.41C563.753 631.426 563.955 632.517 563.941 633.616C563.96 634.725 563.761 635.826 563.357 636.852C562.953 637.878 562.353 638.808 561.591 639.586C560.842 640.375 559.945 640.998 558.957 641.416C557.968 641.834 556.908 642.039 555.84 642.019C554.781 642.035 553.73 641.828 552.751 641.41C551.771 640.992 550.884 640.371 550.143 639.586V639.586ZM565.816 643.79C567.107 642.457 568.129 640.872 568.825 639.125C569.52 637.379 569.874 635.506 569.867 633.616C569.865 631.713 569.501 629.829 568.795 628.073C568.09 626.316 567.057 624.721 565.756 623.38C563.124 620.653 559.559 619.119 555.84 619.113C552.14 619.131 548.595 620.665 545.978 623.38C544.677 624.721 543.644 626.316 542.939 628.073C542.234 629.829 541.869 631.713 541.867 633.616C541.874 636.708 542.958 639.693 544.92 642.019C544.193 642.079 543.513 642.419 543.015 642.971C542.516 643.524 542.233 644.25 542.222 645.007C542.218 645.415 542.293 645.821 542.444 646.198C542.595 646.575 542.818 646.917 543.099 647.203C543.667 647.775 544.424 648.1 545.215 648.113H555.948C559.651 648.054 563.187 646.504 565.81 643.79H565.816Z" fill="#79A3DC"/>
<path d="M319.87 362.113C317.218 362.113 314.675 361.008 312.799 359.039C310.923 357.071 309.869 354.401 309.867 351.616C309.867 350.237 310.126 348.871 310.629 347.597C311.131 346.323 311.868 345.165 312.797 344.19C313.726 343.214 314.829 342.441 316.042 341.913C317.256 341.385 318.557 341.113 319.87 341.113C321.184 341.113 322.484 341.385 323.697 341.913C324.911 342.441 326.013 343.215 326.941 344.19C327.87 345.165 328.606 346.323 329.108 347.598C329.61 348.872 329.868 350.237 329.867 351.616C329.867 354.4 328.814 357.07 326.939 359.039C325.064 361.007 322.522 362.113 319.87 362.113Z" fill="#FED16D"/>
<path d="M314.143 357.586C313.375 356.81 312.767 355.882 312.354 354.856C311.941 353.83 311.731 352.728 311.739 351.616C311.737 350.514 311.948 349.422 312.361 348.406C312.774 347.39 313.38 346.471 314.143 345.703C314.882 344.911 315.768 344.283 316.747 343.854C317.726 343.425 318.778 343.205 319.84 343.208C320.911 343.205 321.971 343.424 322.959 343.852C323.946 344.281 324.842 344.91 325.592 345.703C326.348 346.473 326.946 347.394 327.349 348.41C327.753 349.426 327.955 350.517 327.941 351.616C327.96 352.725 327.761 353.826 327.357 354.852C326.953 355.878 326.353 356.808 325.592 357.586C324.842 358.376 323.946 359 322.957 359.419C321.969 359.838 320.908 360.044 319.84 360.025C318.781 360.038 317.731 359.828 316.752 359.409C315.772 358.99 314.885 358.37 314.143 357.586V357.586ZM329.816 361.79C331.107 360.457 332.13 358.872 332.825 357.125C333.52 355.379 333.874 353.506 333.867 351.616C333.864 349.714 333.5 347.831 332.796 346.074C332.091 344.318 331.061 342.723 329.762 341.38C327.128 338.654 323.561 337.12 319.84 337.113C316.14 337.133 312.596 338.666 309.978 341.38C308.678 342.722 307.645 344.317 306.94 346.073C306.235 347.83 305.87 349.713 305.867 351.616C305.875 354.71 306.959 357.696 308.92 360.025C308.193 360.083 307.513 360.421 307.013 360.972C306.514 361.524 306.232 362.25 306.222 363.007C306.218 363.415 306.293 363.821 306.444 364.198C306.595 364.575 306.818 364.917 307.099 365.203C307.667 365.775 308.424 366.1 309.215 366.113H319.942C323.646 366.059 327.184 364.508 329.804 361.79H329.816Z" fill="#79A3DC"/>
<path d="M406.438 685.582C405.642 684.807 405.011 683.879 404.583 682.853C404.155 681.827 403.939 680.725 403.948 679.613C403.946 678.511 404.166 677.419 404.593 676.403C405.021 675.388 405.649 674.469 406.438 673.701C407.204 672.91 408.12 672.282 409.133 671.854C410.145 671.425 411.234 671.205 412.333 671.206C413.442 671.204 414.541 671.423 415.565 671.852C416.589 672.28 417.518 672.909 418.296 673.701C419.077 674.472 419.695 675.393 420.112 676.409C420.529 677.425 420.737 678.515 420.724 679.613C420.744 680.721 420.539 681.821 420.122 682.847C419.705 683.873 419.083 684.804 418.296 685.582C417.519 686.372 416.589 686.995 415.564 687.414C414.539 687.833 413.44 688.04 412.333 688.02C411.237 688.035 410.149 687.826 409.136 687.407C408.122 686.988 407.205 686.367 406.438 685.582ZM422.672 689.785C424.008 688.452 425.067 686.867 425.788 685.121C426.508 683.375 426.875 681.503 426.867 679.613C426.863 677.711 426.486 675.828 425.755 674.072C425.025 672.316 423.956 670.721 422.61 669.379C419.881 666.653 416.186 665.119 412.333 665.113C408.502 665.131 404.833 666.664 402.125 669.379C400.779 670.721 399.71 672.316 398.979 674.072C398.249 675.828 397.871 677.711 397.867 679.613C397.874 682.706 398.997 685.692 401.029 688.02C400.275 688.078 399.57 688.415 399.052 688.967C398.534 689.518 398.24 690.244 398.228 691.001C398.225 691.41 398.304 691.816 398.461 692.193C398.619 692.57 398.851 692.912 399.143 693.197C399.728 693.773 400.513 694.102 401.334 694.113H412.457C416.294 694.055 419.957 692.502 422.672 689.785V689.785Z" fill="#6AC0AE"/>
</g>
<defs>
<clipPath id="clip0_2_145">
<rect width="734" height="300" fill="white" transform="matrix(0 1 -1 0 300 0)"/>
</clipPath>
<clipPath id="clip1_2_145">
<rect width="734" height="300" fill="white" transform="matrix(0 1 -1 0 600 0)"/>
</clipPath>
</defs>
</svg>
