<svg width="679" height="668" viewBox="0 0 679 668" fill="none" xmlns="http://www.w3.org/2000/svg">
<g clip-path="url(#clip0_17_8)">
<path d="M462.859 695.667V459.484L250.103 145.277C241.668 135.213 237.032 122.537 237 109.438C237.017 101.645 238.681 93.9422 241.883 86.8289C245.085 79.7156 249.756 73.3501 255.59 68.1445C266.109 58.8067 279.784 53.7583 293.885 54.0089C301.343 54.0383 308.688 55.8177 315.324 59.2024C321.959 62.5871 327.696 67.4814 332.068 73.4868L518.062 352.967L701.815 72.4855C706.767 66.6347 712.96 61.9441 719.949 58.75C726.937 55.5558 734.549 53.9368 742.24 54.0089C755.111 54.0568 767.54 58.6758 777.287 67.0318C783.527 71.9614 788.549 78.2464 791.965 85.4044C795.381 92.5623 797.101 100.403 796.995 108.324C796.804 121.414 792.146 134.051 783.783 144.164L572.709 459.484V695.667C572.771 702.77 571.391 709.814 568.654 716.376C565.918 722.939 561.879 728.885 556.779 733.862C551.678 738.838 545.623 742.741 538.971 745.339C532.319 747.937 525.207 749.175 518.062 748.98C510.918 749.175 503.809 747.937 497.157 745.339C490.505 742.741 484.447 738.838 479.346 733.862C474.246 728.885 470.207 722.939 467.471 716.376C464.734 709.814 463.356 702.77 463.419 695.667H462.859Z" fill="#FED16D"/>
</g>
<defs>
<clipPath id="clip0_17_8">
<rect width="679" height="668" fill="white"/>
</clipPath>
</defs>
</svg>
