<svg width="24" height="24" viewBox="0 0 24 24" fill="none" xmlns="http://www.w3.org/2000/svg">
<path d="M17.9969 18.0001V17.9996H17.9999V13.5986C17.9999 11.4456 17.5364 9.78711 15.0194 9.78711C13.8094 9.78711 12.9974 10.4511 12.6659 11.0806H12.6309V9.98811H10.2444V17.9996H12.7294V14.0326C12.7294 12.9881 12.9274 11.9781 14.2209 11.9781C15.4954 11.9781 15.5144 13.1701 15.5144 14.0996V18.0001H17.9969Z" fill="white"/>
<path d="M6.198 9.98828H8.686V17.9998H6.198V9.98828Z" fill="white"/>
<path d="M7.441 6C6.6455 6 6 6.6455 6 7.441C6 8.2365 6.6455 8.8955 7.441 8.8955C8.2365 8.8955 8.882 8.2365 8.882 7.441C8.8815 6.6455 8.236 6 7.441 6V6Z" fill="white"/>
</svg>
