<svg width="24" height="24" viewBox="0 0 24 24" fill="none" xmlns="http://www.w3.org/2000/svg">
<path fill-rule="evenodd" clip-rule="evenodd" d="M13.3199 9.0968C13.3199 8.38977 12.7241 7.81484 11.9917 7.81484C11.2598 7.81484 10.6634 8.38977 10.6634 9.0968C10.6634 9.80328 11.2598 10.3786 11.9917 10.3786C12.7241 10.3786 13.3199 9.80328 13.3199 9.0968ZM15.1997 9.09679C15.1997 10.804 13.7613 12.1927 11.9918 12.1927C10.2226 12.1927 8.78379 10.804 8.78379 9.09679C8.78379 7.38905 10.2226 6 11.9918 6C13.7613 6 15.1997 7.38905 15.1997 9.09679ZM15.1607 13.9755C14.5806 14.3272 13.9509 14.5766 13.2979 14.7201L15.0912 16.4514C15.4586 16.8053 15.4586 17.38 15.0912 17.7343C14.7242 18.0886 14.1294 18.0886 13.7628 17.7343L11.9996 16.0331L10.2379 17.7343C10.0542 17.9112 9.81352 17.9998 9.57282 17.9998C9.33251 17.9998 9.0922 17.9112 8.90851 17.7343C8.54151 17.38 8.54151 16.8057 8.90812 16.4514L10.7016 14.7201C10.0487 14.5766 9.41889 14.3268 8.83883 13.9755C8.39985 13.7083 8.26799 13.1486 8.54458 12.7245C8.8204 12.2998 9.40046 12.172 9.8402 12.4392C11.1535 13.2366 12.8453 13.2368 14.1593 12.4392C14.5991 12.172 15.1789 12.2998 15.4553 12.7245C15.7319 13.1482 15.5997 13.7083 15.1607 13.9755Z" fill="white"/>
</svg>
