<svg width="18" height="18" viewBox="0 0 18 18" fill="none" xmlns="http://www.w3.org/2000/svg">
<path d="M7.9513 10.0488C6.8788 8.97633 6.0703 7.7755 5.53314 6.55725C5.41947 6.29967 5.48639 5.99808 5.6853 5.79917L6.43605 5.04933C7.05114 4.43425 7.05114 3.56433 6.51397 3.02717L5.4378 1.951C4.72189 1.23508 3.56139 1.23508 2.84547 1.951L2.2478 2.54867C1.56855 3.22792 1.2853 4.20783 1.46864 5.1795C1.92147 7.57475 3.31297 10.1973 5.55789 12.4423C7.8028 14.6872 10.4254 16.0787 12.8206 16.5315C13.7923 16.7148 14.7722 16.4316 15.4515 15.7523L16.0482 15.1556C16.7641 14.4397 16.7641 13.2792 16.0482 12.5633L14.973 11.488C14.4358 10.9508 13.565 10.9508 13.0287 11.488L12.201 12.3167C12.0021 12.5156 11.7005 12.5825 11.4429 12.4688C10.2246 11.9308 9.0238 11.1213 7.9513 10.0488V10.0488Z" stroke="white" stroke-width="1.2" stroke-linecap="round" stroke-linejoin="round"/>
</svg>
