<svg width="19" height="19" viewBox="0 0 19 19" fill="none" xmlns="http://www.w3.org/2000/svg">
<path d="M17.4543 3.67372C17.2472 3.39519 17.0424 3.11666 16.862 2.83594L5.7925 9.09958L0.4492 6.0818C0.326564 6.40743 0.2516 6.7486 0.226562 7.09504L5.84371 10.2992L17.4543 3.67372Z" fill="white"/>
<path d="M5.7929 11.4561L0.0533029 8.21019C0.0108298 8.40983 -0.00637001 8.61389 0.00209632 8.81769C0.00209632 11.2993 1.00286 13.6794 2.78424 15.4341C4.56562 17.1889 6.98168 18.1748 9.50093 18.1748C12.0202 18.1748 14.4362 17.1889 16.2176 15.4341C17.999 13.6794 18.9998 11.2993 18.9998 8.81769C19.0104 7.33708 18.6575 5.87587 17.9712 4.55859L5.7929 11.4561Z" fill="white"/>
<path d="M16.09 2.05042C15.8195 1.7989 15.5356 1.5617 15.2395 1.33984L5.79302 6.74158L1.23785 4.17997C1.08423 4.4585 0.928383 4.76335 0.748047 5.09233L5.74181 7.93246L16.09 2.05042Z" fill="white"/>
<path d="M14.3125 0.732842C13.9549 0.522003 13.583 0.335868 13.1993 0.175781L5.79213 4.37786L2.4726 2.53342C2.24996 2.75273 2.02733 3.04004 1.80469 3.31857L5.76764 5.55119L14.3125 0.732842Z" fill="white"/>
</svg>
