<svg width="24" height="24" viewBox="0 0 24 24" fill="none" xmlns="http://www.w3.org/2000/svg">
<path d="M18.5485 14.9608C16.8373 14.6792 16.0661 12.9264 16.0349 12.852C16.0325 12.8472 16.0309 12.8424 16.0277 12.8376C15.9405 12.66 15.9197 12.5136 15.9677 12.4024C16.0613 12.1832 16.4197 12.0696 16.6565 11.9944C16.7253 11.9728 16.7901 11.952 16.8437 11.9312C17.0773 11.8392 17.2437 11.7392 17.3541 11.6264C17.4853 11.4912 17.5109 11.3616 17.5093 11.2776C17.5053 11.0728 17.3485 10.8904 17.0981 10.8016C17.0141 10.7672 16.9173 10.7488 16.8197 10.7488C16.7533 10.7488 16.6541 10.7576 16.5605 10.8016C16.3605 10.8952 16.1813 10.9464 16.0269 10.9536C15.9453 10.9496 15.8877 10.932 15.8501 10.9152C15.8549 10.8352 15.8597 10.7528 15.8653 10.668L15.8677 10.6312C15.9229 9.7648 15.9909 8.6872 15.7045 8.0472C15.5085 7.6088 15.2453 7.232 14.9213 6.9264C14.6501 6.6704 14.3349 6.4624 13.9845 6.3088C13.3757 6.04 12.8077 6 12.5229 6H12.5221C12.5109 6 12.5005 6 12.4909 6C12.4117 6.0008 12.2829 6.0024 12.2709 6.0024C11.9869 6.0024 11.4181 6.0424 10.8077 6.3112C10.4581 6.4648 10.1445 6.672 9.8741 6.928C9.5517 7.2336 9.2893 7.6096 9.0941 8.0464C8.8077 8.6856 8.8757 9.7632 8.9301 10.6288V10.6304C8.9357 10.7232 8.9421 10.82 8.9477 10.9144C8.9061 10.9328 8.8381 10.9536 8.7381 10.9536C8.5765 10.9536 8.3845 10.9024 8.1677 10.8008C8.1037 10.7712 8.0309 10.756 7.9509 10.756C7.8221 10.756 7.6853 10.7936 7.5677 10.8632C7.4189 10.9504 7.3229 11.0728 7.2965 11.2096C7.2797 11.2992 7.2805 11.4776 7.4789 11.6584C7.5885 11.7576 7.7485 11.8496 7.9557 11.9312C8.0101 11.9528 8.0749 11.9728 8.1429 11.9944C8.3797 12.0696 8.7389 12.1832 8.8325 12.4024C8.8797 12.5136 8.8589 12.66 8.7717 12.8376C8.7693 12.8424 8.7669 12.8472 8.7653 12.852C8.7429 12.9032 8.5389 13.3632 8.1205 13.8488C7.8829 14.1248 7.6213 14.356 7.3429 14.5352C7.0029 14.7544 6.6357 14.8968 6.2509 14.96C6.0997 14.9848 5.9917 15.1192 6.0005 15.272C6.0029 15.316 6.0133 15.36 6.0317 15.4024V15.4032C6.0933 15.5464 6.2349 15.6672 6.4653 15.7736C6.7469 15.904 7.1677 16.0136 7.7173 16.0992C7.7453 16.152 7.7741 16.284 7.7941 16.3744C7.8149 16.4704 7.8365 16.5696 7.8677 16.6744C7.9013 16.788 7.9877 16.924 8.2109 16.924C8.2957 16.924 8.3925 16.9048 8.5053 16.8832C8.6701 16.8512 8.8957 16.8072 9.1765 16.8072C9.3325 16.8072 9.4941 16.8208 9.6565 16.848C9.9701 16.9 10.2405 17.0904 10.5533 17.3112C11.0109 17.6344 11.5293 18 12.3213 18C12.3429 18 12.3645 17.9992 12.3861 17.9976C12.4117 17.9992 12.4445 18 12.4781 18C13.2701 18 13.7885 17.6344 14.2461 17.312L14.2469 17.3112C14.5597 17.0912 14.8301 16.9008 15.1437 16.8488C15.3061 16.8216 15.4677 16.808 15.6237 16.808C15.8925 16.808 16.1053 16.8424 16.2949 16.8792C16.4189 16.9032 16.5149 16.9152 16.5893 16.9152H16.5965H16.6037C16.7669 16.9152 16.8869 16.8256 16.9325 16.6696C16.9629 16.5664 16.9845 16.4704 17.0061 16.372C17.0245 16.2872 17.0549 16.1512 17.0821 16.0984C17.6317 16.012 18.0525 15.9032 18.3341 15.7728C18.5637 15.6664 18.7053 15.5456 18.7669 15.4032C18.7853 15.3608 18.7965 15.3168 18.7989 15.2712C18.8077 15.12 18.6997 14.9848 18.5485 14.9608Z" fill="white" stroke="white" stroke-width="0.3"/>
</svg>
