<svg width="24" height="24" viewBox="0 0 24 24" fill="none" xmlns="http://www.w3.org/2000/svg">
<path fill-rule="evenodd" clip-rule="evenodd" d="M12.7847 16.9624C12.7847 16.9624 13.0734 16.9307 13.2213 16.7741C13.3567 16.6306 13.352 16.3598 13.352 16.3598C13.352 16.3598 13.334 15.0951 13.9296 14.9084C14.5165 14.7248 15.2701 16.1314 16.0699 16.6723C16.674 17.0812 17.1326 16.9917 17.1326 16.9917L19.2697 16.9624C19.2697 16.9624 20.3872 16.8945 19.8574 16.028C19.8136 15.957 19.5483 15.3868 18.2688 14.2155C16.9283 12.9895 17.1083 13.1878 18.722 11.0667C19.7048 9.77504 20.0977 8.98648 19.9748 8.64929C19.8582 8.32677 19.1351 8.41242 19.1351 8.41242L16.7296 8.42708C16.7296 8.42708 16.5511 8.40316 16.4189 8.48109C16.2898 8.55747 16.206 8.73571 16.206 8.73571C16.206 8.73571 15.8257 9.73492 15.3178 10.5852C14.2465 12.3784 13.8184 12.4733 13.6431 12.3622C13.2354 12.1021 13.3372 11.319 13.3372 10.7627C13.3372 9.02428 13.6048 8.29976 12.8167 8.11227C12.5554 8.04977 12.3629 8.00887 11.6938 8.00193C10.8353 7.99344 10.1091 8.00502 9.69746 8.20332C9.42357 8.33526 9.21227 8.63 9.3414 8.64698C9.50026 8.66781 9.86024 8.74266 10.0512 8.99882C10.2977 9.32983 10.2891 10.0721 10.2891 10.0721C10.2891 10.0721 10.4307 12.1184 9.95806 12.3722C9.63408 12.5466 9.18958 12.1909 8.23407 10.5636C7.74497 9.73029 7.37561 8.80901 7.37561 8.80901C7.37561 8.80901 7.30439 8.63695 7.17683 8.54436C7.02267 8.43248 6.80747 8.39776 6.80747 8.39776L4.52161 8.41242C4.52161 8.41242 4.17806 8.42167 4.05207 8.56905C3.94016 8.69945 4.04346 8.97027 4.04346 8.97027C4.04346 8.97027 5.83318 13.099 7.86001 15.18C9.71859 17.0874 11.8284 16.9624 11.8284 16.9624H12.7847Z" fill="white"/>
</svg>
